<?xml version="1.0" encoding="utf-8"?>
<!-- Svg Vector Icons : http://www.onlinewebfonts.com/icon -->
<!DOCTYPE svg PUBLIC "-//W3C//DTD SVG 1.1//EN" "http://www.w3.org/Graphics/SVG/1.1/DTD/svg11.dtd">
<svg version="1.1" xmlns="http://www.w3.org/2000/svg" xmlns:xlink="http://www.w3.org/1999/xlink" x="0px" y="0px" viewBox="0 0 256 256" enable-background="new 0 0 256 256" xml:space="preserve">
<metadata> Svg Vector Icons : http://www.onlinewebfonts.com/icon </metadata>
<g><g><g><path fill="#000000" d="M27,32.8c-1.5,0.3-3.7,1.2-5.1,1.8c-3.1,1.6-7.7,6.2-9.3,9.3C10,49.2,10,47.5,10,105.7c0,33.7,0.2,54.4,0.5,56c1.6,8.4,9,15.9,17.5,17.5c3.4,0.6,152.5,0.6,155.9,0c8.4-1.6,15.9-9,17.5-17.5c0.6-3.4,0.6-108.2,0-111.6c-1.6-8.5-9-15.9-17.5-17.5c-1.6-0.3-29.6-0.5-78.4-0.4C42.4,32.2,29.1,32.3,27,32.8z M183.6,48c0.7,0.5,1.7,1.5,2.2,2.2c1,1.2,1,1.4,1,55.6c0,54.2,0,54.3-1,55.6c-0.5,0.7-1.5,1.7-2.2,2.2l-1.2,1h-76.5H29.4l-1.2-1c-0.7-0.5-1.7-1.5-2.2-2.2c-1-1.2-1-1.6-1.1-54.3c0-29.2,0-53.7,0.1-54.6c0.3-1.8,2.3-4.2,4.1-5C30.3,47,44,46.9,106.4,47C182.3,47.1,182.3,47.1,183.6,48z"/><path fill="#000000" d="M106,55.1c-2.8,1.3-4,3.5-4.3,8.3l-0.3,3.9l-2.8,1c-9.7,3.5-15.4,13-14,23.2c1.2,8.7,7.5,14.8,21.7,21.1c10.6,4.7,12.9,6.5,12.9,10.5c0,4.7-2.2,7-7.6,7.7c-5.3,0.8-9.3-0.6-11.6-4.1c-0.6-0.9-1.1-2.2-1.1-2.9c0-1.8-1-3.7-2.8-5.1c-3.9-3.3-10.2-1.2-11.5,3.9c-0.6,2.3,0.1,6.6,1.7,10c2.3,4.7,7.7,9.5,13,11.5l2.3,0.8l0.2,3.8c0.2,4.8,1.5,7.1,4.7,8.3c3.6,1.4,6.6,0.3,8.9-3c0.8-1.3,1-2.1,1-5.3v-3.8l1.5-0.3c2.9-0.6,7.3-3.2,9.8-5.6c4.4-4.3,6.5-10.5,6.1-17.7c-0.2-4.7-1.7-8.1-4.8-11.5c-3.2-3.5-6.5-5.5-16.5-10.3c-12-5.8-14.4-8.1-13.2-12.6c1.2-4.7,8-7,14.7-5c3,0.9,4.3,2,6.1,5.1c1.8,3.1,4.4,4.6,7.5,4.2c5.4-0.7,7.8-6.3,5.1-11.9c-2.4-4.9-9.5-10.4-15-11.7c-1.3-0.3-1.3-0.3-1.3-4.1c0-3.2-0.2-4.1-1-5.3C113.1,54.5,109.6,53.4,106,55.1z"/><path fill="#000000" d="M216.5,83.7V91l5,0.2c5.4,0.1,6.5,0.6,8.5,3.3c1,1.2,1,1.4,1,55.6c0,54.2,0,54.3-1,55.6c-0.5,0.7-1.5,1.7-2.2,2.2l-1.2,1h-76.5H73.7l-1.2-1c-2.8-2-3.2-3.1-3.3-8.5l-0.2-5h-7.3h-7.3v4.6c0,5.9,0.6,8.8,2.5,12.8c2.9,5.8,9,10.5,15.4,11.7c3.4,0.6,152.5,0.6,155.9,0c8.4-1.6,15.9-9,17.5-17.5c0.6-3.4,0.6-108.2,0-111.6c-1.2-6.4-5.9-12.5-11.7-15.4c-4-2-6.9-2.5-12.8-2.5h-4.6V83.7L216.5,83.7z"/></g></g></g>
</svg>