<?xml version="1.0" encoding="utf-8"?>
<!-- Svg Vector Icons : http://www.onlinewebfonts.com/icon -->
<!DOCTYPE svg PUBLIC "-//W3C//DTD SVG 1.1//EN" "http://www.w3.org/Graphics/SVG/1.1/DTD/svg11.dtd">
<svg version="1.1" xmlns="http://www.w3.org/2000/svg" xmlns:xlink="http://www.w3.org/1999/xlink" x="0px" y="0px" viewBox="0 0 256 256" enable-background="new 0 0 256 256" xml:space="preserve">
<metadata> Svg Vector Icons : http://www.onlinewebfonts.com/icon </metadata>
<g><g><g><path fill="#000000" d="M10,102.9v47.7h92.9h92.9v-47.7V55.2h-92.9H10V102.9z M185.7,102.9v37.7h-82.9H20v-37.7V65.2h82.9h82.9L185.7,102.9L185.7,102.9z"/><path fill="#000000" d="M101,79c0,1.9-0.3,2.5-1.1,2.5c-2.4,0-6.5,2.7-8,5.3c-1.8,3.1-2.1,7.9-0.7,11.2c1.1,2.6,4.6,5.7,7.5,6.7l2.3,0.8v5.9c0,5.8,0,6-1.3,5.2c-0.8-0.4-1.8-1.8-2.4-3.1c-0.8-2-1.3-2.4-2.3-2.1c-0.7,0.1-2.3,0.3-3.6,0.3c-3,0-3.1,0.9-0.8,5.5c1.7,3.3,4.8,5.8,8.6,6.7c1.5,0.4,1.7,0.8,1.7,2.9c0,2.3,0.1,2.4,1.9,2.4s1.9-0.1,1.9-2.5c0-2.2,0.2-2.5,1.8-2.9c3-0.7,6.9-3.3,8.3-5.6c0.9-1.4,1.5-3.6,1.7-6.1c0.4-5.4-1.4-8.8-5.8-11.2c-1.8-0.9-3.8-1.8-4.6-1.9c-1.3-0.4-1.4-0.8-1.4-5.8c0-6,0.6-6.5,2.8-3c1.2,1.8,1.4,1.9,4.1,1.6c3.8-0.5,4.2-0.9,2.8-3.9c-1.4-3.2-2.6-4.3-6.3-5.6c-2.8-1.1-3.1-1.4-3.3-3.5c-0.2-2-0.4-2.3-2.1-2.3C101.1,76.5,101,76.7,101,79z M101,92.5c0,2.6-0.3,4.7-0.6,4.7c-1.1,0-3.2-3.3-3.2-5s2-4.5,3.1-4.5C100.8,87.8,101,90,101,92.5z M107.9,108.3c2.6,2.2,2.7,5.3,0.1,7.8c-1,1-2.1,1.8-2.5,1.8c-0.4,0-0.7-2-0.7-5.6c0-3.1,0.3-5.6,0.6-5.6S106.8,107.4,107.9,108.3z"/><path fill="#000000" d="M200.8,85.3v5h5h5V128v37.7H128H45.1v-5v-5h-5h-5v10v10H128h92.9V128V80.3h-10h-10V85.3L200.8,85.3z"/><path fill="#000000" d="M225.9,110.4v5h5h5v37.7v37.7h-82.9H70.3v-5v-5h-5h-5v10v10h92.9H246v-47.7v-47.7h-10h-10V110.4z"/></g></g></g>
</svg>