<?xml version="1.0" encoding="utf-8"?>
<!-- Svg Vector Icons : http://www.onlinewebfonts.com/icon -->
<!DOCTYPE svg PUBLIC "-//W3C//DTD SVG 1.1//EN" "http://www.w3.org/Graphics/SVG/1.1/DTD/svg11.dtd">
<svg version="1.1" xmlns="http://www.w3.org/2000/svg" xmlns:xlink="http://www.w3.org/1999/xlink" x="0px" y="0px" viewBox="0 0 256 256" enable-background="new 0 0 256 256" xml:space="preserve">
<metadata> Svg Vector Icons : http://www.onlinewebfonts.com/icon </metadata>
<g><g><g><path fill="#000000" d="M174.2,5.9c-8,1.9-15.9,7.3-20.8,14.1C135.8,44.6,152.9,78,182.9,78c10.6,0,18.5-3.3,25.8-10.5c9-9,12.8-21.1,10.3-33.1C215.3,17,200.2,4.8,182.6,5C180,5,176.1,5.4,174.2,5.9z M193.7,17.3c10.7,4.8,17.3,17.1,15.4,28.4c-3.7,21.3-29.6,29.8-44.9,14.6c-13.9-14-8.2-37.7,10.7-44C180.1,14.6,188.7,15,193.7,17.3z"/><path fill="#000000" d="M181.8,24.7c-0.2,0.8-1.2,1.3-2.7,1.6c-5.2,1-8,6.4-5.7,11.1c0.9,1.9,2.1,2.9,4.9,4.3l3.7,1.8V47c0,1.9-0.3,3.5-0.5,3.5c-1,0-2.6-1.6-2.8-2.9c-0.2-1-0.8-1.3-3.3-1.5l-3-0.2v2.3c0,3.2,3.3,6.5,7,7.1c2.4,0.4,2.6,0.6,2.6,2.2c0,1.4,0.3,1.9,1.3,1.9c1,0,1.3-0.4,1.3-1.9c0-1.6,0.3-1.9,2.4-2.3c3.1-0.6,6.4-3.8,6.9-6.9c0.7-3.7-1.2-6.8-5.6-9.1l-3.7-1.9v-3.1c0-3.3,1-3.9,2.2-1.2c0.5,1.2,1.2,1.4,3.3,1.4c3.1,0,3.7-0.5,2.7-3c-1.1-2.8-3.2-4.7-5.9-5.1c-1.7-0.3-2.6-0.8-2.8-1.5C183.7,23.2,182.2,23.2,181.8,24.7z M182,33.8c0,2.8-0.5,3.1-2.2,1.3c-0.9-1-1-1.5-0.4-2.6C180.6,30.2,182,30.9,182,33.8z M187.1,47.6c0,0.8-0.6,1.8-1.3,2.2c-1.2,0.6-1.3,0.5-1.3-2.6c0-3.3,0-3.3,1.3-2.2C186.5,45.6,187.1,46.8,187.1,47.6z"/><path fill="#000000" d="M118,62.6C105.6,66,96.6,74.5,92.4,86.8c-2.2,6.5-2.4,15.7-0.3,22c3.7,11.6,12.9,20.8,24.5,24.5c5.5,1.7,14.8,1.9,20.2,0.3c13.3-3.9,23.6-14.7,26.3-27.9c1.3-5.9,1.2-10.6-0.3-16.4c-4.1-16.2-17.4-27-34-27.7C124,61.4,121.5,61.6,118,62.6z M133.2,72.3c7.3,1.7,14.8,7.6,17.9,14.3c7.6,16.2-2.2,34.8-19.9,37.7c-14.1,2.3-27.8-7.8-30.2-22.3C99.3,91.5,105,80,114.5,75C120.4,71.8,126.9,70.9,133.2,72.3z"/><path fill="#000000" d="M126.8,81.2c0,0.9-0.6,1.3-2.4,1.7c-1.4,0.3-3.2,1.3-4.5,2.6c-1.8,1.8-2.1,2.6-2.1,5.3c0,4,1.4,5.9,5.8,7.8l3.2,1.4v3.5c0,2.8-0.2,3.5-1,3.5c-0.6,0-1.3-0.9-1.7-1.9c-0.7-1.8-1-1.9-3.9-1.9H117l0.4,2.4c0.6,3.3,3.4,6,6.7,6.4c2.4,0.3,2.6,0.5,2.8,2.4c0.1,1.3,0.6,2.1,1.3,2.2c0.9,0.2,1.1-0.3,1.1-2.1c0-1.9,0.3-2.3,1.3-2.3c2.3,0,5.8-2.1,7.1-4.1c2.8-4.6,0.8-9.5-4.8-12.3l-3.6-1.7v-3.2c0-3.4,1-4,2.2-1.3c0.5,1.2,1.2,1.4,3.8,1.4h3.1l-0.4-2.1c-0.6-2.8-2.8-4.9-6-5.8c-1.7-0.4-2.8-1.2-3-1.9C128.7,79.6,126.8,79.7,126.8,81.2z M126.8,90.6c0,2.8-0.1,2.8-1.3,2.1c-1.4-0.9-1.7-3.1-0.5-4.2C126.3,87.1,126.8,87.6,126.8,90.6z M131.5,102.6c0.8,1.2,0.9,1.6,0.2,2.7c-1.6,2.4-2.4,2-2.4-1.2C129.4,100.9,130.1,100.4,131.5,102.6z"/><path fill="#000000" d="M10,192.3v56.5h37.9h37.9v-9.4V230l2.8,0.4c4.3,0.7,10.4,3.3,16,6.7c10.7,6.4,20.4,10.3,31.9,12.7c7.6,1.6,24.5,1.6,32.1,0c11.7-2.5,22.4-7.1,31.6-13.7c5.9-4.2,25-22.7,34.9-33.6c7.8-8.6,10.3-13.1,10.8-19.3c1.2-12.4-8.1-23.7-20.7-25.3c-7.4-0.9-14.2,3-27.1,15.3l-8.5,8.3l-2.8-3.8c-8.3-11.2-24-20-44.9-25.2c-14.2-3.5-20.9-4.2-39.5-4.2H85.7V142v-6.2H47.9H10V192.3z M75.1,192v45.6l-27.1,0.2l-27.1,0.1V192v-45.9l27.1,0.1l27.1,0.2V192z M128.1,162.1c13.7,2.4,25.3,6.6,35.4,12.6c5.7,3.5,13,9.8,14.4,12.5c2,3.8,0.7,10.1-2.8,12.8c-4.6,3.7-10.8,3.1-27.9-2.6c-6.3-2.1-11.7-3.8-11.9-3.8c-0.8,0-4.7,11-4.2,11.6c0.9,0.9,16.4,6.2,23.6,8c17.6,4.5,28.2,0.9,34.8-11.7c4.9-9.3,20.4-25,28.9-29.2c3.8-1.9,4.2-1.9,6.7-1.2c3.6,1,7.3,4.9,7.8,8.2c1,5.9,0.5,6.5-19.4,26.7C194,225.6,190,228.9,181,232.6c-21.6,9-46.4,7.2-66.3-4.9c-9.6-5.8-21.8-10.5-27.5-10.5h-1.5v-27.9v-27.9l4.4-0.4c2.4-0.2,4.7-0.5,5.3-0.6C98.3,159.7,121.3,160.8,128.1,162.1z"/></g></g></g>
</svg>