<?xml version="1.0" encoding="utf-8"?>
<!-- Svg Vector Icons : http://www.onlinewebfonts.com/icon -->
<!DOCTYPE svg PUBLIC "-//W3C//DTD SVG 1.1//EN" "http://www.w3.org/Graphics/SVG/1.1/DTD/svg11.dtd">
<svg version="1.1" xmlns="http://www.w3.org/2000/svg" xmlns:xlink="http://www.w3.org/1999/xlink" x="0px" y="0px" viewBox="0 0 256 256" enable-background="new 0 0 256 256" xml:space="preserve">
<metadata> Svg Vector Icons : http://www.onlinewebfonts.com/icon </metadata>
<g><g><g><path fill="#000000" d="M157.4,29.1c-13,2-22.9,12.5-24.5,25.7l-0.3,2.7h-1.9c-3.5,0-8.3,1.3-12.7,3.5c-8.3,4.1-14.8,12.2-17.1,21.2c-1.1,4.3-1.2,11-0.3,15.5c2,9.2,8.9,18,17.5,22.2c5.4,2.6,8.5,3.3,15.1,3.3c6.6,0,10.4-1,16-4.1c4.2-2.3,10.1-8.2,12.4-12.4c3-5.5,4.1-9.4,4.1-15.8l0-5.6l2.4-0.6c9.5-2.1,17.9-10.6,20.4-20.6c2.5-9.7-0.3-19.5-7.6-26.8c-3.6-3.5-7.1-5.7-11.8-7.2C166.2,29.2,160,28.7,157.4,29.1z M168.9,40.2c12.1,6,14.8,21,5.5,30.4c-2.5,2.5-7.1,4.9-10,5.2l-1.9,0.2l-1.6-2.9c-3-5.4-9.9-11.3-15.9-13.4l-2.7-1l0.2-3.1c0.4-5.8,4.5-12.1,9.6-14.8c3.6-1.8,5.5-2.3,9.9-2.1C165.5,38.8,166.6,39,168.9,40.2z M137.1,67.2c8.7,1.6,16.2,8.5,18.5,17.3c0.9,3.2,0.8,9.2-0.1,12.3c-2.4,7.9-8.4,14-16.3,16.3c-3.6,1.1-9.8,1-13.6-0.2c-12.4-3.8-19.4-17.8-15.1-30.2c2.5-7.4,9.1-13.3,17-15.2C130.8,66.6,133.5,66.5,137.1,67.2z"/><path fill="#000000" d="M155.6,50.1l-3.7,3.7h2.9h2.9v7.2v7.2h3.5h3.5V57.2V46.4h-2.6h-2.6L155.6,50.1z"/><path fill="#000000" d="M126.3,81.6l-4.4,4.4h3.4h3.3v8.5v8.5h4.4h4.4l-0.1-12.8l-0.1-12.8l-3.2-0.1l-3.1-0.1L126.3,81.6z"/><path fill="#000000" d="M63.8,124.1c-5.3,0.8-10.1,2.5-21.4,7.3c-10.8,4.6-29.1,13-30.6,14.1c-1.3,0.9-2.2,3.4-1.8,4.8c0.5,1.7,2.1,3.1,3.7,3.4c1.2,0.2,2.5-0.2,6.7-2.1c21-9.7,33.2-15,39.2-16.9c6.5-2.1,19-2.3,26.5-0.5c6.4,1.6,9.4,3.5,16.4,10.2c7.3,7.1,9.7,8.5,19.5,11.4c10.1,3,18.9,4.6,29.6,5.3c7.8,0.5,11.2,1.6,12.9,4.1c1.2,1.8,1.3,3.1,0.4,5.4c-0.8,1.9-2.2,2.9-5.7,3.8c-2.3,0.7-5.3,0.8-22.1,0.8c-21.1,0-23.8-0.3-36.1-3.2c-6.1-1.5-7.9-1.5-9.5,0c-0.6,0.6-1.3,1.7-1.5,2.4c-0.4,1.7,0.8,4.2,2.5,5.1c1.6,0.8,7.1,2.1,16,3.8c6.4,1.2,6.6,1.2,28.2,1.2c23.2,0,24.2-0.1,29.1-2.4c1.3-0.6,3.3-1.8,4.5-2.8c4.5-3.6,44.2-30,48.4-32c7.9-4,13.3-4.5,16.2-1.7c2.6,2.6,1.4,6.6-3.3,10.8c-3.5,3.2-57.7,39.3-78.1,52.1c-13.9,8.7-18,10.2-24.8,9.1c-5.6-0.9-9.3-2.5-31.1-13.8c-30.9-15.9-29.8-15.5-35.5-15.5c-2.9,0-4.3,0.2-6.6,1.2c-3.4,1.4-18.5,11.1-19.5,12.6c-1.2,1.6-1.4,3.1-0.7,4.6c0.8,2,1.9,2.7,4.1,2.7c1.7,0,3-0.7,10.1-5.4c4.5-2.9,9-5.6,9.9-5.9c2.9-1,5.7-0.4,11.1,2.4c2.8,1.4,13.9,7.1,24.8,12.7c13.6,7,21.5,10.8,24.9,12c4.9,1.7,5.3,1.7,11.5,1.7c7,0,9-0.5,15.1-3.5c5.8-2.9,24.7-15,60.2-38.7c23.5-15.7,28.8-19.3,31.9-22.5c4.9-4.8,6.8-8.5,6.8-13.4c0-6.2-4.1-11.8-10-13.8c-4.5-1.4-9.6-0.9-17.9,1.8c-0.5,0.1-1-0.4-1.5-1.8c-1-2.4-3.3-4.6-6.3-6c-1.8-0.8-3-1-7-0.9c-4.5,0-6.3,0.4-12,2.3c-0.5,0.1-1.2-0.5-2.2-1.8c-0.8-1.2-2.4-2.6-3.9-3.4c-2.1-1.2-3-1.4-7.1-1.5c-4.9-0.2-8.4,0.4-13.3,2.2c-2.8,1.1-6.2,3.1-24.1,14.2c-6.6,4.1-12.1,7.5-12.4,7.5c-0.8,0-10.8-3.3-12.2-4.1c-0.7-0.4-4-3.2-7.2-6.3c-3.2-3.1-7-6.4-8.4-7.3c-3.5-2.2-8.7-4.2-13.7-5.4C81.7,123.5,69.4,123.2,63.8,124.1z M180.4,133.7c0.7,0.3,1.2,0.9,1.2,1.6c0,0.9-2.1,2.5-11.4,9l-11.4,7.9l-5.3-0.3c-9.2-0.5-11.2-0.8-10.5-1.4c0.8-0.8,20.9-13.3,23.4-14.5C170.8,133.7,177.9,132.6,180.4,133.7z M207.5,138.7c0.6,0.6,0.9,1.4,0.8,2.4c-0.1,1.3-1.3,2.2-16.5,12.4c-9,6-16.5,11-16.6,11c-0.1,0-0.7-1-1.2-2.2c-0.5-1.2-1.8-3-2.8-4.1l-1.9-2l10.6-7.3c5.8-4,11.5-7.8,12.7-8.4c3.5-1.8,7-2.8,10.6-2.8C206,137.8,206.7,137.9,207.5,138.7z"/></g></g></g>
</svg>