<?xml version="1.0" encoding="utf-8"?>
<!-- Svg Vector Icons : http://www.onlinewebfonts.com/icon -->
<!DOCTYPE svg PUBLIC "-//W3C//DTD SVG 1.1//EN" "http://www.w3.org/Graphics/SVG/1.1/DTD/svg11.dtd">
<svg version="1.1" xmlns="http://www.w3.org/2000/svg" xmlns:xlink="http://www.w3.org/1999/xlink" x="0px" y="0px" viewBox="0 0 256 256" enable-background="new 0 0 256 256" xml:space="preserve">
<metadata> Svg Vector Icons : http://www.onlinewebfonts.com/icon </metadata>
<g><g><g><path fill="#000000" d="M124.7,14.2c-0.8,0.3-2,1.3-2.7,2.1c-1.2,1.5-1.2,1.6-1.2,8.4c0,6.8,0,6.9,1.2,8.4c2.4,2.9-0.1,2.7,50.4,2.7c50.5,0,48,0.1,50.4-2.7c1.2-1.5,1.2-1.6,1.2-8.4c0-6.8,0-6.9-1.2-8.4c-2.4-2.9,0.1-2.7-50.5-2.7C134.9,13.6,125.8,13.7,124.7,14.2z"/><path fill="#000000" d="M124.7,43.7c-0.8,0.3-2,1.3-2.7,2.1c-1.2,1.5-1.2,1.6-1.2,8.4c0,6.8,0,6.9,1.2,8.4c2.4,2.9-0.1,2.7,50.4,2.7c50.5,0,48,0.1,50.4-2.7c1.2-1.5,1.2-1.6,1.2-8.4c0-6.8,0-6.9-1.2-8.4c-2.4-2.9,0.1-2.7-50.5-2.7C134.9,43.1,125.8,43.2,124.7,43.7z"/><path fill="#000000" d="M13.9,73.3c-0.8,0.3-2,1.3-2.7,2.1C10,76.8,10,76.9,10,83.7c0,6.8,0,6.9,1.2,8.4c2.4,2.9-0.1,2.7,50.4,2.7c50.5,0,48,0.1,50.4-2.7c1.2-1.5,1.2-1.6,1.2-8.4c0-6.8,0-6.9-1.2-8.4c-2.4-2.9,0.1-2.7-50.5-2.7C24.2,72.7,15,72.8,13.9,73.3z"/><path fill="#000000" d="M124.7,73.3c-0.8,0.3-2,1.3-2.7,2.1c-1.2,1.5-1.2,1.6-1.2,8.4c0,6.8,0,6.9,1.2,8.4c2,2.3,3.5,2.7,10.4,2.7c6,0,6.1,0,10.7-1.8c4.8-1.9,11.4-3.7,17.4-4.7c4.5-0.8,19.4-0.8,24,0c5.3,0.9,13.2,3.1,17.8,4.9c4,1.6,4.3,1.6,10.3,1.6c6.9,0,8.4-0.4,10.4-2.7c1.2-1.5,1.2-1.6,1.2-8.4c0-6.8,0-6.9-1.2-8.4c-2.4-2.9,0.1-2.7-50.5-2.7C134.9,72.7,125.8,72.8,124.7,73.3z"/><path fill="#000000" d="M165.3,95.1c-32.9,3.5-58.9,27.4-65.4,59.9c-1.5,7.4-1.5,20,0,27.4c6,30.2,28.6,52.8,58.8,58.8c6.9,1.4,19.9,1.5,26.6,0.2c27-5.2,48.4-23.6,57.1-49.4c2.7-8.1,3.6-13.6,3.6-23.3c0-7-0.2-9.5-1-13.7c-6-30.1-28.8-52.9-58.6-58.7C181.6,95.2,169.7,94.6,165.3,95.1z M184.9,110.9c11.6,2.6,20.6,7.6,29.1,16.2c10.8,10.8,16.6,23.6,17.3,38.8c0.9,16.8-5.2,32.3-17.3,44.3c-12.1,12.1-27.6,18.2-44.3,17.3c-15.2-0.7-28-6.5-38.8-17.3c-8.7-8.7-13.8-18.1-16.4-30c-1.2-5.5-1.2-17.6,0-23.1c1.7-7.8,4.8-15.1,9.2-21.7c3-4.4,11.1-12.6,15.6-15.6c8-5.4,17.2-8.8,26.8-10C169.6,109.4,181.1,110,184.9,110.9z"/><path fill="#000000" d="M168.3,128.2v3.8l-2.5,0.5c-13.2,2.6-19.8,18.6-12.6,30.4c2.7,4.6,5.9,6.6,15.6,10.3c11.8,4.5,13.2,5.5,13.2,10.2c0,5.1-3.3,7.8-9.3,7.8c-5.8,0-9.7-3-11.3-8.5c-0.3-1.2-0.8-2.1-1.1-2.1c-0.3,0-3.1,0.7-6.3,1.6c-6.6,1.8-6.4,1.6-4.6,6.4c2.9,7.6,9.3,13,16.8,14l2.2,0.3v5v5h4.2h4.2v-5V203l3.1-0.6c8.7-1.7,15-7.7,16.8-15.8c0.3-1.3,0.4-4.2,0.3-6.4c-0.3-5.6-1.6-8.6-5.2-12.2c-3.1-3.1-6.2-4.8-15.1-8.3c-9.6-3.7-11-4.8-11.3-8.7c-0.3-4,1.8-6.9,5.8-7.8c4.3-1,8.7,1.6,11,6.4c0.7,1.4,1.3,2.7,1.4,2.8c0,0.1,2.6-0.8,5.7-2c4-1.6,5.5-2.5,5.5-3c0-0.4-0.7-2.3-1.7-4.1c-2.9-5.8-7.6-9.5-13.7-10.8l-2.7-0.6v-3.8v-3.8h-4.2h-4.2V128.2z"/><path fill="#000000" d="M13.9,102.8c-0.8,0.3-2,1.3-2.7,2.1c-1.2,1.5-1.2,1.6-1.2,8.4c0,6.8,0,6.9,1.2,8.4c2.4,2.9,0.1,2.7,48.7,2.7h44.4l1.9-2.7c1.1-1.5,3-4.1,4.5-5.7l2.5-3v-3.2c0-2.9-0.1-3.4-1.2-4.8c-2.4-2.9,0.1-2.7-50.5-2.7C24.2,102.2,15,102.3,13.9,102.8z"/><path fill="#000000" d="M13.9,132.3c-0.8,0.3-2,1.3-2.7,2.1c-1.2,1.5-1.2,1.6-1.2,8.4c0,6.8,0,6.9,1.2,8.4c2.4,2.8,0.6,2.7,42.8,2.7h38.6l0.3-1.3c1-4.8,3.2-11.7,4.8-15.4c1.1-2.4,2-4.6,2.2-4.9C100.2,131.4,15.9,131.5,13.9,132.3z"/><path fill="#000000" d="M13.9,161.9c-0.8,0.3-2,1.3-2.7,2.1c-1.2,1.5-1.2,1.6-1.2,8.4c0,6.8,0,6.9,1.2,8.4c2.4,2.8,0.6,2.7,42.9,2.7h38.6l-0.2-1.1c-0.7-3-1.3-11.2-1.2-15.8l0.2-5.3H53.4C22.8,161.3,15,161.4,13.9,161.9z"/><path fill="#000000" d="M13.5,191.7c-3.1,1.5-3.5,2.6-3.5,10.3c0,6.6,0,6.7,1.2,8.2c2.4,2.9,0.1,2.7,48.6,2.7c24.4,0,44.3-0.1,44.3-0.2s-0.6-1.2-1.4-2.4c-2.1-3.4-5.8-11.4-7.2-15.7l-1.2-3.8H54.8C16.3,190.8,15.3,190.8,13.5,191.7z"/><path fill="#000000" d="M13.9,220.9c-0.8,0.3-2,1.3-2.7,2.1c-1.2,1.5-1.2,1.6-1.2,8.4c0,6.8,0,6.9,1.2,8.4c2.4,2.9-0.1,2.7,50.4,2.7s48,0.1,50.4-2.7c1.2-1.5,1.2-1.6,1.2-8.4c0-6.8,0-6.9-1.2-8.4c-2.4-2.9,0.1-2.7-50.5-2.7C24.2,220.3,15,220.4,13.9,220.9z"/></g></g></g>
</svg>