<?xml version="1.0" encoding="iso-8859-1"?>
<!-- Uploaded to: SVG Repo, www.svgrepo.com, Generator: SVG Repo Mixer Tools -->
<svg fill="#000000" height="800px" width="800px" version="1.1" id="Layer_1" xmlns="http://www.w3.org/2000/svg" xmlns:xlink="http://www.w3.org/1999/xlink" 
	 viewBox="0 0 512 512" xml:space="preserve">
<g>
	<g>
		<path d="M227.737,208.713h-7.066v-22.828h17.936c4.503,0,8.153-3.65,8.153-8.153s-3.65-8.153-8.153-8.153h-17.936v-9.24
			c0-4.503-3.65-8.153-8.153-8.153s-8.153,3.65-8.153,8.153v9.24H197.3c-10.489,0-19.023,8.534-19.023,19.023v17.393
			c0,10.489,8.534,19.023,19.023,19.023h7.066v22.828h-17.936c-4.503,0-8.153,3.65-8.153,8.153s3.65,8.153,8.153,8.153h17.936v9.24
			c0,4.503,3.65,8.153,8.153,8.153s8.153-3.65,8.153-8.153v-9.24h7.066c10.489,0,19.023-8.534,19.023-19.023v-17.393
			C246.76,217.248,238.226,208.713,227.737,208.713z M204.365,208.713H197.3c-1.498,0-2.718-1.22-2.718-2.718v-17.393
			c0-1.498,1.22-2.718,2.718-2.718h7.066V208.713z M230.454,245.13c0,1.498-1.22,2.718-2.718,2.718h-7.066v-22.828h7.066
			c1.498,0,2.718,1.22,2.718,2.718V245.13z"/>
	</g>
</g>
<g>
	<g>
		<path d="M509.612,216.579l-36.896-36.896c-3.183-3.185-8.345-3.184-11.529,0l-36.151,36.151V8.153c0-4.503-3.65-8.153-8.153-8.153
			H8.153C3.65,0,0,3.65,0,8.153v395.686c0,4.503,3.65,8.153,8.153,8.153c4.503,0,8.153-3.65,8.153-8.153V16.306h392.425V232.14
			l-59.189,59.189h-20.166V142.403h26.633c4.503,0,8.153-3.65,8.153-8.153v-26.089c0-4.503-3.65-8.153-8.153-8.153h-32.401
			L216.913,31.723c-2.68-1.714-6.11-1.714-8.79,0l-106.695,68.285H69.028c-4.503,0-8.153,3.65-8.153,8.153v26.089
			c0,4.503,3.65,8.153,8.153,8.153H95.66v148.926H69.028c-4.503,0-8.153,3.65-8.153,8.153v26.089c0,4.503,3.65,8.153,8.153,8.153
			h238.119l-60.928,60.928c-0.018,0.018-0.035,0.039-0.053,0.059c-0.965,0.899-1.726,2.045-2.173,3.385l-18.447,55.344
			c-2.083,6.247,4.06,12.396,10.313,10.313l55.344-18.448c1.346-0.449,2.496-1.215,3.396-2.187c0.033-0.033,0.07-0.061,0.101-0.094
			l49.902-50.867c3.152-3.214,3.104-8.377-0.111-11.529c-3.214-3.152-8.376-3.102-11.529,0.111l-44.137,44.992l-25.311-25.311
			l172.436-172.436l25.366,25.366l-92.548,92.548c-3.184,3.184-3.184,8.346,0,11.529c3.184,3.184,8.346,3.184,11.529,0
			l28.434-28.435v88.436h-70.115c-4.503,0-8.153,3.65-8.153,8.153v70.115H16.306v-48.374c0-4.503-3.65-8.153-8.153-8.153
			c-4.503,0-8.153,3.65-8.153,8.153v56.527C0,508.35,3.65,512,8.153,512h330.463c2.136,0,4.255-0.877,5.765-2.388l78.268-78.268
			c1.511-1.51,2.388-3.629,2.388-5.765V312.685l53.573-53.573l31.003-31.003C512.796,224.926,512.796,219.763,509.612,216.579z
			 M273.914,433.878l-27.744,9.249l9.247-27.745L273.914,433.878z M212.518,48.269l80.842,51.739H131.677L212.518,48.269z
			 M77.181,126.098v-9.783h270.675v9.783H77.181z M313.07,142.403v148.926h-27.176V142.403H313.07z M269.588,142.403v148.926
			h-114.14V142.403H269.588z M139.142,142.403v148.926h-27.176V142.403H139.142z M323.453,317.418H77.181v-9.783h256.055
			L323.453,317.418z M346.769,484.165v-50.433h50.433L346.769,484.165z M472.845,241.817l-25.366-25.366l19.473-19.472
			l25.365,25.365L472.845,241.817z"/>
	</g>
</g>
<g>
	<g>
		<path d="M208.17,404.382H103.813c-4.503,0-8.153,3.65-8.153,8.153s3.65,8.153,8.153,8.153H208.17c4.503,0,8.153-3.65,8.153-8.153
			S212.673,404.382,208.17,404.382z"/>
	</g>
</g>
<g>
	<g>
		<path d="M216.866,447.864H103.813c-4.503,0-8.153,3.65-8.153,8.153s3.65,8.153,8.153,8.153h113.053
			c4.503,0,8.153-3.65,8.153-8.153S221.369,447.864,216.866,447.864z"/>
	</g>
</g>
<g>
	<g>
		<path d="M208.17,360.9H103.813c-4.503,0-8.153,3.65-8.153,8.153s3.65,8.153,8.153,8.153H208.17c4.503,0,8.153-3.65,8.153-8.153
			S212.673,360.9,208.17,360.9z"/>
	</g>
</g>
</svg>