<svg width="52" height="52" viewBox="0 0 52 52" fill="none" xmlns="http://www.w3.org/2000/svg">
<path d="M16.25 34.125C16.25 33.694 16.4212 33.2807 16.726 32.976C17.0307 32.6712 17.444 32.5 17.875 32.5H24.375C24.806 32.5 25.2193 32.6712 25.524 32.976C25.8288 33.2807 26 33.694 26 34.125C26 34.556 25.8288 34.9693 25.524 35.274C25.2193 35.5788 24.806 35.75 24.375 35.75H17.875C17.444 35.75 17.0307 35.5788 16.726 35.274C16.4212 34.9693 16.25 34.556 16.25 34.125ZM16.25 27.625C16.25 27.194 16.4212 26.7807 16.726 26.476C17.0307 26.1712 17.444 26 17.875 26H34.125C34.556 26 34.9693 26.1712 35.274 26.476C35.5788 26.7807 35.75 27.194 35.75 27.625C35.75 28.056 35.5788 28.4693 35.274 28.774C34.9693 29.0788 34.556 29.25 34.125 29.25H17.875C17.444 29.25 17.0307 29.0788 16.726 28.774C16.4212 28.4693 16.25 28.056 16.25 27.625ZM16.25 21.125C16.25 20.694 16.4212 20.2807 16.726 19.976C17.0307 19.6712 17.444 19.5 17.875 19.5H34.125C34.556 19.5 34.9693 19.6712 35.274 19.976C35.5788 20.2807 35.75 20.694 35.75 21.125C35.75 21.556 35.5788 21.9693 35.274 22.274C34.9693 22.5788 34.556 22.75 34.125 22.75H17.875C17.444 22.75 17.0307 22.5788 16.726 22.274C16.4212 21.9693 16.25 21.556 16.25 21.125ZM16.25 14.625C16.25 14.194 16.4212 13.7807 16.726 13.476C17.0307 13.1712 17.444 13 17.875 13H34.125C34.556 13 34.9693 13.1712 35.274 13.476C35.5788 13.7807 35.75 14.194 35.75 14.625C35.75 15.056 35.5788 15.4693 35.274 15.774C34.9693 16.0788 34.556 16.25 34.125 16.25H17.875C17.444 16.25 17.0307 16.0788 16.726 15.774C16.4212 15.4693 16.25 15.056 16.25 14.625Z" fill="#039EC0"/>
<path d="M9.75 0H42.25C43.9739 0 45.6272 0.68482 46.8462 1.90381C48.0652 3.12279 48.75 4.77609 48.75 6.5V45.5C48.75 47.2239 48.0652 48.8772 46.8462 50.0962C45.6272 51.3152 43.9739 52 42.25 52H9.75C8.02609 52 6.37279 51.3152 5.15381 50.0962C3.93482 48.8772 3.25 47.2239 3.25 45.5V42.25H6.5V45.5C6.5 46.362 6.84241 47.1886 7.4519 47.7981C8.0614 48.4076 8.88805 48.75 9.75 48.75H42.25C43.112 48.75 43.9386 48.4076 44.5481 47.7981C45.1576 47.1886 45.5 46.362 45.5 45.5V6.5C45.5 5.63805 45.1576 4.8114 44.5481 4.2019C43.9386 3.59241 43.112 3.25 42.25 3.25H9.75C8.88805 3.25 8.0614 3.59241 7.4519 4.2019C6.84241 4.8114 6.5 5.63805 6.5 6.5V9.75H3.25V6.5C3.25 4.77609 3.93482 3.12279 5.15381 1.90381C6.37279 0.68482 8.02609 0 9.75 0V0Z" fill="#039EC0"/>
<path d="M3.25 16.25V14.625C3.25 14.194 3.4212 13.7807 3.72595 13.476C4.0307 13.1712 4.44402 13 4.875 13C5.30598 13 5.7193 13.1712 6.02405 13.476C6.3288 13.7807 6.5 14.194 6.5 14.625V16.25H8.125C8.55598 16.25 8.9693 16.4212 9.27405 16.726C9.57879 17.0307 9.75 17.444 9.75 17.875C9.75 18.306 9.57879 18.7193 9.27405 19.024C8.9693 19.3288 8.55598 19.5 8.125 19.5H1.625C1.19402 19.5 0.780698 19.3288 0.475951 19.024C0.171205 18.7193 0 18.306 0 17.875C0 17.444 0.171205 17.0307 0.475951 16.726C0.780698 16.4212 1.19402 16.25 1.625 16.25H3.25ZM3.25 26V24.375C3.25 23.944 3.4212 23.5307 3.72595 23.226C4.0307 22.9212 4.44402 22.75 4.875 22.75C5.30598 22.75 5.7193 22.9212 6.02405 23.226C6.3288 23.5307 6.5 23.944 6.5 24.375V26H8.125C8.55598 26 8.9693 26.1712 9.27405 26.476C9.57879 26.7807 9.75 27.194 9.75 27.625C9.75 28.056 9.57879 28.4693 9.27405 28.774C8.9693 29.0788 8.55598 29.25 8.125 29.25H1.625C1.19402 29.25 0.780698 29.0788 0.475951 28.774C0.171205 28.4693 0 28.056 0 27.625C0 27.194 0.171205 26.7807 0.475951 26.476C0.780698 26.1712 1.19402 26 1.625 26H3.25ZM3.25 35.75V34.125C3.25 33.694 3.4212 33.2807 3.72595 32.976C4.0307 32.6712 4.44402 32.5 4.875 32.5C5.30598 32.5 5.7193 32.6712 6.02405 32.976C6.3288 33.2807 6.5 33.694 6.5 34.125V35.75H8.125C8.55598 35.75 8.9693 35.9212 9.27405 36.226C9.57879 36.5307 9.75 36.944 9.75 37.375C9.75 37.806 9.57879 38.2193 9.27405 38.524C8.9693 38.8288 8.55598 39 8.125 39H1.625C1.19402 39 0.780698 38.8288 0.475951 38.524C0.171205 38.2193 0 37.806 0 37.375C0 36.944 0.171205 36.5307 0.475951 36.226C0.780698 35.9212 1.19402 35.75 1.625 35.75H3.25Z" fill="#039EC0"/>
</svg>
