<?xml version="1.0" encoding="utf-8"?>
<!-- Svg Vector Icons : http://www.onlinewebfonts.com/icon -->
<!DOCTYPE svg PUBLIC "-//W3C//DTD SVG 1.1//EN" "http://www.w3.org/Graphics/SVG/1.1/DTD/svg11.dtd">
<svg version="1.1" xmlns="http://www.w3.org/2000/svg" xmlns:xlink="http://www.w3.org/1999/xlink" x="0px" y="0px" viewBox="0 0 256 256" enable-background="new 0 0 256 256" xml:space="preserve">
<metadata> Svg Vector Icons : http://www.onlinewebfonts.com/icon </metadata>
<g><g><path fill="#000000" d="M85.3,186.7L85.3,186.7v-0.2l0-5.9l36.1,0c-12.4-5.5-21.3-19.9-21.1-36.7c0.1-16.9,9.2-31.2,21.9-36.5H32.5v12.2c0,1.1-0.3,2.1-0.8,3v0.6h-0.5c-1.1,1.3-2.7,2.2-4.6,2.2c-1.9,0-3.5-0.9-4.6-2.2h-0.4l0-0.6c-0.6-0.9-0.9-2-0.9-3.1v-18c0-0.2,1-10.4,1-10.7l3.6-24.5c0.5-3.1,3.3-5.3,6.5-5l0,0l208.4,25c3.2,0.4,5.5,3.3,5.1,6.5l-0.6,5.1c0.7,1,1.2,2.2,1.2,3.5v84.8c0,3.2-2.6,5.9-5.9,5.9h-149C88,192.3,85.5,189.8,85.3,186.7L85.3,186.7z M209.4,171.7c5.4-1.1,8.1-4.6,8.1-10.4v-6.9c0-2.1-0.6-4-1.7-5.8c-1.1-1.7-4.4-5.2-9.8-10.6c-2.7-2.8-4-5.1-4-7.1l-0.2-3.5c0-2.1,0.7-3.2,2-3.2c1.2,0,1.7,0.6,1.7,1.6v10h10.9v-9.4c0-4.9-2.4-7.9-7.1-9.1v-3.7h-10.9v3.7c-5.4,1.1-8.1,4.5-8.1,10v6.1c0,2.5,1.3,5.2,3.9,8.2c5.5,5.4,8.7,8.8,9.7,10.1c1,1.4,1.5,2.7,1.5,4.1v6.5c0,1.3-0.7,1.9-2.1,1.9c-1.4,0-2.2-0.6-2.2-1.9v-12.5h-10.9v12.4c0,4.8,2.7,7.9,8.1,9.2v3.7h10.9V171.7L209.4,171.7z M33.4,92.7c-0.2,1.2-0.7,2.3-1.5,3.2h73.4c4-5.4,9.2-9.6,15-11.9L36.1,73.8L33.4,92.7L33.4,92.7z M219.4,95.8l-72.2-8.7c3.2,2.3,6,5.2,8.3,8.7H219.4L219.4,95.8z M144.3,180.6h90v-73.1h-90.4c12.8,5.4,21.8,19.9,21.7,36.9C165.5,161,156.6,175.1,144.3,180.6L144.3,180.6z M21,176.3c-2.7,0-4.9,2.2-4.9,4.9v8.4c0,2.7,2.2,4.9,4.9,4.9h49.9c2.7,0,4.9-2.2,4.9-4.9v-8.4c0-2.7-2.2-4.9-4.9-4.9H21L21,176.3z M14.9,133.5c-2.7,0-4.9,2.2-4.9,4.9v8.4c0,2.7,2.2,4.9,4.9,4.9h49.9c2.7,0,4.9-2.2,4.9-4.9v-8.4c0-2.7-2.2-4.9-4.9-4.9H14.9L14.9,133.5z M25.7,154.8c-2.7,0-4.9,2.2-4.9,4.9v8.4c0,2.7,2.2,4.9,4.9,4.9h49.9c2.7,0,4.9-2.2,4.9-4.9v-8.4c0-2.7-2.2-4.9-4.9-4.9H25.7z"/></g></g>
</svg>