<?xml version="1.0" encoding="utf-8"?>
<!-- Svg Vector Icons : http://www.onlinewebfonts.com/icon -->
<!DOCTYPE svg PUBLIC "-//W3C//DTD SVG 1.1//EN" "http://www.w3.org/Graphics/SVG/1.1/DTD/svg11.dtd">
<svg version="1.1" xmlns="http://www.w3.org/2000/svg" xmlns:xlink="http://www.w3.org/1999/xlink" x="0px" y="0px" viewBox="0 0 256 256" enable-background="new 0 0 256 256" xml:space="preserve">
<metadata> Svg Vector Icons : http://www.onlinewebfonts.com/icon </metadata>
<g><g><g><path fill="#000000" d="M141.8,27.6c-14.4,3.1-26.4,12.5-32.8,25.6c-3.8,7.6-4.5,10.8-4.5,19.9c0,8.5,0.6,11.8,3.5,18.2c0.8,1.7,1.3,3.2,1.2,3.3c-0.2,0.1-31.9-5-44.4-7.2c-2.2-0.4-10.4-1.8-18.3-3.1C33,82.1,32.2,82,30.8,82.8c-0.9,0.4-1.8,1.4-2.3,2.3C27.9,86.4,10,192.8,10,195.1c0,1.6,1.3,3.6,2.7,4.1c1.5,0.6,2.2,0.8,105.4,18c80.9,13.5,77.2,13,79.3,10.7c0.8-0.9,1-1.8,6.8-36.1c1.8-10.7,3.3-19.5,3.4-19.5c0,0,1.8-0.5,3.8-1.1c20.2-5.7,34.6-24.3,34.6-44.6c0-12.9-4.4-23.2-13.9-32.6c-9-8.9-18.2-13.2-29.6-13.7l-5.7-0.3l0-6.6c0-7.8-1.2-13.1-4.3-19.6c-5.1-10.7-15.3-20.2-26-24.2C158.7,26.8,149,26,141.8,27.6z M155.7,37.1c8.4,1.1,15.1,4.5,21,10.5c4.2,4.2,6.8,8.7,8.8,14.8c0.9,3.1,1.1,4.5,1.1,11.1c0,8.7,0.2,8.3-4.4,10.2c-9.5,3.8-20.4,14.2-24.4,23.4l-0.9,2.1l-3.4,0.3c-8.4,0.8-18.3-2-25-7.1c-3-2.3-7.6-7.5-9.3-10.3c-9.2-15.7-5.1-37.7,8.9-48C136.1,38.2,145.7,35.7,155.7,37.1z M210.3,91.5c6.1,1.8,10.5,4.4,15.3,9.1c3.6,3.6,4.6,4.9,6.4,8.7c3.3,6.7,3.8,9.3,3.8,17.6c0,6.7-0.1,7.2-1.5,11.5c-5.3,15.3-18.2,24.4-34.6,24.4c-16.4,0-29.4-9.2-34.5-24.4c-1.2-3.6-1.5-5.5-1.7-9.7c-0.5-11.7,2.7-20.4,10.5-28.1c3.6-3.6,4.9-4.6,8.7-6.5c6.3-3.1,10.9-4.1,18.3-3.8C205.1,90.4,207.8,90.7,210.3,91.5z M46.8,94.6c4.4,0.7,8.2,1.5,8.4,1.6c0.8,0.7-2.2,5.7-4.9,8.5c-3.2,3.2-8.2,5.8-12.8,6.6c-1.7,0.3-3.2,0.4-3.3,0.3c-0.2-0.2,2.4-16.8,2.9-18.2c0.1-0.3,0.6-0.5,1-0.4C38.5,93.2,42.5,93.9,46.8,94.6z M92.9,102.3l25.7,4.3l2.3,1.9c8.3,7,19.5,11.2,29.6,11.2h3.4l-0.3,3.4c-1.7,17.3,8.6,35.6,25,44.4c4.5,2.5,11.2,4.6,15.3,5c2.7,0.2,3.4,0.5,3.3,1.1c0,0.4-0.6,4.1-1.3,8.3l-1.3,7.5l-4.2,0.3c-8.6,0.6-15.7,4.1-22.5,10.9c-3.6,3.6-4.6,5-6.5,8.9c-2.2,4.3-2.4,4.6-3.5,4.4c-0.7-0.1-24.8-4.2-53.5-9c-28.7-4.8-52.9-8.8-53.6-9c-1.1-0.2-1.3-0.5-1.5-3.1c-1-8.9-4.8-16.7-11.2-22.7c-3-2.9-7.5-5.9-10.5-7c-1.7-0.7-2.1-1-1.9-1.8c0.1-0.6,1.6-9.7,3.4-20.3l3.2-19.3l3.3-0.3c11.8-1,23.1-8.9,28.3-19.7c1.2-2.5,2-3.7,2.6-3.7C66.9,98,78.8,100,92.9,102.3z M27,173.6c6.1,3.1,11.1,10,12.1,16.8c0.2,1.7,0.3,3.1,0.2,3.2c-0.2,0.2-18.1-2.7-18.4-3c-0.2-0.2,2.9-18.5,3.1-18.5C24,172.1,25.4,172.8,27,173.6z M191.2,208.8c-0.9,5.3-1.8,9.7-1.9,9.8c-0.2,0.2-4.7-0.4-10.1-1.4l-9.8-1.7l0.3-1.2c0.6-2.3,3.5-6.5,6.2-9c4.2-3.8,9.4-6,14.5-6l2.4,0L191.2,208.8z"/><path fill="#000000" d="M148.1,43.3c-1.2,1.2-1.6,2-1.6,3.2c0,1.4-0.2,1.6-2.3,2.6c-5.3,2.4-9.4,8.2-9.4,13.5c0,6.9,4.7,11.4,15.9,15.2c6.8,2.3,8.1,3.5,6.9,6.9c-1.5,4.5-9.5,4.5-14.9,0.1c-3.4-2.8-5.8-2.9-8.2-0.5c-1.4,1.5-1.7,3.9-0.8,5.8c0.8,1.5,6.2,5.1,9.8,6.4c2.5,0.9,2.9,1.3,2.9,2.3c0,0.7,0.6,1.7,1.4,2.5c3,2.9,8.5,0.8,8.5-3.2c0-0.6,0.7-1.1,2.2-1.7c1.2-0.5,3.3-2.1,4.9-3.6c5.7-5.7,6.1-12.6,1.1-18.2c-2.4-2.7-6.6-5-12.9-7c-6.5-2.2-8.1-4-6.2-7.5c0.8-1.7,2.9-2.5,6.1-2.5c3,0,4,0.5,6.4,3c1.5,1.5,2,1.8,3.6,1.8c3.6,0,6-3.4,4.7-6.7c-0.9-2.1-5-5.7-7.6-6.7c-1.9-0.7-2.1-0.9-2.3-2.7c-0.3-2.5-2-4.1-4.5-4.5C150,41.7,149.6,41.8,148.1,43.3z"/><path fill="#000000" d="M198.3,96.5c-1.3,1-2.1,2.5-2.1,4.2c0,1.1-0.3,1.5-2.2,2.2c-1.2,0.5-3.3,2-4.7,3.4c-4.2,4-5.6,8.6-4.2,13.4c1.4,4.7,5.8,8.5,12.8,11c6.9,2.4,8.6,3.2,9.3,4.2c1.5,2,0.3,5.3-2.1,6.4c-2.4,1-6.4,0.6-9.6-0.9c-1.5-0.8-3.5-1.9-4.4-2.6c-3.5-2.6-8.1-0.4-8,3.8c0,1.8,0.9,3.1,2.8,4.6c1.8,1.4,8.8,4.9,9.7,4.9c0.3,0,0.7,0.8,0.8,1.9c0.3,2.3,1.8,4.1,3.9,4.5c1.9,0.4,3.1,0,4.6-1.5c0.8-0.8,1.2-1.7,1.2-2.9c0-1.6,0.2-1.8,2.3-2.8c7.8-3.7,11.5-12,8.2-18.7c-2.2-4.3-6.7-7.4-15-10.1c-6.5-2.1-7.7-3.4-6.6-6.9c0.8-2.3,3-3.3,6.8-3.1c2.8,0.2,3,0.3,5.3,2.5c2.1,2.1,2.6,2.3,4.5,2.3c3.6,0,5.9-3.5,4.5-6.8c-0.8-2-4.3-5-7.3-6.4c-2.3-1.1-2.5-1.3-2.5-2.8c0-2.4-2.1-4.4-4.8-4.4C200,95.7,198.8,96,198.3,96.5z"/><path fill="#000000" d="M115.8,115.5c-0.9,0.8-1.4,1.9-2,4.7l-0.8,3.7l-2.9,0.6c-6.2,1.3-12.2,5.8-14.6,10.9c-1.4,3-1.7,8-0.7,11c1.3,3.7,6.6,9.3,11.1,12c0.5,0.2,0.2,2.3-1.1,9.1l-1.7,8.8l-1.9-1.2c-1-0.7-3.4-2.7-5.2-4.5c-2.9-2.8-3.6-3.2-5.1-3.2c-1.4,0-2.1,0.4-3.3,1.6c-1.8,1.8-2.1,3.6-0.9,5.9c1,2,6.8,7.1,10,9c4.9,2.8,4.5,2.3,3.8,6c-0.7,3.9-0.4,5.4,1.5,6.9c1.7,1.4,3.8,1.5,5.9,0.2c1.5-0.9,1.9-1.9,2.8-6.5l0.4-2l3.4-0.9c6.5-1.6,11.7-5.5,14.1-10.6c1-2.3,1.3-3.4,1.3-6.5c0-3.2-0.2-4.1-1.4-6.3c-1.6-3.1-5.2-7-8.3-9c-1.3-0.8-2.3-1.8-2.3-2.3c0-0.4,0.7-4.4,1.5-8.8c1.7-9.1,1.9-9.3,4.6-4.5c2.3,4,5.6,5.1,8.3,2.7c1.9-1.6,2.3-3.7,1.1-6.3c-1.2-2.7-4.7-6.5-7.7-8.4c-1.4-0.8-2.6-1.6-2.7-1.6c0-0.1,0.1-1.6,0.4-3.4c0.7-3.8,0.4-5.4-1.3-6.9C120.6,114.1,117.5,114,115.8,115.5z M110.3,138.7c-0.5,2.5-1.1,5.7-1.4,7.1l-0.5,2.5l-1.8-1.8c-1-1-2-2.4-2.3-3.2c-0.4-1.7,0.1-4.2,1.3-5.8c1.1-1.5,3.7-3.3,4.8-3.3C111.1,134.2,111.1,134.4,110.3,138.7z M118.5,166.5c2.2,2.7,1.9,6.4-0.8,9.3c-1.1,1.1-4,2.6-4.4,2.2c-0.1-0.1,0.3-3.3,1-7C115.8,163.5,115.9,163.4,118.5,166.5z"/></g></g></g>
</svg>