<?xml version="1.0" encoding="utf-8"?>
<!-- Svg Vector Icons : http://www.onlinewebfonts.com/icon -->
<!DOCTYPE svg PUBLIC "-//W3C//DTD SVG 1.1//EN" "http://www.w3.org/Graphics/SVG/1.1/DTD/svg11.dtd">
<svg version="1.1" xmlns="http://www.w3.org/2000/svg" xmlns:xlink="http://www.w3.org/1999/xlink" x="0px" y="0px" viewBox="0 0 256 256" enable-background="new 0 0 256 256" xml:space="preserve">
<metadata> Svg Vector Icons : http://www.onlinewebfonts.com/icon </metadata>
<g><g><path fill="#000000" d="M246,106.5c-4.3,9.2-9.8,17.3-14.1,26.6c-4.3-1.4-5.9-5.6-11-6.2c0,35.4,0,70.8,0,106.3c-62.3,0-124.5,0-186.8,0c0-35.2,0-70.3,0-105.5c-3.8-1.5-6.6,4.8-10.9,5.5c-3.6-9.4-9.4-16.6-13.3-25.8c12.2-11,27.3-19.1,39.9-29.7c0-12.8,0-25.5,0-38.3c12.2,0,24.5,0,36.7,0c0,3.9,0,7.8,0,11.7c13.1-7,27.3-19.7,41.4-28.2C167.4,50.7,206.4,78.9,246,106.5z M67,105.7c-6.3,4.5-17.3,10.2-18.8,14.8c-1.8,5.9,0,16.7,0,24.3c0,25.5,0,49.8,0,74.2c52.9,0,105.8,0,158.6,0c0-33.4,0-66.7,0-100c-26.3-19-52.8-37.9-79.7-56.3C108.6,76.2,87.2,91.2,67,105.7z"/><path fill="#000000" d="M122.5,100.3c31.2-2.6,61.1,22,56.3,60.2c-2.5,19.6-16.9,34.6-32,40.7c-55.3,22.2-95.2-49.6-57-86.7C97.6,106.6,109.5,101.3,122.5,100.3z M120.2,120.6c-10.1,4.9-15.3,11.7-14.1,21.9c2,16.8,27.5,13.2,28.2,22.7c0.7,9.9-16.2,10-17.2,0c-3.7,0-7.3,0-11,0c0.4,10.8,6.7,15.7,14.1,19.5c0.1,2.2-0.4,5.1,0.8,6.2c3.7,0,7.3,0,10.9,0c0-2.3,0-4.7,0-7c15-3.9,17.8-22.7,9.4-31.3c-6-6.2-21.3-4.6-22.7-11.7c-1.4-7.4,5-9.5,11-8.6c2.7,1.5,3,5.3,5.4,7.1c3.7,0,7.3,0,11,0c-0.4-10.8-7.5-15-14.1-19.6c0-2.1,0-4.2,0-6.2c-3.9,0-7.8,0-11.8,0C120.2,115.9,120.2,118.2,120.2,120.6z"/></g></g>
</svg>