<svg width="77" height="74" viewBox="0 0 77 74" fill="none" xmlns="http://www.w3.org/2000/svg">
<path d="M4.07947 47.6438C7.27675 46.6301 10.4689 45.6164 13.6866 44.7041C14.064 44.5926 14.5688 44.917 15.1654 45.0792C17.9446 40.8216 20.9073 36.407 23.717 31.9315C24.3145 30.9043 25.1157 30.0085 26.072 29.2984C27.0284 28.5883 28.1199 28.0788 29.2804 27.8007C32.1258 27.0911 34.9356 26.2142 37.7351 25.307C38.4495 25.0608 39.0731 24.607 39.525 24.0044C43.7472 18.0337 47.9338 12.0225 52.1968 5.90479C59.6011 11.0138 66.9849 16.0975 74.4503 21.2623L47.2505 60.3151L40.7947 55.8497C40.1624 56.5441 39.6015 57.203 38.9946 57.8112C36.9326 59.8572 34.3183 61.2656 31.468 61.866C28.1585 62.6212 24.8389 63.3359 21.5243 64.0759C21.2183 64.1468 20.9277 64.2583 20.5044 64.3901L21.6008 68.3081L11.0605 71.5164C9.91821 67.7303 8.79126 64.0252 7.6796 60.3201C6.62914 56.833 5.60927 53.3256 4.55881 49.8334C4.42442 49.4547 4.26427 49.0856 4.07947 48.7285V47.6438ZM36.3226 28.7029C33.9667 29.3973 32.0238 30.0562 30.03 30.5326C29.2074 30.7248 28.4335 31.0832 27.7562 31.5855C27.079 32.0877 26.513 32.7231 26.0933 33.452C23.253 37.9326 20.326 42.3574 17.4244 46.7872C16.9221 47.47 16.3824 48.1248 15.8079 48.7488L19.6885 61.643C23.7119 60.7459 27.5721 59.9248 31.417 59.0125C33.6798 58.5311 35.7207 57.3236 37.2252 55.576C41.1568 50.8066 44.9915 45.9459 48.8109 41.1004C49.0447 40.8142 49.2192 40.4847 49.3244 40.1311C49.4295 39.7775 49.4631 39.4067 49.4233 39.0401C49.3834 38.6734 49.271 38.3183 49.0923 37.9951C48.9137 37.672 48.6725 37.3871 48.3825 37.1571C47.8586 36.6633 47.1678 36.3822 46.4459 36.369C45.724 36.3559 45.0233 36.6117 44.4815 37.0862C43.6911 37.7045 42.9211 38.3482 42.1358 38.9767L35.4149 44.3746L28.8419 40.4415L36.3226 28.7029ZM60.9116 35.7633L70.5136 21.9719L52.9005 9.77205L43.4005 23.4975C52.2682 19.3971 62.0691 27.2178 60.9116 35.7633ZM52.3702 39.4886C55.7562 39.4025 58.056 37.0405 57.9795 33.7308C57.852 28.3836 51.5594 23.8472 46.404 25.3425C42.3245 26.5538 40.861 30.8316 43.2985 34.2985C48.0919 32.5346 50.7843 34.0755 52.3702 39.4886ZM7.38384 49.5496C9.27059 55.8092 11.0911 61.8711 12.9523 68.0496L18.1485 66.4479L12.5801 47.9074L7.38384 49.5496ZM46.5468 56.463L57.2248 41.0801C55.9652 41.5109 55.0168 42.0938 54.0683 42.0938C51.6971 42.0938 50.356 43.3863 49.1882 45.1653C48.5916 46.0827 47.8318 46.8886 47.1485 47.7503L42.4979 53.5942L46.5468 56.463ZM39.0558 29.6659L32.7887 39.5038C33.3063 39.8715 33.8519 40.1985 34.4205 40.482C34.7826 40.629 35.3741 40.7507 35.6138 40.5682C37.4291 39.1896 39.1833 37.7349 40.6315 36.559L39.0558 29.6659Z" fill="#FFC83D"/>
<path d="M61.1921 20.5579C61.1672 21.1793 60.903 21.7673 60.454 22.2004C60.005 22.6335 59.4057 22.8783 58.7801 22.8844C58.3029 22.8822 57.8372 22.7388 57.4424 22.4725C57.0476 22.2062 56.7415 21.829 56.5632 21.389C56.3849 20.9491 56.3425 20.4664 56.4414 20.0024C56.5403 19.5384 56.776 19.1142 57.1185 18.7839C57.4609 18.4536 57.8945 18.2322 58.3641 18.1479C58.8337 18.0636 59.3179 18.1202 59.7549 18.3105C60.192 18.5009 60.5621 18.8163 60.8181 19.2165C61.074 19.6168 61.2042 20.0838 61.1921 20.5579Z" fill="#FFC83D"/>
</svg>
