<svg width="28" height="28" viewBox="0 0 28 28" fill="none" xmlns="http://www.w3.org/2000/svg">
<g clip-path="url(#clip0_197_253)">
<path d="M8.32652 9.66028C9.01752 10.0709 9.79388 10.2761 10.5687 10.2761C11.3433 10.2761 12.119 10.0707 12.81 9.66034C14.4537 8.68382 15.3456 6.75205 15.2562 4.36046C15.2072 3.05123 14.6926 2.04796 13.9422 1.33452C13.1527 0.575116 12.0616 0.111159 10.8306 0.0194247C10.7552 0.0138162 10.5215 -0.00990703 10.3312 0.00466214C8.22305 0.16344 5.98791 1.5626 5.88102 4.35723C5.88096 4.35884 5.87729 4.35917 5.87729 4.36078C5.87729 4.36136 5.87729 4.36194 5.87729 4.36252C5.81288 6.75302 6.68336 8.68402 8.32652 9.66028ZM10.5706 1.27998C11.2324 1.30686 11.9855 1.49665 12.6153 1.91535C12.9272 2.1239 13.2032 2.38485 13.4233 2.69996C11.6153 3.51396 9.36886 4.04148 7.18999 4.16287C7.3861 2.25798 8.99754 1.34335 10.5706 1.27998ZM13.9128 3.89321C13.9426 4.05695 13.9614 4.22869 13.9681 4.40861C14.0394 6.31382 13.3776 7.82398 12.1523 8.55186C11.1765 9.13153 9.96432 9.13153 8.98858 8.55186C7.99703 7.96278 7.37449 6.86132 7.21088 5.45288C9.54182 5.32834 11.9562 4.76562 13.9128 3.89321ZM13.3588 13.6459L12.1785 15.1234C11.9563 15.4016 11.5506 15.4469 11.2725 15.2247C10.9943 15.0025 10.9489 14.5968 11.1712 14.3186L12.1353 13.1118C11.1683 12.8362 10.072 12.8191 9.03757 13.1052L10.0071 14.3185C10.2293 14.5966 10.184 15.0023 9.90585 15.2246C9.62775 15.4468 9.22207 15.4016 8.99979 15.1234L7.80725 13.631C6.90796 14.1826 6.31559 15.0108 6.1296 16.0147L4.75146 23.4547L11.1794 23.4546C11.5353 23.4546 11.824 23.7432 11.824 24.0992C11.824 24.4553 11.5354 24.7439 11.1794 24.7439L3.9764 24.744C3.78487 24.744 3.60327 24.6588 3.48079 24.5116C3.3583 24.3644 3.30763 24.1703 3.34251 23.982L4.8617 15.7798C5.21265 13.8853 6.58931 12.4632 8.63872 11.8781C9.74695 11.5617 10.9836 11.5273 12.1208 11.7811C13.3418 12.0537 14.3819 12.6306 15.1285 13.4494C15.3685 13.7124 15.3497 14.1201 15.0866 14.3601C14.8235 14.6 14.4158 14.5812 14.1759 14.3182C13.9417 14.0614 13.6659 13.8365 13.3588 13.6459ZM17.676 26.3241C17.676 26.6801 17.3874 26.9687 17.0313 26.9687H14.1896C13.8335 26.9687 13.5488 26.6705 13.5488 26.3144V16.8885C13.5488 16.5325 13.8335 16.2675 14.1896 16.2675H21.4531C21.8091 16.2675 22.1227 16.5325 22.1227 16.8885V17.6999C22.1227 18.0559 21.8341 18.3445 21.478 18.3445C21.122 18.3445 20.8334 18.0559 20.8334 17.6999V17.5568H14.8381V25.6794H17.0313C17.3874 25.6794 17.676 25.968 17.676 26.3241ZM21.4531 23.1714C23.286 23.1714 24.6682 22.3402 24.6682 21.2378C24.6682 20.1353 23.286 19.304 21.4531 19.304C19.6203 19.304 18.2382 20.1353 18.2382 21.2378C18.2382 22.3402 19.6203 23.1714 21.4531 23.1714ZM19.9247 20.9025C20.3164 20.706 20.8735 20.5933 21.4531 20.5933C22.0327 20.5933 22.5899 20.706 22.9817 20.9025C23.3098 21.067 23.3789 21.2154 23.3789 21.2378C23.3789 21.2602 23.3099 21.4084 22.9817 21.573C22.5899 21.7694 22.0327 21.8821 21.4531 21.8821C20.8735 21.8821 20.3164 21.7694 19.9247 21.573C19.5966 21.4084 19.5276 21.2602 19.5276 21.2378C19.5276 21.2154 19.5965 21.067 19.9247 20.9025ZM24.2723 24.201C24.4266 24.5219 24.2915 24.9071 23.9706 25.0614C23.2674 25.3995 22.3733 25.5857 21.453 25.5857C20.5328 25.5857 19.6388 25.3995 18.9356 25.0614C18.6147 24.907 18.4797 24.5219 18.634 24.201C18.7883 23.8801 19.1735 23.7451 19.4944 23.8994C20.0268 24.1554 20.7224 24.2964 21.453 24.2964C22.1838 24.2964 22.8795 24.1554 23.4119 23.8994C23.7328 23.7451 24.1181 23.8802 24.2723 24.201ZM24.2723 26.6153C24.4266 26.9362 24.2915 27.3214 23.9706 27.4757C23.2675 27.8138 22.3734 28 21.453 28C20.5328 28 19.6388 27.8138 18.9356 27.4757C18.6147 27.3213 18.4797 26.9361 18.634 26.6153C18.7883 26.2944 19.1735 26.1594 19.4944 26.3137C20.0267 26.5697 20.7222 26.7106 21.453 26.7106C22.1839 26.7106 22.8796 26.5696 23.4119 26.3137C23.7328 26.1594 24.1181 26.2944 24.2723 26.6153Z" fill="white"/>
</g>
<defs>
<clipPath id="clip0_197_253">
<rect width="28" height="28" fill="white"/>
</clipPath>
</defs>
</svg>
