<svg width="65" height="63" viewBox="0 0 65 63" fill="none" xmlns="http://www.w3.org/2000/svg">
<path d="M47.351 32.363C51.6341 30.9778 53.6659 31.4482 54.4321 33.9854C55.1553 33.7654 55.8742 33.5065 56.5844 33.3209C58.5732 32.829 60.4586 33.5022 61.3798 35.0081C62.301 36.5141 62.146 38.4041 60.6954 40.0093C60.0176 40.757 59.2515 41.4192 58.4139 41.9813C51.4835 46.5768 44.5099 51.099 37.601 55.7248C34.1099 58.0592 30.6103 58.1024 26.9772 56.2253C23.3441 54.3483 19.7195 52.5273 16.1424 50.5812C14.4636 49.6707 12.9957 49.5801 11.4633 50.8315C10.587 51.4933 9.66971 52.0986 8.7169 52.6438C8.02385 53.0753 7.31789 53.153 6.80995 52.3849C6.302 51.6168 6.68511 51.0041 7.36524 50.551C8.4414 49.839 9.54769 49.1702 10.6066 48.4323C12.6083 47.0342 14.6229 47.017 16.7537 48.1432C20.3523 50.0461 23.9768 51.9059 27.6056 53.7528C28.4687 54.1866 29.3639 54.553 30.2831 54.8488C31.0453 55.134 31.8628 55.2391 32.6721 55.156C33.4814 55.073 34.2607 54.8039 34.9494 54.3698C42.5858 49.3902 50.2064 44.3819 57.8113 39.3448C58.3675 38.9441 58.8386 38.4366 59.1974 37.8517C59.8861 36.7946 59.3007 35.6942 58.0265 35.6683C57.3818 35.6616 56.7418 35.7787 56.1411 36.0135C55.2367 36.3517 54.3708 36.7857 53.5583 37.308C49.6066 39.9575 45.7023 42.6846 41.7335 45.3168C40.9652 45.8453 40.0774 46.1731 39.1507 46.2704C33.6321 46.5854 28.1007 46.8487 22.6811 45.347C22.4874 45.2909 22.2894 45.2435 22.1 45.183C21.3338 44.9328 20.9119 44.4063 21.1616 43.6167C21.1987 43.4425 21.2742 43.2788 21.3826 43.1376C21.4909 42.9964 21.6294 42.8812 21.7878 42.8006C21.9463 42.7199 22.1207 42.6758 22.2983 42.6714C22.476 42.667 22.6524 42.7025 22.8146 42.7752C27.7348 44.3071 32.797 43.9144 37.8292 43.8885C38.5895 43.8845 39.3405 43.7198 40.0331 43.4052C40.264 43.2751 40.4617 43.0933 40.6111 42.874C40.7604 42.6547 40.8572 42.4038 40.8941 42.1409C40.8732 41.8794 40.792 41.6262 40.6568 41.4015C40.5216 41.1769 40.3361 40.9868 40.1149 40.8464C39.2977 40.4939 38.4214 40.2992 37.5321 40.2725C34.1429 40.1187 30.8002 39.4209 27.6315 38.2056C26.5475 37.7671 25.571 37.0988 24.7689 36.2465C21.3467 32.7945 16.7407 31.6855 12.1778 33.5539C8.73412 34.9607 5.40233 36.5745 1.99736 38.033C1.49681 38.2315 0.939634 38.2315 0.439084 38.033C0.163587 37.9035 0.00861992 37.2045 0.0602756 36.7816C0.108224 36.5949 0.196235 36.421 0.318167 36.2719C0.440099 36.1229 0.593013 36.0023 0.766236 35.9186C4.51557 34.2616 8.17882 32.2983 12.0745 31.0685C17.649 29.2777 22.7758 30.1191 26.9901 34.7492C27.9156 35.7676 29.659 36.0437 31.0666 36.5961C31.3292 36.6953 31.7941 36.3372 32.1298 36.1343C34.4974 34.6715 36.7917 33.062 39.2497 31.7718C40.7125 31.0458 42.2872 30.5731 43.9073 30.3737C45.3623 30.1796 46.7354 30.706 47.351 32.363ZM43.4768 41.0794C46.2576 39.2067 49.004 37.3771 51.7159 35.5043C51.8375 35.3877 51.9303 35.2444 51.9871 35.0856C52.0439 34.9269 52.063 34.757 52.0431 34.5896C51.9817 34.451 51.8891 34.3286 51.7726 34.232C51.6561 34.1355 51.5188 34.0673 51.3715 34.0329C50.9749 33.972 50.5704 33.9866 50.1792 34.0761C46.8474 34.6672 44.7424 37.321 41.9745 38.8226L43.4768 41.0794ZM34.8202 37.3037C37.601 38.2574 39.7835 37.7654 41.7076 36.0092C42.2414 35.5259 42.9258 35.2152 43.4854 34.7578C44.045 34.3004 44.5229 33.7611 45.0394 33.2562C44.2043 33.1785 43.3649 33.0793 42.5255 33.0404C42.2408 33.0456 41.9627 33.1276 41.7205 33.2778C39.4735 34.5766 37.2351 35.8927 34.8202 37.3037Z" fill="#2CC313"/>
<path d="M32.203 12.7944C32.4698 9.87738 33.7139 7.61628 36.2881 6.26566C37.192 5.79781 38.1823 5.52159 39.1974 5.45422C40.2125 5.38684 41.2305 5.52975 42.1881 5.87405C43.1456 6.21834 44.0222 6.75664 44.7631 7.45539C45.5041 8.15415 46.0935 8.99838 46.4947 9.93549C46.8959 10.8726 47.1003 11.8825 47.095 12.9022C47.0898 13.922 46.8752 14.9297 46.4644 15.8627C46.0537 16.7956 45.4557 17.6338 44.7076 18.3249C43.9596 19.016 43.0776 19.5453 42.1165 19.8797C41.0619 20.2206 40.9155 20.678 40.9242 21.6446C40.8994 23.8811 40.0163 26.0221 38.4581 27.623C36.9 29.2239 34.7866 30.1617 32.5568 30.2417C30.327 30.3217 28.1522 29.5376 26.4839 28.0524C24.8156 26.5672 23.7821 24.4949 23.598 22.2659C23.1374 17.9034 26.4477 13.6919 30.8943 12.9972L32.203 12.7944ZM38.8192 15.7674L38.7804 15.7243C38.9741 16.0263 39.1636 16.3327 39.3659 16.6305C40.2268 17.925 40.5583 17.9897 41.9487 17.2691C42.7172 16.8802 43.371 16.2967 43.8453 15.5766C44.3197 14.8564 44.5982 14.0245 44.6532 13.1633C44.7081 12.3021 44.5377 11.4414 44.1588 10.6665C43.7798 9.89166 43.2055 9.22946 42.4927 8.74551C41.78 8.26157 40.9534 7.97268 40.095 7.90746C39.2366 7.84224 38.376 8.00296 37.5986 8.37368C36.8212 8.74441 36.1539 9.31229 35.6628 10.0211C35.1717 10.7299 34.8738 11.5549 34.7987 12.4146C34.7967 12.5973 34.8342 12.7783 34.9085 12.9451C34.9828 13.1119 35.0922 13.2607 35.2291 13.3812C36.3957 14.2399 37.6139 14.9778 38.8192 15.7674ZM32.3192 15.3877C31.5106 15.3711 30.7067 15.5157 29.9542 15.813C29.2018 16.1103 28.5157 16.5544 27.9359 17.1196C27.356 17.6848 26.8939 18.3599 26.5764 19.1055C26.2588 19.8512 26.0922 20.6526 26.0861 21.4633C26.0678 22.2837 26.2124 23.0995 26.5114 23.8634C26.8104 24.6273 27.2578 25.324 27.8278 25.913C28.3977 26.5019 29.0788 26.9715 29.8314 27.2944C30.5839 27.6172 31.393 27.7869 32.2116 27.7935C33.8637 27.7981 35.4503 27.1464 36.6241 25.9811C37.798 24.8157 38.4634 23.2316 38.4748 21.5755C38.4759 20.7641 38.3176 19.9603 38.0089 19.2102C37.7001 18.4601 37.247 17.7782 36.6754 17.2037C36.1038 16.6291 35.4249 16.173 34.6775 15.8614C33.93 15.5498 33.1287 15.3889 32.3192 15.3877Z" fill="#2CC313"/>
<path d="M33.3394 24.9024H31.1871V20.5873L29.7623 20.3673C30.8212 18.5032 31.652 18.0199 33.3523 18.3047L33.3394 24.9024Z" fill="#2CC313"/>
<path d="M38.8192 15.7674V12.1039L37.5278 11.7846C38.3888 10.8784 38.957 9.69176 40.5411 10.2096V15.6207L38.7503 15.7242L38.8192 15.7674Z" fill="#2CC313"/>
</svg>
