<?xml version="1.0" encoding="iso-8859-1"?>
<!-- Uploaded to: SVG Repo, www.svgrepo.com, Generator: SVG Repo Mixer Tools -->
<svg fill="#000000" height="800px" width="800px" version="1.1" id="Layer_1" xmlns="http://www.w3.org/2000/svg" xmlns:xlink="http://www.w3.org/1999/xlink" 
	 viewBox="0 0 496 496" xml:space="preserve">
<g>
	<g>
		<path d="M343.712,101.64C343.824,99.76,344,97.896,344,96c0-52.936-43.064-96-96-96c-52.936,0-96,43.064-96,96
			c0,1.896,0.176,3.76,0.288,5.64L0,211.912V232h40v264h416V232h40v-20.088L343.712,101.64z M248,16c44.112,0,80,35.888,80,80
			c0,21.192-8.24,40.92-23.12,56H256v-8h4c15.44,0,28-12.56,28-28s-12.56-28-28-28h-24c-6.616,0-12-5.384-12-12
			c0-6.616,5.384-12,12-12h24c6.616,0,12,5.384,12,12v4h16v-4c0-15.44-12.56-28-28-28h-4V32h-16v16h-4c-15.44,0-28,12.56-28,28
			s12.56,28,28,28h24c6.616,0,12,5.384,12,12c0,6.616-5.384,12-12,12h-24c-6.616,0-12-5.384-12-12v-4h-16v4c0,15.44,12.56,28,28,28
			h4v8h-48.88C176.24,136.92,168,117.192,168,96C168,51.888,203.888,16,248,16z M320,480H176V360c0-39.696,32.296-72,72-72
			s72,32.304,72,72V480z M440,480H336V360c0-48.52-39.48-88-88-88c-48.52,0-88,39.48-88,88v120H56V232h384V480z M448,216h-8H56h-8
			H21.64l133.352-96.56c2.936,11.704,8.008,22.72,15.152,32.56H136v16h224v-16h-34.144c7.144-9.84,12.216-20.848,15.152-32.56
			L474.36,216H448z"/>
	</g>
</g>
</svg>