<?xml version="1.0" encoding="utf-8"?>
<!-- Svg Vector Icons : http://www.onlinewebfonts.com/icon -->
<!DOCTYPE svg PUBLIC "-//W3C//DTD SVG 1.1//EN" "http://www.w3.org/Graphics/SVG/1.1/DTD/svg11.dtd">
<svg version="1.1" xmlns="http://www.w3.org/2000/svg" xmlns:xlink="http://www.w3.org/1999/xlink" x="0px" y="0px" viewBox="0 0 256 256" enable-background="new 0 0 256 256" xml:space="preserve">
<metadata> Svg Vector Icons : http://www.onlinewebfonts.com/icon </metadata>
<g><g><path fill="#000000" d="M229.3,75.3V44.4c0,0-1.2-5-7.4-4.4h-18.8c0,0-7.2-24.2-31.9-24.2H39.5c0,0-29.5,2.4-29.5,29.2v172.3c0,0,1.5,23,31,23c29.5,0,182.1,0,182.1,0s23-3,23-28.6V96.2C246,96.2,246,79.4,229.3,75.3z M213.8,54.1v18.3H51.4c0,0,5.1-16.8,23.8-18.3H213.8z M45.5,30.5H48h14.6h108.2h2.1c0,0,0.7,0,1.3,0.1c0.5,0,0.9,0.1,1.1,0.1c0.2,0,0.3,0.1,0.5,0.2c0.2,0.1,0.5,0.2,0.7,0.3c0.3,0.2,0.7,0.4,1.1,0.6c3.4,1.8,8.7,5.1,8.5,8.7h-118c0,0-23.2,2.6-31.9,28c0,0-17.9-10.6-8-26.6c0.8-1.3,1.7-2.6,2.9-3.9c1.2-1.3,2.6-2.7,4.2-4.1c0.3-0.3,0.6-0.5,0.9-0.8c0.2-0.1,2.1-1.1,3.7-1.5c1-0.3,2-0.7,2.7-0.8C42.7,30.7,45.5,30.5,45.5,30.5z M230,216.3c0,0-3.6,6.8-11.4,8.2H34.1c0,0-8.3-2.4-8-10.3V80.6c0,0,5.9,7.4,14.9,6.2h180c0,0,9.8,3.8,8.9,11.5V128h-39c0,0-32.5,15.9-12.8,46.2c0,0,5.7,8.5,15.2,9.1H230V216.3L230,216.3z M229,143v24.7h-34c0,0-15.2-9.7,0-24.7H229z"/></g></g>
</svg>