<svg xmlns="http://www.w3.org/2000/svg" xmlns:xlink="http://www.w3.org/1999/xlink" viewBox="0 0 1200 800"><defs><style>.cls-1{fill:none;}.cls-2{clip-path:url(#clip-path);}.cls-3{opacity:0.25;fill:url(#linear-gradient);}.cls-10,.cls-4{opacity:0.35;}.cls-4{fill:url(#linear-gradient-2);}.cls-5{opacity:0.6;}.cls-6{fill:#e2e0e0;}.cls-7{fill:#eaeaea;}.cls-8{opacity:0.4;}.cls-9{fill:#bcbec0;}.cls-11{opacity:0.2;}</style><clipPath id="clip-path"><rect class="cls-1" width="1200" height="800"/></clipPath><linearGradient id="linear-gradient" x1="833.55" y1="365.85" x2="833.55" y2="67.18" gradientUnits="userSpaceOnUse"><stop offset="0" stop-color="#f4f4f4"/><stop offset="1" stop-color="#e2e0e0"/></linearGradient><linearGradient id="linear-gradient-2" x1="1222.32" y1="910.86" x2="1222.32" y2="425.23" gradientTransform="matrix(-1, 0, 0, 1, 1823.3, 0)" xlink:href="#linear-gradient"/></defs><title>financial chart</title><g id="Objects"><g class="cls-2"><polygon class="cls-3" points="1710.53 370.33 1615.64 266.6 1509.41 308.52 1413.92 254.64 1363.18 266.6 1343.36 291.46 1220.5 231.43 1156.7 168.99 1075.32 49.36 1044.48 266.6 1019.19 246.42 904.86 131.86 849.14 201.22 767.27 246.55 645.8 109.3 564.5 194.74 503.56 216.1 458.83 151.43 364.68 191.53 274.95 85.31 172.12 98.86 107.49 158.97 76.87 19.14 -43.42 210.8 -43.42 370.12 1710.53 370.33"/><polygon class="cls-4" points="1068.81 347.13 1019.03 574.49 913.93 476.75 746.74 454.72 600.85 627.42 447.75 562.23 375.03 667.38 275.94 632.64 143.76 493.73 -9.02 666.36 -9.02 809 1210.98 809 1210.98 573.64 1068.81 347.13"/><g class="cls-5"><g class="cls-5"><rect class="cls-6" x="637.79" y="764.71" width="6.18" height="86.32"/><rect class="cls-6" x="640.7" y="746.3" width="0.34" height="18.87"/><rect class="cls-6" x="666.82" y="754.15" width="6.18" height="61.78"/><rect class="cls-6" x="669.74" y="740.45" width="0.34" height="14.17"/><rect class="cls-6" x="618.3" y="755.52" width="6.18" height="61.78"/><rect class="cls-6" x="621.21" y="741.81" width="0.34" height="14.17"/><rect class="cls-6" x="482.38" y="693.64" width="6.18" height="61.78"/><rect class="cls-6" x="485.3" y="679.94" width="0.34" height="14.17"/><rect class="cls-6" x="485.3" y="752.08" width="0.34" height="18.87"/><rect class="cls-6" x="347.59" y="718.45" width="6.18" height="61.78"/><rect class="cls-6" x="350.51" y="704.75" width="0.34" height="14.17"/><rect class="cls-6" x="350.51" y="776.89" width="0.34" height="18.87"/><rect class="cls-6" x="282.22" y="751.13" width="6.18" height="61.78"/><rect class="cls-6" x="285.13" y="737.43" width="0.34" height="14.17"/><rect class="cls-6" x="186.51" y="751.13" width="6.18" height="61.78"/><rect class="cls-6" x="189.43" y="737.43" width="0.34" height="14.17"/><rect class="cls-6" x="143.38" y="711.37" width="6.18" height="61.78"/><rect class="cls-6" x="146.3" y="697.67" width="0.34" height="14.17"/><rect class="cls-6" x="146.3" y="769.81" width="0.34" height="18.87"/><rect class="cls-6" x="131.87" y="670.48" width="6.18" height="61.78"/><rect class="cls-6" x="134.78" y="656.78" width="0.34" height="14.17"/><rect class="cls-6" x="134.78" y="728.92" width="0.34" height="18.87"/><rect class="cls-6" x="401.84" y="670.49" width="6.18" height="61.78"/><rect class="cls-6" x="404.76" y="656.78" width="0.34" height="14.17"/><rect class="cls-6" x="404.76" y="728.92" width="0.34" height="18.87"/><rect class="cls-6" x="443.91" y="687.89" width="6.18" height="61.78"/><rect class="cls-6" x="446.83" y="674.19" width="0.34" height="14.17"/><rect class="cls-6" x="446.83" y="746.33" width="0.34" height="18.87"/><rect class="cls-6" x="357.98" y="675.11" width="6.18" height="61.78"/><rect class="cls-6" x="360.9" y="661.41" width="0.34" height="14.17"/><rect class="cls-6" x="360.9" y="733.55" width="0.34" height="18.87"/><rect class="cls-6" x="657.61" y="773.72" width="6.18" height="61.78"/><rect class="cls-6" x="660.53" y="760.02" width="0.34" height="14.17"/><rect class="cls-6" x="648" y="783.1" width="6.18" height="43.33"/><rect class="cls-6" x="651.09" y="769.4" width="0.34" height="14.17"/><rect class="cls-6" x="676.98" y="736.6" width="6.18" height="43.33"/><rect class="cls-6" x="680.07" y="722.9" width="0.34" height="14.17"/><rect class="cls-6" x="680.07" y="774.45" width="0.34" height="18.87"/><rect class="cls-6" x="560.39" y="732.07" width="6.18" height="43.33"/><rect class="cls-6" x="563.48" y="718.36" width="0.34" height="14.17"/><rect class="cls-6" x="563.48" y="769.92" width="0.34" height="18.87"/><rect class="cls-6" x="325.29" y="778.99" width="6.18" height="43.33"/><rect class="cls-6" x="328.38" y="765.29" width="0.34" height="14.17"/><rect class="cls-6" x="175.67" y="721.47" width="6.18" height="43.33"/><rect class="cls-6" x="178.76" y="707.77" width="0.34" height="14.17"/><rect class="cls-6" x="178.76" y="759.33" width="0.34" height="18.87"/><rect class="cls-6" x="271.38" y="735.73" width="6.18" height="43.33"/><rect class="cls-6" x="274.46" y="722.02" width="0.34" height="14.17"/><rect class="cls-6" x="274.46" y="773.58" width="0.34" height="18.87"/><rect class="cls-6" x="217.12" y="732.88" width="6.18" height="43.33"/><rect class="cls-6" x="220.21" y="719.17" width="0.34" height="14.17"/><rect class="cls-6" x="220.21" y="770.73" width="0.34" height="18.87"/><rect class="cls-6" x="501.53" y="730.59" width="6.18" height="43.33"/><rect class="cls-6" x="504.62" y="716.89" width="0.34" height="14.17"/><rect class="cls-6" x="504.62" y="768.45" width="0.34" height="18.87"/><rect class="cls-6" x="412.29" y="653.06" width="6.18" height="43.33"/><rect class="cls-6" x="415.38" y="639.35" width="0.34" height="14.17"/><rect class="cls-6" x="415.38" y="690.91" width="0.34" height="18.87"/><rect class="cls-6" x="686.25" y="761.59" width="6.18" height="36.59"/><rect class="cls-6" x="689.34" y="751.26" width="0.34" height="10.8"/><rect class="cls-6" x="689.34" y="795.74" width="0.34" height="12.13"/><rect class="cls-6" x="570.78" y="758.51" width="6.18" height="36.59"/><rect class="cls-6" x="573.87" y="748.18" width="0.34" height="10.8"/><rect class="cls-6" x="573.87" y="792.66" width="0.34" height="12.13"/><rect class="cls-6" x="550.78" y="772.05" width="6.18" height="36.59"/><rect class="cls-6" x="553.87" y="761.72" width="0.34" height="10.8"/><rect class="cls-6" x="511.69" y="763.91" width="6.18" height="36.59"/><rect class="cls-6" x="514.78" y="753.58" width="0.34" height="10.8"/><rect class="cls-6" x="514.78" y="798.06" width="0.34" height="12.13"/><rect class="cls-6" x="491.98" y="713.08" width="6.18" height="36.59"/><rect class="cls-6" x="495.07" y="702.75" width="0.34" height="10.8"/><rect class="cls-6" x="495.07" y="747.23" width="0.34" height="12.13"/><rect class="cls-6" x="695.69" y="783.83" width="6.18" height="36.59"/><rect class="cls-6" x="698.77" y="773.5" width="0.34" height="10.8"/><rect class="cls-6" x="705.34" y="770.35" width="6.18" height="29.85"/><rect class="cls-6" x="708.43" y="760.02" width="0.34" height="10.8"/><rect class="cls-6" x="708.43" y="797.76" width="0.34" height="12.13"/><rect class="cls-6" x="628.29" y="772.39" width="6.18" height="29.85"/><rect class="cls-6" x="631.38" y="762.06" width="0.34" height="10.8"/><rect class="cls-6" x="631.38" y="799.8" width="0.34" height="12.13"/><rect class="cls-6" x="580.22" y="777.44" width="6.18" height="29.85"/><rect class="cls-6" x="583.31" y="767.1" width="0.34" height="10.8"/><rect class="cls-6" x="520.96" y="795.63" width="6.18" height="29.85"/><rect class="cls-6" x="524.05" y="785.29" width="0.34" height="10.8"/><rect class="cls-6" x="336.64" y="765.63" width="6.18" height="29.85"/><rect class="cls-6" x="339.73" y="755.29" width="0.34" height="10.8"/><rect class="cls-6" x="339.73" y="793.04" width="0.34" height="12.13"/><rect class="cls-6" x="249.47" y="777.76" width="6.18" height="29.85"/><rect class="cls-6" x="252.56" y="767.43" width="0.34" height="10.8"/><rect class="cls-6" x="463" y="719.69" width="6.18" height="29.85"/><rect class="cls-6" x="466.09" y="709.36" width="0.34" height="10.8"/><rect class="cls-6" x="466.09" y="747.1" width="0.34" height="12.13"/><rect class="cls-6" x="379.94" y="731.7" width="6.18" height="29.85"/><rect class="cls-6" x="383.03" y="721.37" width="0.34" height="10.8"/><rect class="cls-6" x="383.03" y="759.11" width="0.34" height="12.13"/><rect class="cls-6" x="434.02" y="702.29" width="6.18" height="29.85"/><rect class="cls-6" x="437.11" y="691.95" width="0.34" height="10.8"/><rect class="cls-6" x="437.11" y="729.69" width="0.34" height="12.13"/><rect class="cls-6" x="422.74" y="679.5" width="6.18" height="29.85"/><rect class="cls-6" x="425.82" y="669.17" width="0.34" height="10.8"/><rect class="cls-6" x="425.82" y="706.91" width="0.34" height="12.13"/><rect class="cls-6" x="472.67" y="734.29" width="6.18" height="29.85"/><rect class="cls-6" x="475.75" y="723.96" width="0.34" height="10.8"/><rect class="cls-6" x="475.75" y="761.7" width="0.34" height="12.13"/><rect class="cls-6" x="368.82" y="716.78" width="6.18" height="29.85"/><rect class="cls-6" x="371.91" y="706.44" width="0.34" height="10.8"/><rect class="cls-6" x="371.91" y="744.19" width="0.34" height="12.13"/><rect class="cls-6" x="293" y="738.56" width="6.18" height="29.85"/><rect class="cls-6" x="296.09" y="728.23" width="0.34" height="10.8"/><rect class="cls-6" x="296.09" y="765.97" width="0.34" height="12.13"/><rect class="cls-6" x="314.23" y="771.72" width="6.18" height="29.85"/><rect class="cls-6" x="317.32" y="761.39" width="0.34" height="10.8"/><rect class="cls-6" x="317.32" y="799.13" width="0.34" height="12.13"/><rect class="cls-6" x="260.65" y="759.32" width="6.18" height="29.85"/><rect class="cls-6" x="263.74" y="748.99" width="0.34" height="10.8"/><rect class="cls-6" x="263.74" y="786.73" width="0.34" height="12.13"/><rect class="cls-6" x="228.3" y="768.41" width="6.18" height="29.85"/><rect class="cls-6" x="231.39" y="758.08" width="0.34" height="10.8"/><rect class="cls-6" x="231.39" y="795.82" width="0.34" height="12.13"/><rect class="cls-6" x="196.96" y="738.7" width="6.18" height="29.85"/><rect class="cls-6" x="200.05" y="728.36" width="0.34" height="10.8"/><rect class="cls-6" x="200.05" y="766.1" width="0.34" height="12.13"/><rect class="cls-6" x="164.89" y="751.5" width="6.18" height="29.85"/><rect class="cls-6" x="167.98" y="741.17" width="0.34" height="10.8"/><rect class="cls-6" x="167.98" y="778.91" width="0.34" height="12.13"/><rect class="cls-6" x="609.2" y="793.27" width="6.18" height="29.85"/><rect class="cls-6" x="612.29" y="782.93" width="0.34" height="10.8"/><rect class="cls-6" x="602.68" y="799.11" width="0.34" height="10.8"/><rect class="cls-6" x="589.48" y="794.96" width="6.18" height="19.74"/><rect class="cls-6" x="592.57" y="784.63" width="0.34" height="10.8"/><rect class="cls-6" x="544.05" y="794.07" width="0.34" height="10.8"/><rect class="cls-6" x="453.79" y="742.71" width="6.18" height="19.74"/><rect class="cls-6" x="456.88" y="732.38" width="0.34" height="10.8"/><rect class="cls-6" x="456.88" y="760.01" width="0.34" height="12.13"/><rect class="cls-6" x="391" y="719.81" width="6.18" height="19.74"/><rect class="cls-6" x="394.09" y="709.48" width="0.34" height="10.8"/><rect class="cls-6" x="394.09" y="737.11" width="0.34" height="12.13"/><rect class="cls-6" x="303.39" y="762.17" width="6.18" height="19.74"/><rect class="cls-6" x="306.48" y="751.84" width="0.34" height="10.8"/><rect class="cls-6" x="306.48" y="779.47" width="0.34" height="12.13"/><rect class="cls-6" x="239.36" y="799.1" width="6.18" height="19.74"/><rect class="cls-6" x="242.45" y="788.76" width="0.34" height="10.8"/><rect class="cls-6" x="207.07" y="760.37" width="6.18" height="19.74"/><rect class="cls-6" x="210.16" y="750.04" width="0.34" height="10.8"/><rect class="cls-6" x="210.16" y="777.67" width="0.34" height="12.13"/><rect class="cls-6" x="154.16" y="773.79" width="6.18" height="19.74"/><rect class="cls-6" x="157.25" y="763.46" width="0.34" height="10.8"/><rect class="cls-6" x="157.25" y="791.09" width="0.34" height="12.13"/><rect class="cls-6" x="121.18" y="658.94" width="6.18" height="19.74"/><rect class="cls-6" x="124.27" y="648.61" width="0.34" height="10.8"/><rect class="cls-6" x="124.27" y="676.24" width="0.34" height="12.13"/><rect class="cls-6" x="41.63" y="628.55" width="6.18" height="86.32"/><rect class="cls-6" x="44.55" y="610.15" width="0.34" height="18.87"/><rect class="cls-6" x="70.67" y="618" width="6.18" height="61.78"/><rect class="cls-6" x="73.58" y="604.29" width="0.34" height="14.17"/><rect class="cls-6" x="73.58" y="676.43" width="0.34" height="18.87"/><rect class="cls-6" x="22.14" y="619.36" width="6.18" height="61.78"/><rect class="cls-6" x="25.06" y="605.66" width="0.34" height="14.17"/><rect class="cls-6" x="25.06" y="677.8" width="0.34" height="18.87"/><rect class="cls-6" x="61.46" y="637.57" width="6.18" height="61.78"/><rect class="cls-6" x="64.37" y="623.86" width="0.34" height="14.17"/><rect class="cls-6" x="64.37" y="696" width="0.34" height="18.87"/><rect class="cls-6" x="51.85" y="646.95" width="6.18" height="43.33"/><rect class="cls-6" x="54.94" y="633.24" width="0.34" height="14.17"/><rect class="cls-6" x="54.94" y="684.8" width="0.34" height="18.87"/><rect class="cls-6" x="80.83" y="600.44" width="6.18" height="43.33"/><rect class="cls-6" x="83.92" y="586.74" width="0.34" height="14.17"/><rect class="cls-6" x="83.92" y="638.3" width="0.34" height="18.87"/><rect class="cls-6" x="90.1" y="625.44" width="6.18" height="36.59"/><rect class="cls-6" x="93.18" y="615.1" width="0.34" height="10.8"/><rect class="cls-6" x="93.18" y="659.58" width="0.34" height="12.13"/><rect class="cls-6" x="99.53" y="647.68" width="6.18" height="36.59"/><rect class="cls-6" x="102.62" y="637.34" width="0.34" height="10.8"/><rect class="cls-6" x="102.62" y="681.82" width="0.34" height="12.13"/><rect class="cls-6" x="109.19" y="634.2" width="6.18" height="29.85"/><rect class="cls-6" x="112.28" y="623.86" width="0.34" height="10.8"/><rect class="cls-6" x="112.28" y="661.61" width="0.34" height="12.13"/><rect class="cls-6" x="32.14" y="636.23" width="6.18" height="29.85"/><rect class="cls-6" x="35.23" y="625.9" width="0.34" height="10.8"/><rect class="cls-6" x="35.23" y="663.64" width="0.34" height="12.13"/><rect class="cls-6" x="13.04" y="657.11" width="6.18" height="29.85"/><rect class="cls-6" x="16.13" y="646.78" width="0.34" height="10.8"/><rect class="cls-6" x="16.13" y="684.52" width="0.34" height="12.13"/><rect class="cls-6" x="3.44" y="673.29" width="6.18" height="19.74"/><rect class="cls-6" x="6.53" y="662.95" width="0.34" height="10.8"/><rect class="cls-6" x="6.53" y="690.59" width="0.34" height="12.13"/></g><g class="cls-5"><rect class="cls-6" x="1193.31" y="771.45" width="6.18" height="86.32"/><rect class="cls-6" x="1196.22" y="753.04" width="0.34" height="18.87"/><rect class="cls-6" x="1173.82" y="762.26" width="6.18" height="61.78"/><rect class="cls-6" x="1176.74" y="748.55" width="0.34" height="14.17"/><rect class="cls-6" x="1037.9" y="700.38" width="6.18" height="61.78"/><rect class="cls-6" x="1040.82" y="686.68" width="0.34" height="14.17"/><rect class="cls-6" x="1040.82" y="758.82" width="0.34" height="18.87"/><rect class="cls-6" x="903.11" y="725.19" width="6.18" height="61.78"/><rect class="cls-6" x="906.03" y="711.49" width="0.34" height="14.17"/><rect class="cls-6" x="906.03" y="783.63" width="0.34" height="18.87"/><rect class="cls-6" x="837.74" y="757.88" width="6.18" height="61.78"/><rect class="cls-6" x="840.66" y="744.17" width="0.34" height="14.17"/><rect class="cls-6" x="742.04" y="757.88" width="6.18" height="61.78"/><rect class="cls-6" x="744.95" y="744.17" width="0.34" height="14.17"/><rect class="cls-6" x="698.9" y="718.12" width="6.18" height="61.78"/><rect class="cls-6" x="701.82" y="704.41" width="0.34" height="14.17"/><rect class="cls-6" x="701.82" y="776.55" width="0.34" height="18.87"/><rect class="cls-6" x="687.39" y="677.23" width="6.18" height="61.78"/><rect class="cls-6" x="690.31" y="663.52" width="0.34" height="14.17"/><rect class="cls-6" x="690.31" y="735.66" width="0.34" height="18.87"/><rect class="cls-6" x="957.37" y="677.23" width="6.18" height="61.78"/><rect class="cls-6" x="960.28" y="663.52" width="0.34" height="14.17"/><rect class="cls-6" x="960.28" y="735.66" width="0.34" height="18.87"/><rect class="cls-6" x="999.43" y="694.63" width="6.18" height="61.78"/><rect class="cls-6" x="1002.35" y="680.93" width="0.34" height="14.17"/><rect class="cls-6" x="1002.35" y="753.07" width="0.34" height="18.87"/><rect class="cls-6" x="913.5" y="681.85" width="6.18" height="61.78"/><rect class="cls-6" x="916.42" y="668.15" width="0.34" height="14.17"/><rect class="cls-6" x="916.42" y="740.29" width="0.34" height="18.87"/><rect class="cls-6" x="1115.91" y="738.81" width="6.18" height="43.33"/><rect class="cls-6" x="1119" y="725.1" width="0.34" height="14.17"/><rect class="cls-6" x="1119" y="776.66" width="0.34" height="18.87"/><rect class="cls-6" x="880.81" y="785.73" width="6.18" height="43.33"/><rect class="cls-6" x="883.9" y="772.03" width="0.34" height="14.17"/><rect class="cls-6" x="731.2" y="728.21" width="6.18" height="43.33"/><rect class="cls-6" x="734.28" y="714.51" width="0.34" height="14.17"/><rect class="cls-6" x="734.28" y="766.07" width="0.34" height="18.87"/><rect class="cls-6" x="826.9" y="742.47" width="6.18" height="43.33"/><rect class="cls-6" x="829.99" y="728.77" width="0.34" height="14.17"/><rect class="cls-6" x="829.99" y="780.32" width="0.34" height="18.87"/><rect class="cls-6" x="772.64" y="739.62" width="6.18" height="43.33"/><rect class="cls-6" x="775.73" y="725.92" width="0.34" height="14.17"/><rect class="cls-6" x="775.73" y="777.47" width="0.34" height="18.87"/><rect class="cls-6" x="1057.05" y="737.33" width="6.18" height="43.33"/><rect class="cls-6" x="1060.14" y="723.63" width="0.34" height="14.17"/><rect class="cls-6" x="1060.14" y="775.19" width="0.34" height="18.87"/><rect class="cls-6" x="967.81" y="659.8" width="6.18" height="43.33"/><rect class="cls-6" x="970.9" y="646.1" width="0.34" height="14.17"/><rect class="cls-6" x="970.9" y="697.65" width="0.34" height="18.87"/><rect class="cls-6" x="1126.3" y="765.25" width="6.18" height="36.59"/><rect class="cls-6" x="1129.39" y="754.92" width="0.34" height="10.8"/><rect class="cls-6" x="1129.39" y="799.4" width="0.34" height="12.13"/><rect class="cls-6" x="1106.31" y="778.79" width="6.18" height="36.59"/><rect class="cls-6" x="1109.4" y="768.46" width="0.34" height="10.8"/><rect class="cls-6" x="1067.22" y="770.65" width="6.18" height="36.59"/><rect class="cls-6" x="1070.31" y="760.32" width="0.34" height="10.8"/><rect class="cls-6" x="1047.51" y="719.83" width="6.18" height="36.59"/><rect class="cls-6" x="1050.6" y="709.49" width="0.34" height="10.8"/><rect class="cls-6" x="1050.6" y="753.97" width="0.34" height="12.13"/><rect class="cls-6" x="1183.82" y="779.13" width="6.18" height="29.85"/><rect class="cls-6" x="1186.9" y="768.8" width="0.34" height="10.8"/><rect class="cls-6" x="1135.74" y="784.18" width="6.18" height="29.85"/><rect class="cls-6" x="1138.83" y="773.84" width="0.34" height="10.8"/><rect class="cls-6" x="1079.58" y="792.04" width="0.34" height="10.8"/><rect class="cls-6" x="892.16" y="772.37" width="6.18" height="29.85"/><rect class="cls-6" x="895.25" y="762.04" width="0.34" height="10.8"/><rect class="cls-6" x="895.25" y="799.78" width="0.34" height="12.13"/><rect class="cls-6" x="804.99" y="784.5" width="6.18" height="29.85"/><rect class="cls-6" x="808.08" y="774.17" width="0.34" height="10.8"/><rect class="cls-6" x="1018.53" y="726.43" width="6.18" height="29.85"/><rect class="cls-6" x="1021.62" y="716.1" width="0.34" height="10.8"/><rect class="cls-6" x="1021.62" y="753.84" width="0.34" height="12.13"/><rect class="cls-6" x="935.46" y="738.44" width="6.18" height="29.85"/><rect class="cls-6" x="938.55" y="728.11" width="0.34" height="10.8"/><rect class="cls-6" x="938.55" y="765.85" width="0.34" height="12.13"/><rect class="cls-6" x="989.55" y="709.03" width="6.18" height="29.85"/><rect class="cls-6" x="992.64" y="698.69" width="0.34" height="10.8"/><rect class="cls-6" x="992.64" y="736.44" width="0.34" height="12.13"/><rect class="cls-6" x="978.26" y="686.25" width="6.18" height="29.85"/><rect class="cls-6" x="981.35" y="675.91" width="0.34" height="10.8"/><rect class="cls-6" x="981.35" y="713.65" width="0.34" height="12.13"/><rect class="cls-6" x="1028.19" y="741.04" width="6.18" height="29.85"/><rect class="cls-6" x="1031.28" y="730.7" width="0.34" height="10.8"/><rect class="cls-6" x="1031.28" y="768.44" width="0.34" height="12.13"/><rect class="cls-6" x="924.34" y="723.52" width="6.18" height="29.85"/><rect class="cls-6" x="927.43" y="713.19" width="0.34" height="10.8"/><rect class="cls-6" x="927.43" y="750.93" width="0.34" height="12.13"/><rect class="cls-6" x="848.52" y="745.3" width="6.18" height="29.85"/><rect class="cls-6" x="851.61" y="734.97" width="0.34" height="10.8"/><rect class="cls-6" x="851.61" y="772.71" width="0.34" height="12.13"/><rect class="cls-6" x="869.75" y="778.46" width="6.18" height="29.85"/><rect class="cls-6" x="872.84" y="768.13" width="0.34" height="10.8"/><rect class="cls-6" x="816.17" y="766.07" width="6.18" height="29.85"/><rect class="cls-6" x="819.26" y="755.73" width="0.34" height="10.8"/><rect class="cls-6" x="819.26" y="793.47" width="0.34" height="12.13"/><rect class="cls-6" x="783.82" y="775.16" width="6.18" height="29.85"/><rect class="cls-6" x="786.91" y="764.82" width="0.34" height="10.8"/><rect class="cls-6" x="752.48" y="745.44" width="6.18" height="29.85"/><rect class="cls-6" x="755.57" y="735.1" width="0.34" height="10.8"/><rect class="cls-6" x="755.57" y="772.84" width="0.34" height="12.13"/><rect class="cls-6" x="720.41" y="758.24" width="6.18" height="29.85"/><rect class="cls-6" x="723.5" y="747.91" width="0.34" height="10.8"/><rect class="cls-6" x="723.5" y="785.65" width="0.34" height="12.13"/><rect class="cls-6" x="1167.81" y="789.68" width="0.34" height="10.8"/><rect class="cls-6" x="1148.09" y="791.37" width="0.34" height="10.8"/><rect class="cls-6" x="1009.32" y="749.45" width="6.18" height="19.74"/><rect class="cls-6" x="1012.41" y="739.12" width="0.34" height="10.8"/><rect class="cls-6" x="1012.41" y="766.75" width="0.34" height="12.13"/><rect class="cls-6" x="946.53" y="726.55" width="6.18" height="19.74"/><rect class="cls-6" x="949.62" y="716.22" width="0.34" height="10.8"/><rect class="cls-6" x="949.62" y="743.85" width="0.34" height="12.13"/><rect class="cls-6" x="858.91" y="768.92" width="6.18" height="19.74"/><rect class="cls-6" x="862" y="758.58" width="0.34" height="10.8"/><rect class="cls-6" x="862" y="786.21" width="0.34" height="12.13"/><rect class="cls-6" x="797.97" y="795.51" width="0.34" height="10.8"/><rect class="cls-6" x="762.59" y="767.11" width="6.18" height="19.74"/><rect class="cls-6" x="765.68" y="756.78" width="0.34" height="10.8"/><rect class="cls-6" x="765.68" y="784.41" width="0.34" height="12.13"/><rect class="cls-6" x="709.69" y="780.54" width="6.18" height="19.74"/><rect class="cls-6" x="712.77" y="770.2" width="0.34" height="10.8"/><rect class="cls-6" x="712.77" y="797.83" width="0.34" height="12.13"/><rect class="cls-6" x="676.71" y="665.68" width="6.18" height="19.74"/><rect class="cls-6" x="679.79" y="655.35" width="0.34" height="10.8"/><rect class="cls-6" x="679.79" y="682.98" width="0.34" height="12.13"/></g></g><rect class="cls-7" x="146.39" y="106.94" width="16.27" height="162.69"/><rect class="cls-7" x="154.08" y="70.85" width="0.9" height="37.31"/><rect class="cls-7" x="154.08" y="260.82" width="0.9" height="49.69"/><path class="cls-7" d="M415.3,270.24h-17.5V106.32h17.5ZM399,269h15V107.56H399Z"/><rect class="cls-7" x="406.09" y="70.85" width="0.9" height="36.12"/><rect class="cls-7" x="406.09" y="269.67" width="0.9" height="40.84"/><rect class="cls-7" x="512" y="2.24" width="16.27" height="162.69"/><rect class="cls-7" x="519.68" y="-33.85" width="0.9" height="37.31"/><rect class="cls-7" x="519.68" y="156.12" width="0.9" height="49.69"/><path class="cls-7" d="M559.2,57.87H541.7V-106.06h17.5Zm-16.27-1.24h15V-104.82h-15Z"/><rect class="cls-7" x="550" y="57.11" width="0.9" height="41.02"/><path class="cls-7" d="M49.84,295H32.34V179.68h17.5Zm-16.27-1.24h15V180.92h-15Z"/><rect class="cls-7" x="40.18" y="144.21" width="0.91" height="35.62"/><rect class="cls-7" x="40.18" y="294.21" width="0.91" height="35.46"/><rect class="cls-7" x="426.96" y="28.83" width="16.27" height="114.11"/><rect class="cls-7" x="434.18" y="-7.26" width="0.9" height="37.31"/><rect class="cls-7" x="434.18" y="128.51" width="0.9" height="49.69"/><path class="cls-7" d="M191.82,181.09h-17.5V65.75h17.5Zm-16.27-1.23h15V67h-15Z"/><rect class="cls-7" x="182.17" y="30.28" width="0.91" height="35.79"/><rect class="cls-7" x="182.17" y="180.76" width="0.91" height="34.98"/><rect class="cls-7" x="317.81" y="58.86" width="16.27" height="114.11"/><rect class="cls-7" x="325.04" y="22.78" width="0.91" height="37.31"/><rect class="cls-7" x="325.04" y="158.54" width="0.91" height="49.69"/><path class="cls-7" d="M20,224.34H2.46V144.49H20ZM3.7,223.1h15V145.73H3.7Z"/><rect class="cls-7" x="10.31" y="117.89" width="0.9" height="27.05"/><rect class="cls-7" x="10.31" y="224.29" width="0.9" height="24.94"/><path class="cls-7" d="M249.5,256.29H232V176.44H249.5Zm-16.27-1.24h15V177.68h-15Z"/><rect class="cls-7" x="239.84" y="149.85" width="0.91" height="27.36"/><rect class="cls-7" x="239.84" y="255.62" width="0.91" height="25.56"/><path class="cls-7" d="M134.88,153.06h-17.5V73.21h17.5Zm-16.27-1.23h15V74.45h-15Z"/><rect class="cls-7" x="125.23" y="46.62" width="0.91" height="27.01"/><rect class="cls-7" x="125.23" y="152.36" width="0.91" height="25.6"/><rect class="cls-7" x="62.09" y="161.15" width="16.27" height="78.61"/><rect class="cls-7" x="69.32" y="133.93" width="0.91" height="28.44"/><rect class="cls-7" x="69.32" y="233.32" width="0.91" height="31.95"/><rect class="cls-7" x="203.19" y="128.5" width="16.27" height="78.61"/><rect class="cls-7" x="210.41" y="101.29" width="0.91" height="28.43"/><rect class="cls-7" x="210.41" y="200.68" width="0.91" height="31.95"/><path class="cls-7" d="M305.26,231.67h-17.5V151.83h17.5ZM289,230.44h15V153.06H289Z"/><rect class="cls-7" x="295.6" y="125.23" width="0.91" height="27.13"/><rect class="cls-7" x="295.6" y="231.08" width="0.91" height="25.48"/><rect class="cls-7" x="370.9" y="74.18" width="16.27" height="78.61"/><rect class="cls-7" x="378.13" y="46.97" width="0.91" height="28.43"/><rect class="cls-7" x="378.13" y="146.36" width="0.91" height="31.95"/><path class="cls-7" d="M472.24,187.13h-17.5V107.29h17.5ZM456,185.9h15V108.52H456Z"/><rect class="cls-7" x="462.58" y="80.69" width="0.91" height="26.75"/><rect class="cls-7" x="462.58" y="186.78" width="0.91" height="25.24"/><path class="cls-7" d="M107.52,188.62H90V135.39h17.51Zm-16.27-1.24h15V136.63h-15Z"/><rect class="cls-7" x="97.87" y="108.79" width="0.9" height="26.74"/><rect class="cls-7" x="97.87" y="188.01" width="0.9" height="25.49"/><rect class="cls-7" x="259.24" y="233.25" width="16.27" height="51.99"/><rect class="cls-7" x="266.47" y="206.03" width="0.9" height="28.44"/><rect class="cls-7" x="266.47" y="278.8" width="0.9" height="31.95"/><path class="cls-7" d="M361.17,183.87h-17.5V130.65h17.5Zm-16.27-1.23h15V131.88h-15Z"/><rect class="cls-7" x="351.51" y="104.05" width="0.91" height="27.16"/><rect class="cls-7" x="351.51" y="183.38" width="0.91" height="25.38"/><rect class="cls-7" x="483.6" y="166.61" width="16.27" height="51.99"/><rect class="cls-7" x="490.83" y="139.39" width="0.91" height="28.44"/><rect class="cls-7" x="490.83" y="212.16" width="0.91" height="31.95"/><rect class="cls-7" x="749.14" y="72.04" width="16.27" height="227.31"/><rect class="cls-7" x="756.82" y="23.57" width="0.91" height="49.69"/><path class="cls-7" d="M689.56,207.54h-17.5V43.61h17.5Zm-16.27-1.24h15V44.85h-15Z"/><rect class="cls-7" x="680.35" y="8.14" width="0.91" height="35.74"/><rect class="cls-7" x="680.35" y="207.04" width="0.91" height="40.76"/><rect class="cls-7" x="800.46" y="47.82" width="16.27" height="162.69"/><rect class="cls-7" x="808.14" y="11.73" width="0.91" height="37.31"/><rect class="cls-7" x="808.14" y="201.71" width="0.91" height="49.69"/><rect class="cls-7" x="1158.37" y="-115.11" width="16.27" height="162.69"/><rect class="cls-7" x="1166.05" y="38.77" width="0.9" height="49.7"/><rect class="cls-7" x="696.93" y="95.77" width="16.27" height="162.68"/><rect class="cls-7" x="704.61" y="59.68" width="0.9" height="37.31"/><rect class="cls-7" x="704.61" y="249.65" width="0.9" height="49.69"/><path class="cls-7" d="M739.11,235.2h-17.5V119.85h17.5ZM722.84,234h15V121.09h-15Z"/><rect class="cls-7" x="729.46" y="84.38" width="0.9" height="35.76"/><rect class="cls-7" x="729.46" y="234.83" width="0.9" height="35.02"/><rect class="cls-7" x="645.91" y="-1.99" width="16.27" height="114.11"/><rect class="cls-7" x="653.14" y="97.69" width="0.9" height="49.69"/><rect class="cls-7" x="952.95" y="-13.93" width="16.27" height="114.11"/><rect class="cls-7" x="960.18" y="85.75" width="0.91" height="49.69"/><path class="cls-7" d="M1124.83,96.92h-17.5V-18.43h17.5Zm-16.27-1.23h15V-17.19h-15Z"/><rect class="cls-7" x="1115.17" y="96.52" width="0.91" height="35.05"/><path class="cls-7" d="M638.4,160.8h-17.5V63.21h17.5Zm-16.27-1.24h15V64.44h-15Z"/><rect class="cls-7" x="628.74" y="36.61" width="0.9" height="27.34"/><rect class="cls-7" x="628.74" y="160.43" width="0.9" height="25.27"/><path class="cls-7" d="M942.47,152.69H925V55.09h17.5Zm-16.27-1.23h15V56.33h-15Z"/><rect class="cls-7" x="932.82" y="28.49" width="0.91" height="27.12"/><rect class="cls-7" x="932.82" y="152.25" width="0.91" height="25.33"/><rect class="cls-7" x="978.24" y="91.37" width="16.27" height="96.36"/><rect class="cls-7" x="985.47" y="64.16" width="0.91" height="28.43"/><rect class="cls-7" x="985.47" y="181.29" width="0.91" height="31.95"/><rect class="cls-7" x="1081.17" y="69.93" width="16.27" height="96.36"/><rect class="cls-7" x="1088.41" y="42.71" width="0.9" height="28.43"/><rect class="cls-7" x="1088.41" y="159.85" width="0.9" height="31.95"/><rect class="cls-7" x="1133.08" y="-63.91" width="16.27" height="96.36"/><rect class="cls-7" x="1140.31" y="26.01" width="0.91" height="31.95"/><path class="cls-7" d="M613.55,219.37H596v-97.6h17.5Zm-16.27-1.23h15V123h-15Z"/><rect class="cls-7" x="603.89" y="95.18" width="0.9" height="26.81"/><rect class="cls-7" x="603.89" y="218.62" width="0.9" height="25.64"/><rect class="cls-7" x="571.23" y="86.9" width="16.27" height="78.61"/><rect class="cls-7" x="578.45" y="59.68" width="0.9" height="28.44"/><rect class="cls-7" x="578.45" y="159.07" width="0.9" height="31.95"/><path class="cls-7" d="M791,171.49h-17.5V91.64H791Zm-16.27-1.23h15V92.88h-15Z"/><rect class="cls-7" x="781.36" y="65.05" width="0.91" height="26.84"/><path class="cls-7" d="M781.36,170.75v25.63h.91V170.65A6.13,6.13,0,0,1,781.36,170.75Z"/><path class="cls-7" d="M917.62,184.78H900.11V104.93h17.51Zm-16.27-1.23h15V106.17h-15Z"/><rect class="cls-7" x="907.96" y="78.34" width="0.91" height="27.29"/><rect class="cls-7" x="907.96" y="184.2" width="0.91" height="25.47"/><path class="cls-7" d="M1073.65,232.68h-17.5V152.83h17.5Zm-16.27-1.23h15V154.07h-15Z"/><rect class="cls-7" x="1063.99" y="126.24" width="0.9" height="26.93"/><rect class="cls-7" x="1063.99" y="232.2" width="0.9" height="25.37"/><path class="cls-7" d="M1200.84,71.17h-17.5V-8.68h17.5Zm-16.27-1.24h15V-7.45h-15Z"/><rect class="cls-7" x="1191.18" y="70.28" width="0.9" height="25.78"/><path class="cls-7" d="M841.3,226.47H823.8V146.62h17.5ZM825,225.23h15V147.86H825Z"/><rect class="cls-7" x="831.64" y="120.03" width="0.91" height="26.66"/><rect class="cls-7" x="831.64" y="226.19" width="0.91" height="25.17"/><path class="cls-7" d="M866.59,242.44h-17.5V189.22h17.5Zm-16.27-1.23h15V190.45h-15Z"/><rect class="cls-7" x="856.94" y="162.62" width="0.9" height="27.14"/><rect class="cls-7" x="856.94" y="242.24" width="0.9" height="25.09"/><path class="cls-7" d="M1048.21,271.73h-17.5V218.5h17.5Zm-16.27-1.23h15V219.74h-15Z"/><rect class="cls-7" x="1038.55" y="191.9" width="0.91" height="27.18"/><rect class="cls-7" x="1038.55" y="271.1" width="0.91" height="25.51"/><rect class="cls-7" x="876.33" y="151.7" width="16.27" height="51.99"/><rect class="cls-7" x="883.56" y="124.48" width="0.9" height="28.44"/><rect class="cls-7" x="883.56" y="197.25" width="0.9" height="31.95"/><rect class="cls-7" x="1004.11" y="176.57" width="16.27" height="51.99"/><rect class="cls-7" x="1011.34" y="149.35" width="0.9" height="28.43"/><rect class="cls-7" x="1011.34" y="222.12" width="0.9" height="31.94"/><rect class="cls-7" x="4.43" y="699.96" width="19.04" height="131.74"/><rect class="cls-7" x="13.41" y="670.74" width="1.06" height="30.21"/><rect class="cls-7" x="423.19" y="568.02" width="19.03" height="131.74"/><rect class="cls-7" x="432.18" y="538.8" width="1.06" height="30.21"/><rect class="cls-7" x="432.18" y="692.63" width="1.06" height="40.24"/><rect class="cls-7" x="838.49" y="620.92" width="19.03" height="131.74"/><rect class="cls-7" x="847.48" y="591.7" width="1.06" height="30.21"/><rect class="cls-7" x="847.48" y="745.53" width="1.06" height="40.24"/><rect class="cls-7" x="1039.91" y="690.61" width="19.03" height="131.74"/><rect class="cls-7" x="1048.9" y="661.39" width="1.06" height="30.21"/><rect class="cls-7" x="671.33" y="518.64" width="19.03" height="131.74"/><rect class="cls-7" x="680.32" y="489.41" width="1.06" height="30.21"/><rect class="cls-7" x="680.32" y="643.25" width="1.06" height="40.24"/><rect class="cls-7" x="541.72" y="555.75" width="19.04" height="131.74"/><rect class="cls-7" x="550.71" y="526.53" width="1.06" height="30.21"/><rect class="cls-7" x="550.71" y="680.36" width="1.06" height="40.24"/><path class="cls-7" d="M826.23,660.74H805.75V528h20.48Zm-19-1h17.59V529H807.2Z"/><rect class="cls-7" x="815.46" y="499.28" width="1.06" height="29.49"/><rect class="cls-7" x="815.46" y="660.27" width="1.06" height="33.08"/><rect class="cls-7" x="182.84" y="649.95" width="19.04" height="92.4"/><rect class="cls-7" x="191.3" y="620.73" width="1.06" height="30.21"/><rect class="cls-7" x="191.3" y="730.67" width="1.06" height="40.24"/><path class="cls-7" d="M926.94,842.92H906.46v-93.4h20.48Zm-19-1H925.5v-91.4H907.91Z"/><rect class="cls-7" x="915.64" y="720.8" width="1.06" height="28.85"/><path class="cls-7" d="M1093.06,750.66h-20.48v-93.4h20.48Zm-19-1h17.59v-91.4H1074Z"/><rect class="cls-7" x="1081.77" y="628.54" width="1.06" height="28.98"/><rect class="cls-7" x="1081.77" y="750.39" width="1.06" height="28.33"/><path class="cls-7" d="M384,739.72H363.47V646.31H384Zm-19-1h17.59V647.31H364.92Z"/><rect class="cls-7" x="372.65" y="617.59" width="1.06" height="28.93"/><rect class="cls-7" x="372.65" y="739.39" width="1.06" height="28.38"/><path class="cls-7" d="M658.9,574.38H638.42V481H658.9Zm-19-1h17.59V482H639.87Z"/><rect class="cls-7" x="647.6" y="452.25" width="1.06" height="29.27"/><rect class="cls-7" x="647.6" y="574.02" width="1.06" height="28.42"/><path class="cls-7" d="M170.59,784.88H150.11v-79h20.48Zm-19-1h17.59v-77H151.56Z"/><rect class="cls-7" x="159.29" y="684.31" width="1.06" height="21.96"/><rect class="cls-7" x="159.29" y="784.52" width="1.06" height="20.51"/><rect class="cls-7" x="212.44" y="735.22" width="19.04" height="78.03"/><rect class="cls-7" x="220.89" y="713.19" width="1.06" height="23.02"/><rect class="cls-7" x="332.87" y="717.86" width="19.04" height="78.03"/><rect class="cls-7" x="341.33" y="695.82" width="1.06" height="23.03"/><rect class="cls-7" x="341.33" y="790.67" width="1.06" height="25.87"/><rect class="cls-7" x="393.6" y="609.48" width="19.04" height="78.03"/><rect class="cls-7" x="402.06" y="587.44" width="1.06" height="23.03"/><rect class="cls-7" x="402.06" y="682.29" width="1.06" height="25.87"/><path class="cls-7" d="M141.51,810.87H121V746.21h20.48Zm-19-1h17.59V747.21H122.47Z"/><rect class="cls-7" x="130.21" y="724.67" width="1.06" height="22.1"/><path class="cls-7" d="M324.07,849.66H303.59V785h20.48Zm-19-1h17.59V786H305Z"/><rect class="cls-7" x="312.77" y="763.46" width="1.06" height="21.81"/><path class="cls-7" d="M892,785.68H871.51V721H892Zm-19-1h17.59V722H873Z"/><rect class="cls-7" x="880.69" y="699.49" width="1.06" height="21.91"/><rect class="cls-7" x="880.69" y="785.64" width="1.06" height="20.19"/><path class="cls-7" d="M1160.55,811.56h-20.48V746.9h20.48Zm-19-1h17.59V747.9h-17.59Z"/><rect class="cls-7" x="1149.25" y="725.36" width="1.06" height="22.16"/><path class="cls-7" d="M502.65,687.72H482.17V623.06h20.48Zm-19-1H501.2V624.06H483.61Z"/><rect class="cls-7" x="491.35" y="601.53" width="1.06" height="21.99"/><rect class="cls-7" x="491.35" y="687.27" width="1.06" height="20.61"/><path class="cls-7" d="M758.57,713.34H738.1V648.68h20.48Zm-19-1h17.59V649.68H739.54Z"/><rect class="cls-7" x="747.28" y="627.14" width="1.06" height="21.88"/><rect class="cls-7" x="747.28" y="712.77" width="1.06" height="20.72"/><path class="cls-7" d="M591.93,650.61H571.46V586h20.48Zm-19-1h17.59V587H572.9Z"/><rect class="cls-7" x="580.64" y="564.41" width="1.06" height="21.86"/><rect class="cls-7" x="580.64" y="650.27" width="1.06" height="20.5"/><rect class="cls-7" x="606.96" y="537.87" width="19.03" height="63.66"/><rect class="cls-7" x="615.42" y="515.83" width="1.06" height="23.03"/><rect class="cls-7" x="615.42" y="596.31" width="1.06" height="25.87"/><path class="cls-7" d="M472.88,718.86H452.4V654.2h20.48Zm-19-1h17.59V655.2H453.85Z"/><rect class="cls-7" x="461.59" y="632.67" width="1.06" height="21.73"/><rect class="cls-7" x="461.59" y="718.14" width="1.06" height="20.87"/><rect class="cls-7" x="773.08" y="617.35" width="19.03" height="63.66"/><rect class="cls-7" x="781.54" y="595.32" width="1.06" height="23.03"/><rect class="cls-7" x="781.54" y="675.8" width="1.06" height="25.87"/><path class="cls-7" d="M1026.44,728H1006V663.31h20.48Zm-19-1H1025V664.31h-17.59Z"/><rect class="cls-7" x="1015.14" y="641.77" width="1.06" height="21.88"/><rect class="cls-7" x="1015.14" y="727.39" width="1.06" height="20.73"/><rect class="cls-7" x="941.28" y="734.51" width="19.03" height="63.66"/><rect class="cls-7" x="949.73" y="712.48" width="1.06" height="23.03"/><rect class="cls-7" x="949.73" y="792.96" width="1.06" height="25.87"/><rect class="cls-7" x="1106.36" y="708.08" width="19.03" height="63.66"/><rect class="cls-7" x="1114.82" y="686.04" width="1.06" height="23.03"/><rect class="cls-7" x="1114.82" y="766.52" width="1.06" height="25.87"/><path class="cls-7" d="M52.22,844.62H31.74V780H52.22Zm-19-1H50.77V781H33.18Z"/><rect class="cls-7" x="40.92" y="758.43" width="1.06" height="21.59"/><rect class="cls-7" x="70.51" y="792.92" width="1.06" height="21.97"/><rect class="cls-7" x="93.2" y="784.08" width="19.04" height="42.1"/><rect class="cls-7" x="101.66" y="762.04" width="1.06" height="23.03"/><rect class="cls-7" x="251.17" y="782.17" width="1.06" height="23.03"/><rect class="cls-7" x="511.27" y="672.66" width="19.03" height="42.1"/><rect class="cls-7" x="519.73" y="650.62" width="1.06" height="23.03"/><rect class="cls-7" x="519.73" y="709.54" width="1.06" height="25.87"/><path class="cls-7" d="M724.49,666.42H704v-43.1h20.48Zm-19-1H723v-41.1H705.45Z"/><rect class="cls-7" x="713.19" y="601.78" width="1.06" height="21.86"/><rect class="cls-7" x="713.19" y="666.14" width="1.06" height="20.43"/><path class="cls-7" d="M994.43,756.76H973.95v-43.1h20.48Zm-19-1H993v-41.1H975.39Z"/><rect class="cls-7" x="983.13" y="692.12" width="1.06" height="21.65"/><rect class="cls-7" x="983.13" y="756.27" width="1.06" height="20.64"/><rect class="cls-7" x="1171.94" y="792.9" width="19.03" height="42.1"/><rect class="cls-7" x="1180.4" y="770.86" width="1.06" height="23.03"/><g class="cls-8"><rect class="cls-7" x="1056.41" y="280.93" width="13.17" height="184.07"/><rect class="cls-7" x="1062.63" y="241.67" width="0.73" height="40.24"/><path class="cls-7" d="M1117.83,257.91H1132V390.65h-14.17Zm13.17,1h-12.17V389.65H1131Z"/><rect class="cls-7" x="1124.55" y="229.19" width="0.73" height="28.94"/><rect class="cls-7" x="1124.55" y="390.25" width="0.73" height="33.01"/><rect class="cls-7" x="1014.85" y="261.32" width="13.18" height="131.74"/><rect class="cls-7" x="1021.07" y="232.09" width="0.73" height="30.21"/><rect class="cls-7" x="1021.07" y="385.93" width="0.73" height="40.24"/><rect class="cls-7" x="725.02" y="129.38" width="13.17" height="131.74"/><rect class="cls-7" x="731.24" y="100.15" width="0.73" height="30.21"/><rect class="cls-7" x="731.24" y="253.99" width="0.73" height="40.24"/><rect class="cls-7" x="437.58" y="182.28" width="13.17" height="131.74"/><rect class="cls-7" x="443.8" y="153.05" width="0.73" height="30.21"/><rect class="cls-7" x="443.8" y="306.89" width="0.73" height="40.24"/><rect class="cls-7" x="298.18" y="251.97" width="13.17" height="131.74"/><rect class="cls-7" x="304.4" y="222.75" width="0.73" height="30.21"/><rect class="cls-7" x="304.4" y="376.59" width="0.73" height="40.24"/><path class="cls-7" d="M93.6,251.47h14.17V384.21H93.6Zm13.17,1H94.6V383.21h12.17Z"/><rect class="cls-7" x="100.32" y="222.75" width="0.73" height="29.25"/><rect class="cls-7" x="100.32" y="383.75" width="0.73" height="33.07"/><rect class="cls-7" x="2.12" y="167.19" width="13.17" height="131.74"/><rect class="cls-7" x="8.34" y="137.96" width="0.73" height="30.21"/><rect class="cls-7" x="8.34" y="291.8" width="0.73" height="40.24"/><rect class="cls-7" x="553.28" y="79.99" width="13.17" height="131.74"/><rect class="cls-7" x="559.5" y="50.77" width="0.73" height="30.21"/><rect class="cls-7" x="559.5" y="204.61" width="0.73" height="40.24"/><rect class="cls-7" x="642.98" y="117.11" width="13.18" height="131.74"/><rect class="cls-7" x="649.2" y="87.88" width="0.73" height="30.21"/><rect class="cls-7" x="649.2" y="241.72" width="0.73" height="40.24"/><path class="cls-7" d="M459.24,89.36h14.17V222.1H459.24Zm13.17,1H460.24V221.1h12.17Z"/><rect class="cls-7" x="465.96" y="60.63" width="0.73" height="29.49"/><rect class="cls-7" x="465.96" y="221.63" width="0.73" height="33.08"/><rect class="cls-7" x="1098.69" y="300.15" width="13.17" height="131.74"/><rect class="cls-7" x="1104.91" y="270.92" width="0.73" height="30.21"/><rect class="cls-7" x="1104.91" y="424.76" width="0.73" height="40.24"/><path class="cls-7" d="M1077.7,319.65h14.17V413H1077.7Zm13.17,1H1078.7V412h12.17Z"/><rect class="cls-7" x="1084.79" y="290.92" width="0.73" height="28.96"/><rect class="cls-7" x="1084.79" y="412.75" width="0.73" height="28.36"/><rect class="cls-7" x="1140" y="220.98" width="13.17" height="92.4"/><rect class="cls-7" x="1146.58" y="191.76" width="0.73" height="30.21"/><rect class="cls-7" x="1146.58" y="301.7" width="0.73" height="40.24"/><rect class="cls-7" x="891.37" y="211.31" width="13.17" height="92.4"/><rect class="cls-7" x="897.95" y="182.09" width="0.73" height="30.21"/><rect class="cls-7" x="897.95" y="292.03" width="0.73" height="40.24"/><path class="cls-7" d="M389.54,310.88h14.17v93.4H389.54Zm13.17,1H390.54v91.4h12.17Z"/><rect class="cls-7" x="396.62" y="282.16" width="0.73" height="28.85"/><rect class="cls-7" x="396.62" y="403.63" width="0.73" height="28.71"/><rect class="cls-7" x="70.98" y="188.72" width="13.17" height="92.4"/><rect class="cls-7" x="77.57" y="159.5" width="0.73" height="30.21"/><rect class="cls-7" x="77.57" y="269.44" width="0.73" height="40.24"/><path class="cls-7" d="M274.56,218.62h14.17V312H274.56Zm13.17,1H275.56V311h12.17Z"/><rect class="cls-7" x="281.65" y="189.9" width="0.73" height="28.98"/><rect class="cls-7" x="281.65" y="311.75" width="0.73" height="28.33"/><rect class="cls-7" x="159.37" y="213.04" width="13.17" height="92.4"/><rect class="cls-7" x="165.95" y="183.82" width="0.73" height="30.21"/><rect class="cls-7" x="165.95" y="293.76" width="0.73" height="40.24"/><path class="cls-7" d="M765.35,207.67h14.17v93.41H765.35Zm13.17,1H766.35v91.41h12.17Z"/><rect class="cls-7" x="772.44" y="178.95" width="0.73" height="28.93"/><rect class="cls-7" x="772.44" y="300.75" width="0.73" height="28.38"/><path class="cls-7" d="M575.05,42.33h14.17v93.4H575.05Zm13.17,1H576.05v91.4h12.17Z"/><rect class="cls-7" x="582.14" y="13.61" width="0.73" height="29.27"/><rect class="cls-7" x="582.14" y="135.38" width="0.73" height="28.42"/><path class="cls-7" d="M1159.26,273.78h14.17v79h-14.17Zm13.17,1h-12.17v77h12.17Z"/><rect class="cls-7" x="1166.35" y="252.24" width="0.73" height="22.14"/><rect class="cls-7" x="1166.35" y="352.5" width="0.73" height="20.46"/><path class="cls-7" d="M913,267.2H927.2v79H913Zm13.17,1H914v77H926.2Z"/><rect class="cls-7" x="920.11" y="245.67" width="0.73" height="21.96"/><rect class="cls-7" x="920.11" y="345.88" width="0.73" height="20.51"/><rect class="cls-7" x="870.88" y="296.58" width="13.17" height="78.03"/><rect class="cls-7" x="877.47" y="274.55" width="0.73" height="23.02"/><rect class="cls-7" x="877.47" y="369.4" width="0.73" height="25.87"/><rect class="cls-7" x="787.53" y="279.22" width="13.17" height="78.03"/><rect class="cls-7" x="794.12" y="257.18" width="0.73" height="23.03"/><rect class="cls-7" x="794.12" y="352.03" width="0.73" height="25.87"/><rect class="cls-7" x="745.5" y="170.83" width="13.18" height="78.03"/><rect class="cls-7" x="752.09" y="148.8" width="0.73" height="23.03"/><rect class="cls-7" x="752.09" y="243.65" width="0.73" height="25.87"/><path class="cls-7" d="M1179.38,321.2h14.17v79h-14.17Zm13.17,1h-12.17v77h12.17Z"/><rect class="cls-7" x="1186.47" y="299.66" width="0.73" height="21.71"/><rect class="cls-7" x="1186.47" y="399.63" width="0.73" height="20.76"/><path class="cls-7" d="M1035.67,296.8h14.17v64.66h-14.17Zm13.17,1h-12.17v62.66h12.17Z"/><rect class="cls-7" x="1042.76" y="275.27" width="0.73" height="21.74"/><path class="cls-7" d="M1043.49,360.86v20.76h-.73V360.78A4.93,4.93,0,0,0,1043.49,360.86Z"/><path class="cls-7" d="M933.15,307.56h14.18v64.66H933.15Zm13.18,1H934.15v62.66h12.18Z"/><rect class="cls-7" x="940.24" y="286.03" width="0.73" height="22.1"/><rect class="cls-7" x="940.24" y="371.75" width="0.73" height="20.63"/><path class="cls-7" d="M806.8,346.35H821V411H806.8Zm13.17,1H807.8V410H820Z"/><rect class="cls-7" x="813.88" y="324.82" width="0.73" height="21.81"/><rect class="cls-7" x="813.88" y="410.63" width="0.73" height="20.54"/><path class="cls-7" d="M413.73,282.38H427.9V347H413.73Zm13.17,1H414.73V346H426.9Z"/><rect class="cls-7" x="420.82" y="260.84" width="0.73" height="21.91"/><rect class="cls-7" x="420.82" y="347" width="0.73" height="20.19"/><path class="cls-7" d="M227.85,308.26H242v64.66H227.85Zm13.18,1H228.85v62.66H241Z"/><rect class="cls-7" x="234.94" y="286.72" width="0.73" height="22.16"/><rect class="cls-7" x="234.94" y="372.38" width="0.73" height="20.69"/><path class="cls-7" d="M683.2,184.42h14.17v64.66H683.2Zm13.17,1H684.2v62.66h12.17Z"/><rect class="cls-7" x="690.29" y="162.88" width="0.73" height="21.99"/><rect class="cls-7" x="690.29" y="248.63" width="0.73" height="20.61"/><path class="cls-7" d="M506.07,210h14.17V274.7H506.07Zm13.17,1H507.07V273.7h12.17Z"/><rect class="cls-7" x="513.15" y="188.5" width="0.73" height="21.88"/><rect class="cls-7" x="513.15" y="274.13" width="0.73" height="20.72"/><path class="cls-7" d="M621.4,147.31h14.17V212H621.4Zm13.17,1H622.4V211h12.17Z"/><rect class="cls-7" x="628.49" y="125.77" width="0.73" height="21.86"/><rect class="cls-7" x="628.49" y="211.63" width="0.73" height="20.5"/><rect class="cls-7" x="597.83" y="99.23" width="13.17" height="63.66"/><rect class="cls-7" x="604.42" y="77.19" width="0.73" height="23.03"/><rect class="cls-7" x="604.42" y="157.67" width="0.73" height="25.87"/><path class="cls-7" d="M703.8,215.56H718v64.66H703.8Zm13.17,1H704.8v62.66H717Z"/><rect class="cls-7" x="710.89" y="194.02" width="0.73" height="21.73"/><rect class="cls-7" x="710.89" y="279.5" width="0.73" height="20.87"/><rect class="cls-7" x="482.85" y="178.71" width="13.17" height="63.66"/><rect class="cls-7" x="489.44" y="156.68" width="0.73" height="23.03"/><rect class="cls-7" x="489.44" y="237.16" width="0.73" height="25.87"/><path class="cls-7" d="M320.67,224.66h14.17v64.66H320.67Zm13.17,1H321.67v62.66h12.17Z"/><rect class="cls-7" x="327.76" y="203.13" width="0.73" height="21.88"/><rect class="cls-7" x="327.76" y="288.75" width="0.73" height="20.73"/><rect class="cls-7" x="366.44" y="295.87" width="13.17" height="63.66"/><rect class="cls-7" x="373.03" y="273.83" width="0.73" height="23.03"/><rect class="cls-7" x="373.03" y="354.32" width="0.73" height="25.87"/><rect class="cls-7" x="252.19" y="269.44" width="13.17" height="63.66"/><rect class="cls-7" x="258.77" y="247.4" width="0.73" height="23.03"/><rect class="cls-7" x="258.77" y="327.88" width="0.73" height="25.87"/><path class="cls-7" d="M182.7,288.32h14.17V353H182.7Zm13.17,1H183.7V352h12.17Z"/><rect class="cls-7" x="189.79" y="266.79" width="0.73" height="21.97"/><rect class="cls-7" x="189.79" y="352.5" width="0.73" height="20.63"/><rect class="cls-7" x="116.37" y="225.45" width="13.17" height="63.66"/><rect class="cls-7" x="122.96" y="203.41" width="0.73" height="23.03"/><rect class="cls-7" x="122.96" y="283.89" width="0.73" height="25.87"/><path class="cls-7" d="M47.49,252.25H61.66v64.66H47.49Zm13.17,1H48.49v62.66H60.66Z"/><rect class="cls-7" x="54.58" y="230.72" width="0.73" height="21.66"/><rect class="cls-7" x="54.58" y="316.63" width="0.73" height="20.44"/><path class="cls-7" d="M994.95,341.32h14.17V406H994.95Zm13.17,1H995.95V405h12.17Z"/><rect class="cls-7" x="1002.04" y="319.79" width="0.73" height="21.59"/><rect class="cls-7" x="1002.04" y="405.75" width="0.73" height="20.38"/><path class="cls-7" d="M974.47,375.82h14.17v43.1H974.47Zm13.17,1H975.47v41.1h12.17Z"/><rect class="cls-7" x="981.55" y="354.28" width="0.73" height="21.97"/><rect class="cls-7" x="981.55" y="418.75" width="0.73" height="20.32"/><path class="cls-7" d="M827.4,399.53h14.17v43.1H827.4Zm13.17,1H828.4v41.1h12.17Z"/><rect class="cls-7" x="834.48" y="377.99" width="0.73" height="22.01"/><rect class="cls-7" x="834.48" y="442.13" width="0.73" height="20.66"/><rect class="cls-7" x="953.41" y="345.43" width="13.18" height="42.1"/><rect class="cls-7" x="960" y="323.4" width="0.73" height="23.03"/><rect class="cls-7" x="960" y="382.32" width="0.73" height="25.87"/><rect class="cls-7" x="849.93" y="365.57" width="13.17" height="42.1"/><rect class="cls-7" x="856.52" y="343.53" width="0.73" height="23.03"/><rect class="cls-7" x="856.52" y="402.46" width="0.73" height="25.87"/><rect class="cls-7" x="664.06" y="234.01" width="13.17" height="42.1"/><rect class="cls-7" x="670.65" y="211.98" width="0.73" height="23.03"/><rect class="cls-7" x="670.65" y="270.9" width="0.73" height="25.87"/><path class="cls-7" d="M529.66,184.68h14.17v43.1H529.66Zm13.17,1H530.66v41.1h12.17Z"/><rect class="cls-7" x="536.75" y="163.14" width="0.73" height="21.86"/><rect class="cls-7" x="536.75" y="227.5" width="0.73" height="20.43"/><path class="cls-7" d="M342.83,275H357v43.1H342.83ZM356,276H343.83v41.1H356Z"/><rect class="cls-7" x="349.92" y="253.47" width="0.73" height="21.65"/><rect class="cls-7" x="349.92" y="317.63" width="0.73" height="20.64"/><rect class="cls-7" x="206.8" y="354.26" width="13.17" height="42.1"/><rect class="cls-7" x="213.38" y="332.22" width="0.73" height="23.03"/><rect class="cls-7" x="213.38" y="391.14" width="0.73" height="25.87"/><path class="cls-7" d="M137.43,271.17H151.6v43.1H137.43Zm13.17,1H138.43v41.1H150.6Z"/><rect class="cls-7" x="144.52" y="249.63" width="0.73" height="21.99"/><rect class="cls-7" x="144.52" y="313.88" width="0.73" height="20.55"/><rect class="cls-7" x="25.11" y="300.29" width="13.17" height="42.1"/><rect class="cls-7" x="31.7" y="278.26" width="0.73" height="23.03"/><rect class="cls-7" x="31.7" y="337.18" width="0.73" height="25.87"/></g><polygon class="cls-6" points="-375.17 884.9 -376.27 883.88 -268.87 766.46 -268.38 766.65 -148.85 813.82 -41.17 753.05 16.62 766.68 38.77 794.46 176.75 727.04 248.48 656.84 275.42 503.33 362.79 666.02 376.45 766.6 458.36 766.6 501.78 692.83 596.4 692.83 596.57 692.92 688.42 743.78 825.79 588.57 826.3 589.5 902.78 728.28 985.69 709.7 1036.33 636.47 1142.62 681.73 1244.06 561.66 1321.51 646.63 1432.43 645.16 1467.24 486.18 1603.95 703.99 1602.68 704.79 1467.92 490.08 1433.64 646.65 1433.05 646.65 1320.86 648.14 1244.1 563.93 1143.05 683.54 1036.87 638.33 986.59 711.04 986.3 711.1 902.01 729.99 901.74 729.5 825.5 591.16 688.75 745.67 596.01 694.33 502.64 694.33 459.22 768.1 375.14 768.1 361.32 666.36 276.15 507.85 249.88 657.57 249.7 657.74 177.63 728.28 177.52 728.34 38.35 796.34 15.78 768.02 -40.94 754.65 -148.73 815.48 -149.07 815.35 -268.45 768.24 -375.17 884.9"/><path class="cls-9" d="M358.71,681.87c-.1-.1-.19-.22-.29-.33L257.54,811.73l-44.71-54.79a6,6,0,0,1-1,1l45.7,56L359.4,682.46A6.44,6.44,0,0,1,358.71,681.87Z"/><path class="cls-9" d="M569.91,641.46l-56.45-42.73-.56-.42L419.68,731.11l-43.08-52.4a6,6,0,0,1-.46,1.55l43.63,53.06L513.2,600.22l55.94,42.35A7,7,0,0,1,569.91,641.46Z"/><path class="cls-9" d="M1135.51,708.49l-94-29.26-.2-.06-117.12,35L860.29,615l-55.16-82.46a6,6,0,0,1-.95,1l55,82.2,64.19,99.63.27.42,117.69-35.2,94,29.27A7.74,7.74,0,0,1,1135.51,708.49Z"/><path class="cls-9" d="M1325.12,455.31l-39.85-18.15L1216.2,613.06l-62.71,89.26a6.09,6.09,0,0,1,.88,1.08l63-89.63,0-.07L1286,439l38.52,17.54A6.65,6.65,0,0,1,1325.12,455.31Z"/><path class="cls-9" d="M788.21,519.4l-128.13-35-.54-.15-74.7,153.09a6.68,6.68,0,0,1,1.12.76l74.3-152.26,127.08,34.71A6.78,6.78,0,0,1,788.21,519.4Z"/><path class="cls-9" d="M194.68,742.78c.1-.16.21-.31.31-.46l-68.09-47.19L41.45,817.81l1.1.77L127.24,697l67.14,46.5Z"/><circle class="cls-9" cx="126.91" cy="695.13" r="11.14"/><path class="cls-9" d="M204.85,761.12A12.14,12.14,0,1,1,217,749,12.16,12.16,0,0,1,204.85,761.12Zm0-22.28A10.13,10.13,0,1,0,215,749,10.14,10.14,0,0,0,204.85,738.85Z"/><path class="cls-9" d="M366.65,685.92a11.65,11.65,0,1,1,11.65-11.65A11.67,11.67,0,0,1,366.65,685.92Zm0-21.37a9.72,9.72,0,1,0,9.72,9.72A9.73,9.73,0,0,0,366.65,664.55Z"/><path class="cls-9" d="M579.59,659.23a11.65,11.65,0,1,1,11.65-11.65A11.67,11.67,0,0,1,579.59,659.23Zm0-21.37a9.72,9.72,0,1,0,9.72,9.72A9.73,9.73,0,0,0,579.59,637.86Z"/><path class="cls-9" d="M797.07,537.12a11.65,11.65,0,1,1,11.65-11.65A11.67,11.67,0,0,1,797.07,537.12Zm0-21.37a9.72,9.72,0,1,0,9.72,9.72A9.73,9.73,0,0,0,797.07,515.75Z"/><path class="cls-9" d="M1146.2,721.76a11.65,11.65,0,1,1,11.65-11.65A11.66,11.66,0,0,1,1146.2,721.76Zm0-21.37a9.72,9.72,0,1,0,9.72,9.72A9.73,9.73,0,0,0,1146.2,700.39Z"/><circle class="cls-9" cx="419.68" cy="731.11" r="8.6"/><circle class="cls-9" cx="513.05" cy="600.01" r="8.6"/><circle class="cls-9" cx="659.9" cy="486.31" r="8.6"/><circle class="cls-9" cx="923.91" cy="714.99" r="8.6"/><circle class="cls-9" cx="1043.07" cy="679.11" r="10.39"/><g class="cls-10"><path class="cls-9" d="M1185.9,467.05l49.75-61.36.49-.6,136.44,119,32.68-68.26a6.72,6.72,0,0,0,.92,1.56l-33.1,69.13L1236.32,407.24,1187,468A7.8,7.8,0,0,0,1185.9,467.05Z"/><path class="cls-9" d="M591.09,690.65l94-56.78.2-.12,136.22,6.68,42.75-124.54L902,411.84a6.54,6.54,0,0,0,1.29.83L865.69,516.39,822.75,641.46l-.18.53-136.89-6.72-94.06,56.81A8.37,8.37,0,0,0,591.09,690.65Z"/><path class="cls-9" d="M318.1,467l38.32-30.3L478.2,608.81l91.76,80a6.89,6.89,0,0,0-.67,1.41l-92.14-80.29-.07-.06-121-171-37,29.28A7.71,7.71,0,0,0,318.1,467Z"/><path class="cls-9" d="M197.65,577.5l51.13-36.29,51.7-57.55a7.69,7.69,0,0,0,1.18.92l-51.82,57.7-51.5,36.57A7.21,7.21,0,0,0,197.65,577.5Z"/><path class="cls-9" d="M1.59,611.74l-81.93-24,.42-1.44,81.82,24A7.19,7.19,0,0,0,1.59,611.74Z"/><path class="cls-9" d="M18.3,603.17,69.74,497.92l105.68,77.49a7.22,7.22,0,0,0-.67,1.37L70.3,500.19,19.6,603.92A7.15,7.15,0,0,0,18.3,603.17Z"/><path class="cls-9" d="M916.84,393.11,1046.3,321l.54-.3,121.79,145.9a7.38,7.38,0,0,0-1,1.12L1046.49,322.6l-128.4,71.53A7.45,7.45,0,0,0,916.84,393.11Z"/><path class="cls-9" d="M1164.42,479.38a13,13,0,1,1,15.73,9.51A13,13,0,0,1,1164.42,479.38Zm2.09-.52a10.84,10.84,0,1,0,7.93-13.12A10.86,10.86,0,0,0,1166.52,478.86Z"/><path class="cls-9" d="M896.23,405.15A13,13,0,1,1,912,414.67,13,13,0,0,1,896.23,405.15Zm2.09-.52a10.84,10.84,0,1,0,7.93-13.12A10.85,10.85,0,0,0,898.33,404.64Z"/><path class="cls-9" d="M567.32,698.37A13,13,0,1,1,583,707.88,13,13,0,0,1,567.32,698.37Zm2.1-.52a10.84,10.84,0,1,0,7.93-13.12A10.85,10.85,0,0,0,569.41,697.85Z"/><path class="cls-9" d="M295.7,477.55a13,13,0,1,1,15.73,9.51A13,13,0,0,1,295.7,477.55Zm2.1-.52a10.84,10.84,0,1,0,7.93-13.12A10.86,10.86,0,0,0,297.8,477Z"/><path class="cls-9" d="M173.75,585a13,13,0,1,1,15.73,9.51A13,13,0,0,1,173.75,585Zm2.09-.52a10.84,10.84,0,1,0,7.93-13.12A10.85,10.85,0,0,0,175.84,584.53Z"/><path class="cls-9" d="M.4,617.11a13,13,0,1,1,15.73,9.51A13,13,0,0,1,.4,617.11Zm2.09-.52a10.84,10.84,0,1,0,7.93-13.12A10.86,10.86,0,0,0,2.49,616.6Z"/><circle class="cls-9" cx="1047" cy="323.01" r="9.59" transform="translate(-46.87 259.88) rotate(-13.84)"/><circle class="cls-9" cx="822.04" cy="641.21" r="9.59" transform="translate(-129.55 215.33) rotate(-13.84)"/><circle class="cls-9" cx="355.26" cy="441.43" r="9.59" transform="translate(-95.32 97.86) rotate(-13.85)"/><circle class="cls-9" cx="250.38" cy="539.96" r="9.59" transform="translate(-121.93 75.6) rotate(-13.84)"/><circle class="cls-9" cx="70.14" cy="501.81" r="9.59" transform="translate(-118.01 31.35) rotate(-13.84)"/><circle class="cls-9" cx="683.38" cy="634.15" r="11.59" transform="translate(-131.87 181.9) rotate(-13.84)"/><circle class="cls-9" cx="478.73" cy="606.78" r="11.59" transform="translate(-131.3 132.2) rotate(-13.85)"/></g><g class="cls-11"><path class="cls-9" d="M297.54,579.35l-66.81,76.51-.65.75L60.34,497.3l-45.2,86.18a8.69,8.69,0,0,0-1.11-2l45.78-87.28L229.94,653.84,296.14,578A10.17,10.17,0,0,0,297.54,579.35Z"/><path class="cls-9" d="M1072.38,320,948.91,388.53l-.26.14-174.73-15-60.79,158L659.75,663.63a8.42,8.42,0,0,0-1.62-1.13L711.33,531l61-158.68.26-.68L948.23,386.7l123.54-68.59A11.05,11.05,0,0,0,1072.38,320Z"/><path class="cls-9" d="M1412.65,620.19,1362,657.33,1213.6,430.45,1099.44,323.39a8.81,8.81,0,0,0,.92-1.78L1215,429.12l.08.08,147.4,225.37,49-35.89A9.67,9.67,0,0,0,1412.65,620.19Z"/><path class="cls-9" d="M639.81,687,470.06,773.6l-.71.36L319.71,580.75a9.7,9.7,0,0,0,1.36-1.4L469.89,771.52l168.36-85.88A9.58,9.58,0,0,0,639.81,687Z"/><path class="cls-9" d="M18.84,589.23A16.74,16.74,0,0,1,5.88,609,16.72,16.72,0,0,1-.93,576.27,16.74,16.74,0,0,1,18.84,589.23Zm-2.71.56A14,14,0,0,0-.37,579a13.94,13.94,0,1,0,5.68,27.3A14,14,0,0,0,16.12,589.79Z"/><path class="cls-9" d="M325.72,564.51a16.72,16.72,0,1,1-19.77-13A16.74,16.74,0,0,1,325.72,564.51Zm-2.72.57a13.94,13.94,0,1,0-10.81,16.49A14,14,0,0,0,323,565.08Z"/><path class="cls-9" d="M666.85,672.5a16.72,16.72,0,1,1-19.77-13A16.73,16.73,0,0,1,666.85,672.5Zm-2.72.56a13.94,13.94,0,1,0-10.81,16.49A14,14,0,0,0,664.14,673.06Z"/><path class="cls-9" d="M1103.29,311.18a16.72,16.72,0,1,1-19.77-13A16.74,16.74,0,0,1,1103.29,311.18Zm-2.72.56a13.94,13.94,0,1,0-10.81,16.49A14,14,0,0,0,1100.57,311.75Z"/><circle class="cls-9" cx="60.34" cy="497.3" r="12.34" transform="translate(-100.01 22.71) rotate(-11.75)"/><circle class="cls-9" cx="229.79" cy="654.16" r="12.34" transform="translate(-128.39 60.5) rotate(-11.75)"/><circle class="cls-9" cx="469.25" cy="770.97" r="12.33" transform="translate(-147.14 111.69) rotate(-11.75)"/><circle class="cls-9" cx="773.28" cy="372.65" r="12.34" transform="translate(-59.68 165.27) rotate(-11.75)"/><circle class="cls-9" cx="951.13" cy="388.25" r="14.9" transform="translate(-59.12 201.74) rotate(-11.75)"/><circle class="cls-9" cx="1212.82" cy="433.03" r="14.9" transform="translate(-62.78 256.13) rotate(-11.75)"/></g></g></g></svg>