<svg width="213" height="75" viewBox="0 0 213 75" fill="none" xmlns="http://www.w3.org/2000/svg">
<path d="M47.0312 35.1875C47.0312 34.3125 46.8958 33.5312 46.625 32.8438C46.375 32.1354 45.9062 31.5 45.2188 30.9375C44.5521 30.3542 43.6042 29.7917 42.375 29.25C41.1667 28.6875 39.6042 28.1042 37.6875 27.5C35.5625 26.8333 33.5833 26.0833 31.75 25.25C29.9167 24.4167 28.3021 23.4479 26.9062 22.3438C25.5312 21.2396 24.4583 19.9688 23.6875 18.5312C22.9167 17.0729 22.5312 15.3854 22.5312 13.4688C22.5312 11.5938 22.9271 9.88542 23.7188 8.34375C24.5312 6.80208 25.6771 5.47917 27.1562 4.375C28.6354 3.25 30.375 2.38542 32.375 1.78125C34.3958 1.17708 36.625 0.875 39.0625 0.875C42.4375 0.875 45.3542 1.48958 47.8125 2.71875C50.2917 3.94792 52.2083 5.61458 53.5625 7.71875C54.9167 9.82292 55.5938 12.1875 55.5938 14.8125H47.0312C47.0312 13.3958 46.7292 12.1458 46.125 11.0625C45.5417 9.97917 44.6458 9.125 43.4375 8.5C42.25 7.875 40.75 7.5625 38.9375 7.5625C37.1875 7.5625 35.7292 7.82292 34.5625 8.34375C33.4167 8.86458 32.5521 9.57292 31.9688 10.4688C31.4062 11.3646 31.125 12.3646 31.125 13.4688C31.125 14.3021 31.3229 15.0521 31.7188 15.7188C32.1146 16.3646 32.7083 16.9792 33.5 17.5625C34.2917 18.125 35.2708 18.6562 36.4375 19.1562C37.625 19.6354 39 20.1146 40.5625 20.5938C43.0625 21.3438 45.25 22.1771 47.125 23.0938C49.0208 24.0104 50.5938 25.0521 51.8438 26.2188C53.1146 27.3854 54.0625 28.6979 54.6875 30.1562C55.3333 31.6146 55.6562 33.2708 55.6562 35.125C55.6562 37.0833 55.2708 38.8333 54.5 40.375C53.7292 41.9167 52.625 43.2292 51.1875 44.3125C49.75 45.3958 48.0208 46.2188 46 46.7812C44 47.3438 41.7604 47.625 39.2812 47.625C37.0729 47.625 34.8854 47.3333 32.7188 46.75C30.5729 46.1458 28.625 45.25 26.875 44.0625C25.125 42.8542 23.7292 41.3333 22.6875 39.5C21.6458 37.6458 21.125 35.4792 21.125 33H29.75C29.75 34.4375 29.9792 35.6667 30.4375 36.6875C30.9167 37.6875 31.5833 38.5104 32.4375 39.1562C33.3125 39.7812 34.3333 40.2396 35.5 40.5312C36.6667 40.8229 37.9271 40.9688 39.2812 40.9688C41.0312 40.9688 42.4688 40.7292 43.5938 40.25C44.7396 39.75 45.5938 39.0625 46.1562 38.1875C46.7396 37.3125 47.0312 36.3125 47.0312 35.1875Z" fill="#FFC83D"/>
<path d="M66.0312 1.5H73.4688L85.9062 35.75L98.3125 1.5H105.781L88.875 47H82.9062L66.0312 1.5ZM62.2812 1.5H69.5625L70.875 32.9688V47H62.2812V1.5ZM102.219 1.5H109.531V47H100.938V32.9688L102.219 1.5Z" fill="#FFC83D"/>
<path d="M126.875 1.5V47H118.281V1.5H126.875ZM154.188 1.5L135.938 23.6875L125.5 34.8438L123.969 26.5L131.219 17.0938L143.656 1.5H154.188ZM144.625 47L130.469 25.6875L136.625 20.125L154.844 47H144.625Z" fill="#FFC83D"/>
<path d="M176.281 26.7188H164.656L164.594 20.6562H174.562C176.271 20.6562 177.698 20.4167 178.844 19.9375C179.99 19.4583 180.854 18.7604 181.438 17.8438C182.042 16.9271 182.344 15.8125 182.344 14.5C182.344 13.0417 182.062 11.8542 181.5 10.9375C180.958 10.0208 180.104 9.35417 178.938 8.9375C177.771 8.5 176.292 8.28125 174.5 8.28125H167.438V47H158.844V1.5H174.5C177.083 1.5 179.385 1.75 181.406 2.25C183.448 2.72917 185.177 3.47917 186.594 4.5C188.01 5.52083 189.083 6.80208 189.812 8.34375C190.562 9.88542 190.938 11.7188 190.938 13.8438C190.938 15.7188 190.5 17.4479 189.625 19.0312C188.771 20.5938 187.448 21.8646 185.656 22.8438C183.885 23.8229 181.635 24.3854 178.906 24.5312L176.281 26.7188ZM175.906 47H162.125L165.719 40.25H175.906C177.615 40.25 179.021 39.9688 180.125 39.4062C181.25 38.8438 182.083 38.0729 182.625 37.0938C183.188 36.0938 183.469 34.9479 183.469 33.6562C183.469 32.2396 183.219 31.0104 182.719 29.9688C182.24 28.9271 181.469 28.125 180.406 27.5625C179.365 27 177.99 26.7188 176.281 26.7188H167.344L167.406 20.6562H178.781L180.75 23C183.375 23.0208 185.51 23.5417 187.156 24.5625C188.823 25.5833 190.052 26.8958 190.844 28.5C191.635 30.1042 192.031 31.8333 192.031 33.6875C192.031 36.6042 191.396 39.0521 190.125 41.0312C188.875 43.0104 187.042 44.5 184.625 45.5C182.229 46.5 179.323 47 175.906 47Z" fill="#FFC83D"/>
<path d="M5.84375 69.7852C5.84375 69.6211 5.81836 69.4746 5.76758 69.3457C5.7207 69.2129 5.63281 69.0938 5.50391 68.9883C5.37891 68.8789 5.20117 68.7734 4.9707 68.6719C4.74414 68.5664 4.45117 68.457 4.0918 68.3438C3.69336 68.2188 3.32227 68.0781 2.97852 67.9219C2.63477 67.7656 2.33203 67.584 2.07031 67.377C1.8125 67.1699 1.61133 66.9316 1.4668 66.6621C1.32227 66.3887 1.25 66.0723 1.25 65.7129C1.25 65.3613 1.32422 65.041 1.47266 64.752C1.625 64.4629 1.83984 64.2148 2.11719 64.0078C2.39453 63.7969 2.7207 63.6348 3.0957 63.5215C3.47461 63.4082 3.89258 63.3516 4.34961 63.3516C4.98242 63.3516 5.5293 63.4668 5.99023 63.6973C6.45508 63.9277 6.81445 64.2402 7.06836 64.6348C7.32227 65.0293 7.44922 65.4727 7.44922 65.9648H5.84375C5.84375 65.6992 5.78711 65.4648 5.67383 65.2617C5.56445 65.0586 5.39648 64.8984 5.16992 64.7812C4.94727 64.6641 4.66602 64.6055 4.32617 64.6055C3.99805 64.6055 3.72461 64.6543 3.50586 64.752C3.29102 64.8496 3.12891 64.9824 3.01953 65.1504C2.91406 65.3184 2.86133 65.5059 2.86133 65.7129C2.86133 65.8691 2.89844 66.0098 2.97266 66.1348C3.04688 66.2559 3.1582 66.3711 3.30664 66.4805C3.45508 66.5859 3.63867 66.6855 3.85742 66.7793C4.08008 66.8691 4.33789 66.959 4.63086 67.0488C5.09961 67.1895 5.50977 67.3457 5.86133 67.5176C6.2168 67.6895 6.51172 67.8848 6.74609 68.1035C6.98438 68.3223 7.16211 68.5684 7.2793 68.8418C7.40039 69.1152 7.46094 69.4258 7.46094 69.7734C7.46094 70.1406 7.38867 70.4688 7.24414 70.7578C7.09961 71.0469 6.89258 71.293 6.62305 71.4961C6.35352 71.6992 6.0293 71.8535 5.65039 71.959C5.27539 72.0645 4.85547 72.1172 4.39062 72.1172C3.97656 72.1172 3.56641 72.0625 3.16016 71.9531C2.75781 71.8398 2.39258 71.6719 2.06445 71.4492C1.73633 71.2227 1.47461 70.9375 1.2793 70.5938C1.08398 70.2461 0.986328 69.8398 0.986328 69.375H2.60352C2.60352 69.6445 2.64648 69.875 2.73242 70.0664C2.82227 70.2539 2.94727 70.4082 3.10742 70.5293C3.27148 70.6465 3.46289 70.7324 3.68164 70.7871C3.90039 70.8418 4.13672 70.8691 4.39062 70.8691C4.71875 70.8691 4.98828 70.8242 5.19922 70.7344C5.41406 70.6406 5.57422 70.5117 5.67969 70.3477C5.78906 70.1836 5.84375 69.9961 5.84375 69.7852Z" fill="#FFC83D"/>
<path d="M10.2266 65.6602V72H8.67383V65.6602H10.2266ZM8.56836 64.002C8.56836 63.7715 8.64648 63.5801 8.80273 63.4277C8.96289 63.2754 9.17773 63.1992 9.44727 63.1992C9.7168 63.1992 9.92969 63.2754 10.0859 63.4277C10.2461 63.5801 10.3262 63.7715 10.3262 64.002C10.3262 64.2285 10.2461 64.418 10.0859 64.5703C9.92969 64.7227 9.7168 64.7988 9.44727 64.7988C9.17773 64.7988 8.96289 64.7227 8.80273 64.5703C8.64648 64.418 8.56836 64.2285 8.56836 64.002Z" fill="#FFC83D"/>
<path d="M15.1895 70.2656C15.1895 70.1328 15.1543 70.0137 15.084 69.9082C15.0137 69.8027 14.8809 69.707 14.6855 69.6211C14.4941 69.5312 14.2129 69.4473 13.8418 69.3691C13.5137 69.2988 13.2109 69.2109 12.9336 69.1055C12.6562 69 12.418 68.873 12.2188 68.7246C12.0195 68.5723 11.8633 68.3945 11.75 68.1914C11.6406 67.9844 11.5859 67.7461 11.5859 67.4766C11.5859 67.2148 11.6426 66.9688 11.7559 66.7383C11.8691 66.5039 12.0332 66.2988 12.248 66.123C12.4629 65.9434 12.7246 65.8027 13.0332 65.7012C13.3418 65.5957 13.6895 65.543 14.0762 65.543C14.6152 65.543 15.0781 65.6309 15.4648 65.8066C15.8555 65.9824 16.1543 66.2246 16.3613 66.5332C16.5684 66.8379 16.6719 67.1816 16.6719 67.5645H15.125C15.125 67.3965 15.0859 67.2441 15.0078 67.1074C14.9336 66.9707 14.8184 66.8613 14.6621 66.7793C14.5059 66.6934 14.3086 66.6504 14.0703 66.6504C13.8555 66.6504 13.6738 66.6855 13.5254 66.7559C13.3809 66.8262 13.2715 66.918 13.1973 67.0312C13.123 67.1445 13.0859 67.2695 13.0859 67.4062C13.0859 67.5078 13.1055 67.5996 13.1445 67.6816C13.1875 67.7598 13.2559 67.832 13.3496 67.8984C13.4434 67.9648 13.5703 68.0254 13.7305 68.0801C13.8945 68.1348 14.0957 68.1875 14.334 68.2383C14.8066 68.332 15.2188 68.457 15.5703 68.6133C15.9258 68.7656 16.2031 68.9688 16.4023 69.2227C16.6016 69.4766 16.7012 69.8008 16.7012 70.1953C16.7012 70.4766 16.6406 70.7344 16.5195 70.9688C16.3984 71.1992 16.2227 71.4004 15.9922 71.5723C15.7617 71.7441 15.4863 71.8789 15.166 71.9766C14.8457 72.0703 14.4844 72.1172 14.082 72.1172C13.5 72.1172 13.0078 72.0137 12.6055 71.8066C12.2031 71.5957 11.8984 71.3301 11.6914 71.0098C11.4844 70.6855 11.3809 70.3496 11.3809 70.002H12.8633C12.875 70.248 12.9414 70.4453 13.0625 70.5938C13.1836 70.7422 13.3359 70.8496 13.5195 70.916C13.707 70.9785 13.9043 71.0098 14.1113 71.0098C14.3457 71.0098 14.543 70.9785 14.7031 70.916C14.8633 70.8496 14.9844 70.7617 15.0664 70.6523C15.1484 70.5391 15.1895 70.4102 15.1895 70.2656Z" fill="#FFC83D"/>
<path d="M20.8789 65.6602V66.7734H17.2461V65.6602H20.8789ZM18.2188 64.1016H19.7715V70.1719C19.7715 70.3594 19.7969 70.5039 19.8477 70.6055C19.8984 70.707 19.9746 70.7754 20.0762 70.8105C20.1777 70.8457 20.2988 70.8633 20.4395 70.8633C20.541 70.8633 20.6348 70.8574 20.7207 70.8457C20.8066 70.834 20.8789 70.8223 20.9375 70.8105L20.9434 71.9707C20.8145 72.0137 20.668 72.0488 20.5039 72.0762C20.3438 72.1035 20.1621 72.1172 19.959 72.1172C19.6113 72.1172 19.3066 72.0586 19.0449 71.9414C18.7832 71.8203 18.5801 71.627 18.4355 71.3613C18.291 71.0918 18.2188 70.7363 18.2188 70.2949V64.1016Z" fill="#FFC83D"/>
<path d="M24.7578 72.1172C24.2773 72.1172 23.8457 72.0391 23.4629 71.8828C23.0801 71.7266 22.7539 71.5098 22.4844 71.2324C22.2188 70.9512 22.0137 70.625 21.8691 70.2539C21.7285 69.8789 21.6582 69.4766 21.6582 69.0469V68.8125C21.6582 68.3242 21.7285 67.8809 21.8691 67.4824C22.0098 67.0801 22.209 66.7344 22.4668 66.4453C22.7246 66.1562 23.0332 65.9336 23.3926 65.7773C23.752 65.6211 24.1484 65.543 24.582 65.543C25.0312 65.543 25.4277 65.6191 25.7715 65.7715C26.1152 65.9199 26.4023 66.1309 26.6328 66.4043C26.8633 66.6777 27.0371 67.0059 27.1543 67.3887C27.2715 67.7676 27.3301 68.1875 27.3301 68.6484V69.2988H22.3613V68.2324H25.8066V68.1152C25.7988 67.8691 25.752 67.6445 25.666 67.4414C25.5801 67.2344 25.4473 67.0703 25.2676 66.9492C25.0879 66.8242 24.8555 66.7617 24.5703 66.7617C24.3398 66.7617 24.1387 66.8125 23.9668 66.9141C23.7988 67.0117 23.6582 67.1523 23.5449 67.3359C23.4355 67.5156 23.3535 67.7305 23.2988 67.9805C23.2441 68.2305 23.2168 68.5078 23.2168 68.8125V69.0469C23.2168 69.3125 23.252 69.5586 23.3223 69.7852C23.3965 70.0117 23.5039 70.209 23.6445 70.377C23.7891 70.541 23.9609 70.6699 24.1602 70.7637C24.3633 70.8535 24.5938 70.8984 24.8516 70.8984C25.1758 70.8984 25.4688 70.8359 25.7305 70.7109C25.9961 70.582 26.2266 70.3926 26.4219 70.1426L27.2012 70.9512C27.0684 71.1465 26.8887 71.334 26.6621 71.5137C26.4395 71.6934 26.1699 71.8398 25.8535 71.9531C25.5371 72.0625 25.1719 72.1172 24.7578 72.1172Z" fill="#FFC83D"/>
<path d="M29.9082 66.9609V72H28.3613V65.6602H29.8203L29.9082 66.9609ZM29.6797 68.6016H29.2051C29.2051 68.1602 29.2578 67.7539 29.3633 67.3828C29.4727 67.0117 29.6328 66.6895 29.8438 66.416C30.0547 66.1387 30.3145 65.9238 30.623 65.7715C30.9355 65.6191 31.2969 65.543 31.707 65.543C31.9922 65.543 32.2539 65.5859 32.4922 65.6719C32.7305 65.7539 32.9355 65.8848 33.1074 66.0645C33.2832 66.2402 33.418 66.4707 33.5117 66.7559C33.6055 67.0371 33.6523 67.375 33.6523 67.7695V72H32.1055V67.9277C32.1055 67.6309 32.0625 67.3984 31.9766 67.2305C31.8945 67.0625 31.7754 66.9453 31.6191 66.8789C31.4629 66.8086 31.2754 66.7734 31.0566 66.7734C30.8145 66.7734 30.6055 66.8223 30.4297 66.9199C30.2578 67.0137 30.1152 67.1445 30.002 67.3125C29.8926 67.4805 29.8105 67.6738 29.7559 67.8926C29.7051 68.1113 29.6797 68.3477 29.6797 68.6016ZM33.5352 68.3145L32.8965 68.4316C32.9004 68.0332 32.9551 67.6602 33.0605 67.3125C33.166 66.9609 33.3203 66.6543 33.5234 66.3926C33.7305 66.127 33.9863 65.9199 34.291 65.7715C34.5996 65.6191 34.9551 65.543 35.3574 65.543C35.6699 65.543 35.9512 65.5879 36.2012 65.6777C36.4551 65.7637 36.6719 65.9023 36.8516 66.0938C37.0312 66.2812 37.168 66.5254 37.2617 66.8262C37.3594 67.127 37.4082 67.4941 37.4082 67.9277V72H35.8496V67.9219C35.8496 67.6133 35.8066 67.377 35.7207 67.2129C35.6387 67.0488 35.5195 66.9355 35.3633 66.873C35.207 66.8066 35.0234 66.7734 34.8125 66.7734C34.5977 66.7734 34.4102 66.8145 34.25 66.8965C34.0938 66.9746 33.9609 67.084 33.8516 67.2246C33.7461 67.3652 33.666 67.5293 33.6113 67.7168C33.5605 67.9004 33.5352 68.0996 33.5352 68.3145Z" fill="#FFC83D"/>
<path d="M42.6055 63.4688H44L46.332 69.8906L48.6582 63.4688H50.0586L46.8887 72H45.7695L42.6055 63.4688ZM41.9023 63.4688H43.2676L43.5137 69.3691V72H41.9023V63.4688ZM49.3906 63.4688H50.7617V72H49.1504V69.3691L49.3906 63.4688Z" fill="#FFC83D"/>
<path d="M55.7773 70.6523V67.7285C55.7773 67.5137 55.7402 67.3281 55.666 67.1719C55.5918 67.0156 55.4785 66.8945 55.3262 66.8086C55.1738 66.7227 54.9805 66.6797 54.7461 66.6797C54.5391 66.6797 54.3574 66.7148 54.2012 66.7852C54.0488 66.8555 53.9316 66.9551 53.8496 67.084C53.7676 67.209 53.7266 67.3535 53.7266 67.5176H52.1738C52.1738 67.2559 52.2363 67.0078 52.3613 66.7734C52.4863 66.5352 52.6641 66.3242 52.8945 66.1406C53.1289 65.9531 53.4082 65.8066 53.7324 65.7012C54.0605 65.5957 54.4277 65.543 54.834 65.543C55.3145 65.543 55.7422 65.625 56.1172 65.7891C56.4961 65.9492 56.793 66.1914 57.0078 66.5156C57.2266 66.8398 57.3359 67.248 57.3359 67.7402V70.5059C57.3359 70.8223 57.3555 71.0938 57.3945 71.3203C57.4375 71.543 57.5 71.7363 57.582 71.9004V72H56.0059C55.9316 71.8398 55.875 71.6367 55.8359 71.3906C55.7969 71.1406 55.7773 70.8945 55.7773 70.6523ZM55.9941 68.1387L56.0059 69.0586H55.0273C54.7852 69.0586 54.5723 69.084 54.3887 69.1348C54.2051 69.1816 54.0547 69.252 53.9375 69.3457C53.8203 69.4355 53.7324 69.5449 53.6738 69.6738C53.6152 69.7988 53.5859 69.9414 53.5859 70.1016C53.5859 70.2578 53.6211 70.3984 53.6914 70.5234C53.7656 70.6484 53.8711 70.748 54.0078 70.8223C54.1484 70.8926 54.3125 70.9277 54.5 70.9277C54.7734 70.9277 55.0117 70.873 55.2148 70.7637C55.418 70.6504 55.5762 70.5137 55.6895 70.3535C55.8027 70.1934 55.8633 70.041 55.8711 69.8965L56.3164 70.5645C56.2617 70.7246 56.1797 70.8945 56.0703 71.0742C55.9609 71.2539 55.8203 71.4219 55.6484 71.5781C55.4766 71.7344 55.2695 71.8633 55.0273 71.9648C54.7852 72.0664 54.5039 72.1172 54.1836 72.1172C53.7734 72.1172 53.4062 72.0352 53.082 71.8711C52.7578 71.707 52.502 71.4824 52.3145 71.1973C52.127 70.9121 52.0332 70.5879 52.0332 70.2246C52.0332 69.8887 52.0957 69.5918 52.2207 69.334C52.3457 69.0762 52.5312 68.8594 52.7773 68.6836C53.0234 68.5039 53.3281 68.3691 53.6914 68.2793C54.0586 68.1855 54.4785 68.1387 54.9512 68.1387H55.9941Z" fill="#FFC83D"/>
<path d="M60.2773 62.9941V72H58.7305V62.9941H60.2773ZM64.25 65.6602L61.4902 68.7598L59.9961 70.2773L59.5039 69.0762L60.6582 67.623L62.3809 65.6602H64.25ZM62.668 72L60.7051 69.0469L61.7363 68.0449L64.4609 72H62.668Z" fill="#FFC83D"/>
<path d="M66.7109 63V72H65.1582V63H66.7109Z" fill="#FFC83D"/>
<path d="M71.9609 70.4941V65.6602H73.5195V72H72.0547L71.9609 70.4941ZM72.1602 69.1816L72.6406 69.1699C72.6406 69.5957 72.5938 69.9883 72.5 70.3477C72.4062 70.707 72.2598 71.0195 72.0605 71.2852C71.8652 71.5469 71.6172 71.752 71.3164 71.9004C71.0156 72.0449 70.6602 72.1172 70.25 72.1172C69.9375 72.1172 69.6523 72.0742 69.3945 71.9883C69.1367 71.8984 68.9141 71.7598 68.7266 71.5723C68.543 71.3809 68.4004 71.1367 68.2988 70.8398C68.1973 70.5391 68.1465 70.1777 68.1465 69.7559V65.6602H69.6934V69.7676C69.6934 69.9785 69.7168 70.1543 69.7637 70.2949C69.8145 70.4355 69.8828 70.5508 69.9688 70.6406C70.0586 70.7266 70.1621 70.7891 70.2793 70.8281C70.4004 70.8633 70.5293 70.8809 70.666 70.8809C71.041 70.8809 71.3359 70.8066 71.5508 70.6582C71.7695 70.5059 71.9258 70.3027 72.0195 70.0488C72.1133 69.791 72.1602 69.502 72.1602 69.1816Z" fill="#FFC83D"/>
<path d="M76.4316 66.9609V72H74.8848V65.6602H76.3438L76.4316 66.9609ZM76.2031 68.6016H75.7285C75.7285 68.1602 75.7812 67.7539 75.8867 67.3828C75.9961 67.0117 76.1562 66.6895 76.3672 66.416C76.5781 66.1387 76.8379 65.9238 77.1465 65.7715C77.459 65.6191 77.8203 65.543 78.2305 65.543C78.5156 65.543 78.7773 65.5859 79.0156 65.6719C79.2539 65.7539 79.459 65.8848 79.6309 66.0645C79.8066 66.2402 79.9414 66.4707 80.0352 66.7559C80.1289 67.0371 80.1758 67.375 80.1758 67.7695V72H78.6289V67.9277C78.6289 67.6309 78.5859 67.3984 78.5 67.2305C78.418 67.0625 78.2988 66.9453 78.1426 66.8789C77.9863 66.8086 77.7988 66.7734 77.5801 66.7734C77.3379 66.7734 77.1289 66.8223 76.9531 66.9199C76.7812 67.0137 76.6387 67.1445 76.5254 67.3125C76.416 67.4805 76.334 67.6738 76.2793 67.8926C76.2285 68.1113 76.2031 68.3477 76.2031 68.6016ZM80.0586 68.3145L79.4199 68.4316C79.4238 68.0332 79.4785 67.6602 79.584 67.3125C79.6895 66.9609 79.8438 66.6543 80.0469 66.3926C80.2539 66.127 80.5098 65.9199 80.8145 65.7715C81.123 65.6191 81.4785 65.543 81.8809 65.543C82.1934 65.543 82.4746 65.5879 82.7246 65.6777C82.9785 65.7637 83.1953 65.9023 83.375 66.0938C83.5547 66.2812 83.6914 66.5254 83.7852 66.8262C83.8828 67.127 83.9316 67.4941 83.9316 67.9277V72H82.373V67.9219C82.373 67.6133 82.3301 67.377 82.2441 67.2129C82.1621 67.0488 82.043 66.9355 81.8867 66.873C81.7305 66.8066 81.5469 66.7734 81.3359 66.7734C81.1211 66.7734 80.9336 66.8145 80.7734 66.8965C80.6172 66.9746 80.4844 67.084 80.375 67.2246C80.2695 67.3652 80.1895 67.5293 80.1348 67.7168C80.084 67.9004 80.0586 68.0996 80.0586 68.3145Z" fill="#FFC83D"/>
<path d="M88.8125 70.6523V67.7285C88.8125 67.5137 88.7754 67.3281 88.7012 67.1719C88.627 67.0156 88.5137 66.8945 88.3613 66.8086C88.209 66.7227 88.0156 66.6797 87.7812 66.6797C87.5742 66.6797 87.3926 66.7148 87.2363 66.7852C87.084 66.8555 86.9668 66.9551 86.8848 67.084C86.8027 67.209 86.7617 67.3535 86.7617 67.5176H85.209C85.209 67.2559 85.2715 67.0078 85.3965 66.7734C85.5215 66.5352 85.6992 66.3242 85.9297 66.1406C86.1641 65.9531 86.4434 65.8066 86.7676 65.7012C87.0957 65.5957 87.4629 65.543 87.8691 65.543C88.3496 65.543 88.7773 65.625 89.1523 65.7891C89.5312 65.9492 89.8281 66.1914 90.043 66.5156C90.2617 66.8398 90.3711 67.248 90.3711 67.7402V70.5059C90.3711 70.8223 90.3906 71.0938 90.4297 71.3203C90.4727 71.543 90.5352 71.7363 90.6172 71.9004V72H89.041C88.9668 71.8398 88.9102 71.6367 88.8711 71.3906C88.832 71.1406 88.8125 70.8945 88.8125 70.6523ZM89.0293 68.1387L89.041 69.0586H88.0625C87.8203 69.0586 87.6074 69.084 87.4238 69.1348C87.2402 69.1816 87.0898 69.252 86.9727 69.3457C86.8555 69.4355 86.7676 69.5449 86.709 69.6738C86.6504 69.7988 86.6211 69.9414 86.6211 70.1016C86.6211 70.2578 86.6562 70.3984 86.7266 70.5234C86.8008 70.6484 86.9062 70.748 87.043 70.8223C87.1836 70.8926 87.3477 70.9277 87.5352 70.9277C87.8086 70.9277 88.0469 70.873 88.25 70.7637C88.4531 70.6504 88.6113 70.5137 88.7246 70.3535C88.8379 70.1934 88.8984 70.041 88.9062 69.8965L89.3516 70.5645C89.2969 70.7246 89.2148 70.8945 89.1055 71.0742C88.9961 71.2539 88.8555 71.4219 88.6836 71.5781C88.5117 71.7344 88.3047 71.8633 88.0625 71.9648C87.8203 72.0664 87.5391 72.1172 87.2188 72.1172C86.8086 72.1172 86.4414 72.0352 86.1172 71.8711C85.793 71.707 85.5371 71.4824 85.3496 71.1973C85.1621 70.9121 85.0684 70.5879 85.0684 70.2246C85.0684 69.8887 85.1309 69.5918 85.2559 69.334C85.3809 69.0762 85.5664 68.8594 85.8125 68.6836C86.0586 68.5039 86.3633 68.3691 86.7266 68.2793C87.0938 68.1855 87.5137 68.1387 87.9863 68.1387H89.0293Z" fill="#FFC83D"/>
<path d="M94.7656 65.6602V66.7734H91.1328V65.6602H94.7656ZM92.1055 64.1016H93.6582V70.1719C93.6582 70.3594 93.6836 70.5039 93.7344 70.6055C93.7852 70.707 93.8613 70.7754 93.9629 70.8105C94.0645 70.8457 94.1855 70.8633 94.3262 70.8633C94.4277 70.8633 94.5215 70.8574 94.6074 70.8457C94.6934 70.834 94.7656 70.8223 94.8242 70.8105L94.8301 71.9707C94.7012 72.0137 94.5547 72.0488 94.3906 72.0762C94.2305 72.1035 94.0488 72.1172 93.8457 72.1172C93.498 72.1172 93.1934 72.0586 92.9316 71.9414C92.6699 71.8203 92.4668 71.627 92.3223 71.3613C92.1777 71.0918 92.1055 70.7363 92.1055 70.2949V64.1016Z" fill="#FFC83D"/>
<path d="M100.332 62.9941V72H98.7852V62.9941H100.332ZM104.305 65.6602L101.545 68.7598L100.051 70.2773L99.5586 69.0762L100.713 67.623L102.436 65.6602H104.305ZM102.723 72L100.76 69.0469L101.791 68.0449L104.516 72H102.723Z" fill="#FFC83D"/>
<path d="M107.855 72.1172C107.375 72.1172 106.943 72.0391 106.561 71.8828C106.178 71.7266 105.852 71.5098 105.582 71.2324C105.316 70.9512 105.111 70.625 104.967 70.2539C104.826 69.8789 104.756 69.4766 104.756 69.0469V68.8125C104.756 68.3242 104.826 67.8809 104.967 67.4824C105.107 67.0801 105.307 66.7344 105.564 66.4453C105.822 66.1562 106.131 65.9336 106.49 65.7773C106.85 65.6211 107.246 65.543 107.68 65.543C108.129 65.543 108.525 65.6191 108.869 65.7715C109.213 65.9199 109.5 66.1309 109.73 66.4043C109.961 66.6777 110.135 67.0059 110.252 67.3887C110.369 67.7676 110.428 68.1875 110.428 68.6484V69.2988H105.459V68.2324H108.904V68.1152C108.896 67.8691 108.85 67.6445 108.764 67.4414C108.678 67.2344 108.545 67.0703 108.365 66.9492C108.186 66.8242 107.953 66.7617 107.668 66.7617C107.438 66.7617 107.236 66.8125 107.064 66.9141C106.896 67.0117 106.756 67.1523 106.643 67.3359C106.533 67.5156 106.451 67.7305 106.396 67.9805C106.342 68.2305 106.314 68.5078 106.314 68.8125V69.0469C106.314 69.3125 106.35 69.5586 106.42 69.7852C106.494 70.0117 106.602 70.209 106.742 70.377C106.887 70.541 107.059 70.6699 107.258 70.7637C107.461 70.8535 107.691 70.8984 107.949 70.8984C108.273 70.8984 108.566 70.8359 108.828 70.7109C109.094 70.582 109.324 70.3926 109.52 70.1426L110.299 70.9512C110.166 71.1465 109.986 71.334 109.76 71.5137C109.537 71.6934 109.268 71.8398 108.951 71.9531C108.635 72.0625 108.27 72.1172 107.855 72.1172Z" fill="#FFC83D"/>
<path d="M113.229 70.4766L114.617 65.6602H115.602L115.309 67.3242L113.908 72H113.059L113.229 70.4766ZM112.461 65.6602L113.504 70.4883L113.598 72H112.619L110.955 65.6602H112.461ZM116.891 70.418L117.91 65.6602H119.41L117.758 72H116.779L116.891 70.418ZM115.754 65.6602L117.131 70.4297L117.312 72H116.463L115.051 67.3242L114.764 65.6602H115.754Z" fill="#FFC83D"/>
<path d="M123.816 70.6523V67.7285C123.816 67.5137 123.779 67.3281 123.705 67.1719C123.631 67.0156 123.518 66.8945 123.365 66.8086C123.213 66.7227 123.02 66.6797 122.785 66.6797C122.578 66.6797 122.396 66.7148 122.24 66.7852C122.088 66.8555 121.971 66.9551 121.889 67.084C121.807 67.209 121.766 67.3535 121.766 67.5176H120.213C120.213 67.2559 120.275 67.0078 120.4 66.7734C120.525 66.5352 120.703 66.3242 120.934 66.1406C121.168 65.9531 121.447 65.8066 121.771 65.7012C122.1 65.5957 122.467 65.543 122.873 65.543C123.354 65.543 123.781 65.625 124.156 65.7891C124.535 65.9492 124.832 66.1914 125.047 66.5156C125.266 66.8398 125.375 67.248 125.375 67.7402V70.5059C125.375 70.8223 125.395 71.0938 125.434 71.3203C125.477 71.543 125.539 71.7363 125.621 71.9004V72H124.045C123.971 71.8398 123.914 71.6367 123.875 71.3906C123.836 71.1406 123.816 70.8945 123.816 70.6523ZM124.033 68.1387L124.045 69.0586H123.066C122.824 69.0586 122.611 69.084 122.428 69.1348C122.244 69.1816 122.094 69.252 121.977 69.3457C121.859 69.4355 121.771 69.5449 121.713 69.6738C121.654 69.7988 121.625 69.9414 121.625 70.1016C121.625 70.2578 121.66 70.3984 121.73 70.5234C121.805 70.6484 121.91 70.748 122.047 70.8223C122.188 70.8926 122.352 70.9277 122.539 70.9277C122.812 70.9277 123.051 70.873 123.254 70.7637C123.457 70.6504 123.615 70.5137 123.729 70.3535C123.842 70.1934 123.902 70.041 123.91 69.8965L124.355 70.5645C124.301 70.7246 124.219 70.8945 124.109 71.0742C124 71.2539 123.859 71.4219 123.688 71.5781C123.516 71.7344 123.309 71.8633 123.066 71.9648C122.824 72.0664 122.543 72.1172 122.223 72.1172C121.812 72.1172 121.445 72.0352 121.121 71.8711C120.797 71.707 120.541 71.4824 120.354 71.1973C120.166 70.9121 120.072 70.5879 120.072 70.2246C120.072 69.8887 120.135 69.5918 120.26 69.334C120.385 69.0762 120.57 68.8594 120.816 68.6836C121.062 68.5039 121.367 68.3691 121.73 68.2793C122.098 68.1855 122.518 68.1387 122.99 68.1387H124.033Z" fill="#FFC83D"/>
<path d="M128.287 67.0137V72H126.74V65.6602H128.193L128.287 67.0137ZM128.041 68.6016H127.584C127.588 68.1406 127.65 67.7227 127.771 67.3477C127.893 66.9727 128.062 66.6504 128.281 66.3809C128.504 66.1113 128.768 65.9043 129.072 65.7598C129.377 65.6152 129.717 65.543 130.092 65.543C130.396 65.543 130.672 65.5859 130.918 65.6719C131.164 65.7578 131.375 65.8945 131.551 66.082C131.73 66.2695 131.867 66.5156 131.961 66.8203C132.059 67.1211 132.107 67.4922 132.107 67.9336V72H130.549V67.9219C130.549 67.6328 130.506 67.4043 130.42 67.2363C130.338 67.0684 130.217 66.9492 130.057 66.8789C129.9 66.8086 129.707 66.7734 129.477 66.7734C129.238 66.7734 129.029 66.8223 128.85 66.9199C128.674 67.0137 128.525 67.1445 128.404 67.3125C128.287 67.4805 128.197 67.6738 128.135 67.8926C128.072 68.1113 128.041 68.3477 128.041 68.6016Z" fill="#FFC83D"/>
<path d="M137.504 65.6602H138.91V71.8066C138.91 72.3809 138.785 72.8672 138.535 73.2656C138.289 73.668 137.943 73.9727 137.498 74.1797C137.053 74.3906 136.535 74.4961 135.945 74.4961C135.691 74.4961 135.416 74.4609 135.119 74.3906C134.826 74.3203 134.543 74.209 134.27 74.0566C134 73.9082 133.775 73.7148 133.596 73.4766L134.293 72.5625C134.504 72.8086 134.742 72.9941 135.008 73.1191C135.273 73.248 135.561 73.3125 135.869 73.3125C136.182 73.3125 136.447 73.2539 136.666 73.1367C136.889 73.0234 137.059 72.8555 137.176 72.6328C137.297 72.4141 137.357 72.1445 137.357 71.8242V67.1074L137.504 65.6602ZM133.221 68.9062V68.7832C133.221 68.2988 133.279 67.8594 133.396 67.4648C133.514 67.0664 133.682 66.7246 133.9 66.4395C134.123 66.1543 134.391 65.9336 134.703 65.7773C135.02 65.6211 135.375 65.543 135.77 65.543C136.188 65.543 136.539 65.6191 136.824 65.7715C137.113 65.9238 137.352 66.1406 137.539 66.4219C137.73 66.7031 137.879 67.0371 137.984 67.4238C138.094 67.8066 138.178 68.2285 138.236 68.6895V69.0234C138.182 69.4727 138.094 69.8848 137.973 70.2598C137.855 70.6348 137.699 70.9629 137.504 71.2441C137.309 71.5215 137.066 71.7363 136.777 71.8887C136.488 72.041 136.148 72.1172 135.758 72.1172C135.367 72.1172 135.016 72.0371 134.703 71.877C134.391 71.7168 134.123 71.4922 133.9 71.2031C133.682 70.9141 133.514 70.5742 133.396 70.1836C133.279 69.793 133.221 69.3672 133.221 68.9062ZM134.768 68.7832V68.9062C134.768 69.1797 134.795 69.4355 134.85 69.6738C134.904 69.9121 134.988 70.123 135.102 70.3066C135.215 70.4863 135.357 70.627 135.529 70.7285C135.701 70.8301 135.906 70.8809 136.145 70.8809C136.465 70.8809 136.727 70.8145 136.93 70.6816C137.137 70.5449 137.293 70.3594 137.398 70.125C137.508 69.8867 137.578 69.6191 137.609 69.3223V68.4023C137.59 68.168 137.547 67.9512 137.48 67.752C137.418 67.5527 137.33 67.3809 137.217 67.2363C137.104 67.0918 136.959 66.9785 136.783 66.8965C136.607 66.8145 136.398 66.7734 136.156 66.7734C135.922 66.7734 135.717 66.8262 135.541 66.9316C135.365 67.0332 135.221 67.1758 135.107 67.3594C134.994 67.543 134.908 67.7559 134.85 67.998C134.795 68.2402 134.768 68.502 134.768 68.7832Z" fill="#FFC83D"/>
<path d="M143.797 70.6523V67.7285C143.797 67.5137 143.76 67.3281 143.686 67.1719C143.611 67.0156 143.498 66.8945 143.346 66.8086C143.193 66.7227 143 66.6797 142.766 66.6797C142.559 66.6797 142.377 66.7148 142.221 66.7852C142.068 66.8555 141.951 66.9551 141.869 67.084C141.787 67.209 141.746 67.3535 141.746 67.5176H140.193C140.193 67.2559 140.256 67.0078 140.381 66.7734C140.506 66.5352 140.684 66.3242 140.914 66.1406C141.148 65.9531 141.428 65.8066 141.752 65.7012C142.08 65.5957 142.447 65.543 142.854 65.543C143.334 65.543 143.762 65.625 144.137 65.7891C144.516 65.9492 144.812 66.1914 145.027 66.5156C145.246 66.8398 145.355 67.248 145.355 67.7402V70.5059C145.355 70.8223 145.375 71.0938 145.414 71.3203C145.457 71.543 145.52 71.7363 145.602 71.9004V72H144.025C143.951 71.8398 143.895 71.6367 143.855 71.3906C143.816 71.1406 143.797 70.8945 143.797 70.6523ZM144.014 68.1387L144.025 69.0586H143.047C142.805 69.0586 142.592 69.084 142.408 69.1348C142.225 69.1816 142.074 69.252 141.957 69.3457C141.84 69.4355 141.752 69.5449 141.693 69.6738C141.635 69.7988 141.605 69.9414 141.605 70.1016C141.605 70.2578 141.641 70.3984 141.711 70.5234C141.785 70.6484 141.891 70.748 142.027 70.8223C142.168 70.8926 142.332 70.9277 142.52 70.9277C142.793 70.9277 143.031 70.873 143.234 70.7637C143.438 70.6504 143.596 70.5137 143.709 70.3535C143.822 70.1934 143.883 70.041 143.891 69.8965L144.336 70.5645C144.281 70.7246 144.199 70.8945 144.09 71.0742C143.98 71.2539 143.84 71.4219 143.668 71.5781C143.496 71.7344 143.289 71.8633 143.047 71.9648C142.805 72.0664 142.523 72.1172 142.203 72.1172C141.793 72.1172 141.426 72.0352 141.102 71.8711C140.777 71.707 140.521 71.4824 140.334 71.1973C140.146 70.9121 140.053 70.5879 140.053 70.2246C140.053 69.8887 140.115 69.5918 140.24 69.334C140.365 69.0762 140.551 68.8594 140.797 68.6836C141.043 68.5039 141.348 68.3691 141.711 68.2793C142.078 68.1855 142.498 68.1387 142.971 68.1387H144.014Z" fill="#FFC83D"/>
<path d="M148.268 67.0137V72H146.721V65.6602H148.174L148.268 67.0137ZM148.021 68.6016H147.564C147.568 68.1406 147.631 67.7227 147.752 67.3477C147.873 66.9727 148.043 66.6504 148.262 66.3809C148.484 66.1113 148.748 65.9043 149.053 65.7598C149.357 65.6152 149.697 65.543 150.072 65.543C150.377 65.543 150.652 65.5859 150.898 65.6719C151.145 65.7578 151.355 65.8945 151.531 66.082C151.711 66.2695 151.848 66.5156 151.941 66.8203C152.039 67.1211 152.088 67.4922 152.088 67.9336V72H150.529V67.9219C150.529 67.6328 150.486 67.4043 150.4 67.2363C150.318 67.0684 150.197 66.9492 150.037 66.8789C149.881 66.8086 149.688 66.7734 149.457 66.7734C149.219 66.7734 149.01 66.8223 148.83 66.9199C148.654 67.0137 148.506 67.1445 148.385 67.3125C148.268 67.4805 148.178 67.6738 148.115 67.8926C148.053 68.1113 148.021 68.3477 148.021 68.6016Z" fill="#FFC83D"/>
<path d="M159.828 68.1973H157.648L157.637 67.0605H159.506C159.826 67.0605 160.094 67.0156 160.309 66.9258C160.523 66.8359 160.686 66.7051 160.795 66.5332C160.908 66.3613 160.965 66.1523 160.965 65.9062C160.965 65.6328 160.912 65.4102 160.807 65.2383C160.705 65.0664 160.545 64.9414 160.326 64.8633C160.107 64.7812 159.83 64.7402 159.494 64.7402H158.17V72H156.559V63.4688H159.494C159.979 63.4688 160.41 63.5156 160.789 63.6094C161.172 63.6992 161.496 63.8398 161.762 64.0312C162.027 64.2227 162.229 64.4629 162.365 64.752C162.506 65.041 162.576 65.3848 162.576 65.7832C162.576 66.1348 162.494 66.459 162.33 66.7559C162.17 67.0488 161.922 67.2871 161.586 67.4707C161.254 67.6543 160.832 67.7598 160.32 67.7871L159.828 68.1973ZM159.758 72H157.174L157.848 70.7344H159.758C160.078 70.7344 160.342 70.6816 160.549 70.5762C160.76 70.4707 160.916 70.3262 161.018 70.1426C161.123 69.9551 161.176 69.7402 161.176 69.498C161.176 69.2324 161.129 69.002 161.035 68.8066C160.945 68.6113 160.801 68.4609 160.602 68.3555C160.406 68.25 160.148 68.1973 159.828 68.1973H158.152L158.164 67.0605H160.297L160.666 67.5C161.158 67.5039 161.559 67.6016 161.867 67.793C162.18 67.9844 162.41 68.2305 162.559 68.5312C162.707 68.832 162.781 69.1562 162.781 69.5039C162.781 70.0508 162.662 70.5098 162.424 70.8809C162.189 71.252 161.846 71.5312 161.393 71.7188C160.943 71.9062 160.398 72 159.758 72Z" fill="#FFC83D"/>
<path d="M166.906 72.1172C166.426 72.1172 165.994 72.0391 165.611 71.8828C165.229 71.7266 164.902 71.5098 164.633 71.2324C164.367 70.9512 164.162 70.625 164.018 70.2539C163.877 69.8789 163.807 69.4766 163.807 69.0469V68.8125C163.807 68.3242 163.877 67.8809 164.018 67.4824C164.158 67.0801 164.357 66.7344 164.615 66.4453C164.873 66.1562 165.182 65.9336 165.541 65.7773C165.9 65.6211 166.297 65.543 166.73 65.543C167.18 65.543 167.576 65.6191 167.92 65.7715C168.264 65.9199 168.551 66.1309 168.781 66.4043C169.012 66.6777 169.186 67.0059 169.303 67.3887C169.42 67.7676 169.479 68.1875 169.479 68.6484V69.2988H164.51V68.2324H167.955V68.1152C167.947 67.8691 167.9 67.6445 167.814 67.4414C167.729 67.2344 167.596 67.0703 167.416 66.9492C167.236 66.8242 167.004 66.7617 166.719 66.7617C166.488 66.7617 166.287 66.8125 166.115 66.9141C165.947 67.0117 165.807 67.1523 165.693 67.3359C165.584 67.5156 165.502 67.7305 165.447 67.9805C165.393 68.2305 165.365 68.5078 165.365 68.8125V69.0469C165.365 69.3125 165.4 69.5586 165.471 69.7852C165.545 70.0117 165.652 70.209 165.793 70.377C165.938 70.541 166.109 70.6699 166.309 70.7637C166.512 70.8535 166.742 70.8984 167 70.8984C167.324 70.8984 167.617 70.8359 167.879 70.7109C168.145 70.582 168.375 70.3926 168.57 70.1426L169.35 70.9512C169.217 71.1465 169.037 71.334 168.811 71.5137C168.588 71.6934 168.318 71.8398 168.002 71.9531C167.686 72.0625 167.32 72.1172 166.906 72.1172Z" fill="#FFC83D"/>
<path d="M172.062 66.9551V72H170.516V65.6602H171.98L172.062 66.9551ZM173.99 65.6191L173.967 67.0605C173.881 67.0449 173.783 67.0332 173.674 67.0254C173.568 67.0176 173.469 67.0137 173.375 67.0137C173.137 67.0137 172.928 67.0469 172.748 67.1133C172.568 67.1758 172.418 67.2676 172.297 67.3887C172.18 67.5098 172.09 67.6582 172.027 67.834C171.965 68.0059 171.93 68.2012 171.922 68.4199L171.588 68.3789C171.588 67.9766 171.629 67.6035 171.711 67.2598C171.793 66.916 171.912 66.6152 172.068 66.3574C172.225 66.0996 172.42 65.9004 172.654 65.7598C172.893 65.6152 173.166 65.543 173.475 65.543C173.561 65.543 173.652 65.5508 173.75 65.5664C173.852 65.5781 173.932 65.5957 173.99 65.6191Z" fill="#FFC83D"/>
<path d="M178.326 70.2656C178.326 70.1328 178.291 70.0137 178.221 69.9082C178.15 69.8027 178.018 69.707 177.822 69.6211C177.631 69.5312 177.35 69.4473 176.979 69.3691C176.65 69.2988 176.348 69.2109 176.07 69.1055C175.793 69 175.555 68.873 175.355 68.7246C175.156 68.5723 175 68.3945 174.887 68.1914C174.777 67.9844 174.723 67.7461 174.723 67.4766C174.723 67.2148 174.779 66.9688 174.893 66.7383C175.006 66.5039 175.17 66.2988 175.385 66.123C175.6 65.9434 175.861 65.8027 176.17 65.7012C176.479 65.5957 176.826 65.543 177.213 65.543C177.752 65.543 178.215 65.6309 178.602 65.8066C178.992 65.9824 179.291 66.2246 179.498 66.5332C179.705 66.8379 179.809 67.1816 179.809 67.5645H178.262C178.262 67.3965 178.223 67.2441 178.145 67.1074C178.07 66.9707 177.955 66.8613 177.799 66.7793C177.643 66.6934 177.445 66.6504 177.207 66.6504C176.992 66.6504 176.811 66.6855 176.662 66.7559C176.518 66.8262 176.408 66.918 176.334 67.0312C176.26 67.1445 176.223 67.2695 176.223 67.4062C176.223 67.5078 176.242 67.5996 176.281 67.6816C176.324 67.7598 176.393 67.832 176.486 67.8984C176.58 67.9648 176.707 68.0254 176.867 68.0801C177.031 68.1348 177.232 68.1875 177.471 68.2383C177.943 68.332 178.355 68.457 178.707 68.6133C179.062 68.7656 179.34 68.9688 179.539 69.2227C179.738 69.4766 179.838 69.8008 179.838 70.1953C179.838 70.4766 179.777 70.7344 179.656 70.9688C179.535 71.1992 179.359 71.4004 179.129 71.5723C178.898 71.7441 178.623 71.8789 178.303 71.9766C177.982 72.0703 177.621 72.1172 177.219 72.1172C176.637 72.1172 176.145 72.0137 175.742 71.8066C175.34 71.5957 175.035 71.3301 174.828 71.0098C174.621 70.6855 174.518 70.3496 174.518 70.002H176C176.012 70.248 176.078 70.4453 176.199 70.5938C176.32 70.7422 176.473 70.8496 176.656 70.916C176.844 70.9785 177.041 71.0098 177.248 71.0098C177.482 71.0098 177.68 70.9785 177.84 70.916C178 70.8496 178.121 70.7617 178.203 70.6523C178.285 70.5391 178.326 70.4102 178.326 70.2656Z" fill="#FFC83D"/>
<path d="M183.863 72.1172C183.383 72.1172 182.951 72.0391 182.568 71.8828C182.186 71.7266 181.859 71.5098 181.59 71.2324C181.324 70.9512 181.119 70.625 180.975 70.2539C180.834 69.8789 180.764 69.4766 180.764 69.0469V68.8125C180.764 68.3242 180.834 67.8809 180.975 67.4824C181.115 67.0801 181.314 66.7344 181.572 66.4453C181.83 66.1562 182.139 65.9336 182.498 65.7773C182.857 65.6211 183.254 65.543 183.688 65.543C184.137 65.543 184.533 65.6191 184.877 65.7715C185.221 65.9199 185.508 66.1309 185.738 66.4043C185.969 66.6777 186.143 67.0059 186.26 67.3887C186.377 67.7676 186.436 68.1875 186.436 68.6484V69.2988H181.467V68.2324H184.912V68.1152C184.904 67.8691 184.857 67.6445 184.771 67.4414C184.686 67.2344 184.553 67.0703 184.373 66.9492C184.193 66.8242 183.961 66.7617 183.676 66.7617C183.445 66.7617 183.244 66.8125 183.072 66.9141C182.904 67.0117 182.764 67.1523 182.65 67.3359C182.541 67.5156 182.459 67.7305 182.404 67.9805C182.35 68.2305 182.322 68.5078 182.322 68.8125V69.0469C182.322 69.3125 182.357 69.5586 182.428 69.7852C182.502 70.0117 182.609 70.209 182.75 70.377C182.895 70.541 183.066 70.6699 183.266 70.7637C183.469 70.8535 183.699 70.8984 183.957 70.8984C184.281 70.8984 184.574 70.8359 184.836 70.7109C185.102 70.582 185.332 70.3926 185.527 70.1426L186.307 70.9512C186.174 71.1465 185.994 71.334 185.768 71.5137C185.545 71.6934 185.275 71.8398 184.959 71.9531C184.643 72.0625 184.277 72.1172 183.863 72.1172Z" fill="#FFC83D"/>
<path d="M189.02 66.8789V74.4375H187.467V65.6602H188.902L189.02 66.8789ZM193.092 68.7656V68.8887C193.092 69.3496 193.037 69.7773 192.928 70.1719C192.822 70.5625 192.666 70.9043 192.459 71.1973C192.252 71.4863 191.994 71.7129 191.686 71.877C191.381 72.0371 191.029 72.1172 190.631 72.1172C190.24 72.1172 189.9 72.043 189.611 71.8945C189.322 71.7422 189.078 71.5273 188.879 71.25C188.68 70.9727 188.52 70.6504 188.398 70.2832C188.281 69.9121 188.193 69.5078 188.135 69.0703V68.6777C188.193 68.2129 188.281 67.791 188.398 67.4121C188.52 67.0293 188.68 66.6992 188.879 66.4219C189.078 66.1406 189.32 65.9238 189.605 65.7715C189.895 65.6191 190.232 65.543 190.619 65.543C191.021 65.543 191.375 65.6191 191.68 65.7715C191.988 65.9238 192.248 66.1426 192.459 66.4277C192.67 66.7129 192.828 67.0527 192.934 67.4473C193.039 67.8418 193.092 68.2812 193.092 68.7656ZM191.539 68.8887V68.7656C191.539 68.4844 191.514 68.2246 191.463 67.9863C191.412 67.7441 191.334 67.5332 191.229 67.3535C191.123 67.1699 190.986 67.0273 190.818 66.9258C190.65 66.8242 190.447 66.7734 190.209 66.7734C189.971 66.7734 189.766 66.8125 189.594 66.8906C189.422 66.9688 189.281 67.0801 189.172 67.2246C189.062 67.3691 188.977 67.541 188.914 67.7402C188.855 67.9355 188.816 68.1523 188.797 68.3906V69.3633C188.832 69.6523 188.9 69.9121 189.002 70.1426C189.104 70.373 189.252 70.5566 189.447 70.6934C189.646 70.8301 189.904 70.8984 190.221 70.8984C190.459 70.8984 190.662 70.8457 190.83 70.7402C190.998 70.6348 191.135 70.4902 191.24 70.3066C191.346 70.1191 191.422 69.9043 191.469 69.6621C191.516 69.4199 191.539 69.1621 191.539 68.8887Z" fill="#FFC83D"/>
<path d="M197.715 70.6523V67.7285C197.715 67.5137 197.678 67.3281 197.604 67.1719C197.529 67.0156 197.416 66.8945 197.264 66.8086C197.111 66.7227 196.918 66.6797 196.684 66.6797C196.477 66.6797 196.295 66.7148 196.139 66.7852C195.986 66.8555 195.869 66.9551 195.787 67.084C195.705 67.209 195.664 67.3535 195.664 67.5176H194.111C194.111 67.2559 194.174 67.0078 194.299 66.7734C194.424 66.5352 194.602 66.3242 194.832 66.1406C195.066 65.9531 195.346 65.8066 195.67 65.7012C195.998 65.5957 196.365 65.543 196.771 65.543C197.252 65.543 197.68 65.625 198.055 65.7891C198.434 65.9492 198.73 66.1914 198.945 66.5156C199.164 66.8398 199.273 67.248 199.273 67.7402V70.5059C199.273 70.8223 199.293 71.0938 199.332 71.3203C199.375 71.543 199.438 71.7363 199.52 71.9004V72H197.943C197.869 71.8398 197.812 71.6367 197.773 71.3906C197.734 71.1406 197.715 70.8945 197.715 70.6523ZM197.932 68.1387L197.943 69.0586H196.965C196.723 69.0586 196.51 69.084 196.326 69.1348C196.143 69.1816 195.992 69.252 195.875 69.3457C195.758 69.4355 195.67 69.5449 195.611 69.6738C195.553 69.7988 195.523 69.9414 195.523 70.1016C195.523 70.2578 195.559 70.3984 195.629 70.5234C195.703 70.6484 195.809 70.748 195.945 70.8223C196.086 70.8926 196.25 70.9277 196.438 70.9277C196.711 70.9277 196.949 70.873 197.152 70.7637C197.355 70.6504 197.514 70.5137 197.627 70.3535C197.74 70.1934 197.801 70.041 197.809 69.8965L198.254 70.5645C198.199 70.7246 198.117 70.8945 198.008 71.0742C197.898 71.2539 197.758 71.4219 197.586 71.5781C197.414 71.7344 197.207 71.8633 196.965 71.9648C196.723 72.0664 196.441 72.1172 196.121 72.1172C195.711 72.1172 195.344 72.0352 195.02 71.8711C194.695 71.707 194.439 71.4824 194.252 71.1973C194.064 70.9121 193.971 70.5879 193.971 70.2246C193.971 69.8887 194.033 69.5918 194.158 69.334C194.283 69.0762 194.469 68.8594 194.715 68.6836C194.961 68.5039 195.266 68.3691 195.629 68.2793C195.996 68.1855 196.416 68.1387 196.889 68.1387H197.932Z" fill="#FFC83D"/>
<path d="M204.471 70.6523V63H206.029V72H204.623L204.471 70.6523ZM200.398 68.9062V68.7832C200.398 68.2988 200.453 67.8594 200.562 67.4648C200.676 67.0664 200.84 66.7246 201.055 66.4395C201.27 66.1543 201.529 65.9336 201.834 65.7773C202.143 65.6211 202.492 65.543 202.883 65.543C203.262 65.543 203.592 65.6191 203.873 65.7715C204.158 65.9238 204.4 66.1406 204.6 66.4219C204.803 66.7031 204.965 67.0371 205.086 67.4238C205.207 67.8066 205.295 68.2285 205.35 68.6895V69.0234C205.295 69.4727 205.207 69.8848 205.086 70.2598C204.965 70.6348 204.803 70.9629 204.6 71.2441C204.4 71.5215 204.158 71.7363 203.873 71.8887C203.588 72.041 203.254 72.1172 202.871 72.1172C202.484 72.1172 202.137 72.0371 201.828 71.877C201.523 71.7168 201.264 71.4922 201.049 71.2031C200.838 70.9141 200.676 70.5742 200.562 70.1836C200.453 69.793 200.398 69.3672 200.398 68.9062ZM201.951 68.7832V68.9062C201.951 69.1797 201.975 69.4355 202.021 69.6738C202.068 69.9121 202.145 70.123 202.25 70.3066C202.355 70.4863 202.49 70.627 202.654 70.7285C202.822 70.8301 203.025 70.8809 203.264 70.8809C203.568 70.8809 203.818 70.8145 204.014 70.6816C204.213 70.5449 204.367 70.3594 204.477 70.125C204.586 69.8867 204.656 69.6191 204.688 69.3223V68.4023C204.672 68.168 204.631 67.9512 204.564 67.752C204.502 67.5527 204.412 67.3809 204.295 67.2363C204.182 67.0918 204.041 66.9785 203.873 66.8965C203.705 66.8145 203.506 66.7734 203.275 66.7734C203.037 66.7734 202.834 66.8262 202.666 66.9316C202.498 67.0332 202.361 67.1758 202.256 67.3594C202.15 67.543 202.072 67.7559 202.021 67.998C201.975 68.2402 201.951 68.502 201.951 68.7832Z" fill="#FFC83D"/>
<path d="M211.203 70.4941V65.6602H212.762V72H211.297L211.203 70.4941ZM211.402 69.1816L211.883 69.1699C211.883 69.5957 211.836 69.9883 211.742 70.3477C211.648 70.707 211.502 71.0195 211.303 71.2852C211.107 71.5469 210.859 71.752 210.559 71.9004C210.258 72.0449 209.902 72.1172 209.492 72.1172C209.18 72.1172 208.895 72.0742 208.637 71.9883C208.379 71.8984 208.156 71.7598 207.969 71.5723C207.785 71.3809 207.643 71.1367 207.541 70.8398C207.439 70.5391 207.389 70.1777 207.389 69.7559V65.6602H208.936V69.7676C208.936 69.9785 208.959 70.1543 209.006 70.2949C209.057 70.4355 209.125 70.5508 209.211 70.6406C209.301 70.7266 209.404 70.7891 209.521 70.8281C209.643 70.8633 209.771 70.8809 209.908 70.8809C210.283 70.8809 210.578 70.8066 210.793 70.6582C211.012 70.5059 211.168 70.3027 211.262 70.0488C211.355 69.791 211.402 69.502 211.402 69.1816Z" fill="#FFC83D"/>
<path fill-rule="evenodd" clip-rule="evenodd" d="M211 56H1V55H211V56Z" fill="#FFC83D"/>
</svg>
