<svg width="32" height="30" viewBox="0 0 32 30" fill="none" xmlns="http://www.w3.org/2000/svg">
<path d="M1.65387 19.315C2.95007 18.9041 4.2442 18.4931 5.54866 18.1233C5.70164 18.078 5.9063 18.2096 6.14818 18.2753C7.27486 16.5493 8.47596 14.7596 9.61504 12.9452C9.85725 12.5287 10.1821 12.1656 10.5698 11.8777C10.9575 11.5898 11.4 11.3832 11.8705 11.2705C13.024 10.9828 14.1631 10.6274 15.298 10.2596C15.5877 10.1598 15.8405 9.97578 16.0237 9.73147C17.7354 7.31092 19.4326 4.87394 21.1609 2.3938C24.1626 4.46503 27.1561 6.52599 30.1826 8.61983L19.1556 24.452L16.5384 22.6417C16.2821 22.9233 16.0547 23.1904 15.8087 23.437C14.9727 24.2664 13.9129 24.8374 12.7573 25.0808C11.4157 25.387 10.0698 25.6767 8.7261 25.9767C8.60206 26.0054 8.48423 26.0506 8.31264 26.1041L8.75711 27.6924L4.484 28.9931C4.02093 27.4582 3.56405 25.9561 3.11338 24.4541C2.68752 23.0404 2.27406 21.6185 1.8482 20.2027C1.79371 20.0492 1.72879 19.8995 1.65387 19.7548V19.315ZM14.7254 11.6363C13.7703 11.9178 12.9827 12.1849 12.1744 12.378C11.8409 12.456 11.5271 12.6013 11.2526 12.8049C10.978 13.0085 10.7485 13.2661 10.5784 13.5616C9.42691 15.378 8.24028 17.1719 7.06399 18.9678C6.86034 19.2446 6.64156 19.51 6.40866 19.763L7.98187 24.9904C9.61297 24.6267 11.1779 24.2938 12.7367 23.9239C13.654 23.7288 14.4814 23.2393 15.0913 22.5308C16.6852 20.5972 18.2398 18.6267 19.7882 16.6623C19.883 16.5463 19.9538 16.4127 19.9964 16.2693C20.039 16.126 20.0526 15.9756 20.0365 15.827C20.0203 15.6784 19.9747 15.5344 19.9023 15.4034C19.8299 15.2724 19.7321 15.1569 19.6146 15.0637C19.4022 14.8635 19.1221 14.7495 18.8294 14.7442C18.5368 14.7388 18.2527 14.8426 18.0331 15.0349C17.7127 15.2856 17.4005 15.5465 17.0821 15.8013L14.3574 17.9897L11.6927 16.3952L14.7254 11.6363ZM24.6939 14.4986L28.5866 8.9075L21.4462 3.96161L17.5948 9.52599C21.1898 7.86366 25.1632 11.0342 24.6939 14.4986ZM21.2312 16.0089C22.6039 15.9739 23.5362 15.0164 23.5052 13.6746C23.4535 11.5068 20.9025 9.66777 18.8125 10.2739C17.1586 10.765 16.5653 12.4993 17.5535 13.9048C19.4967 13.1897 20.5883 13.8143 21.2312 16.0089ZM2.99348 20.0876C3.75838 22.6253 4.49641 25.0828 5.25097 27.5876L7.35755 26.9383L5.10006 19.4219L2.99348 20.0876ZM18.8703 22.8904L23.1993 16.6541C22.6886 16.8287 22.3041 17.065 21.9196 17.065C20.9583 17.065 20.4146 17.589 19.9412 18.3102C19.6993 18.6822 19.3913 19.0089 19.1143 19.3582L17.2289 21.7274L18.8703 22.8904ZM15.8335 12.0267L13.2928 16.015C13.5026 16.1641 13.7238 16.2967 13.9543 16.4116C14.1011 16.4712 14.3409 16.5205 14.438 16.4465C15.174 15.8876 15.8852 15.2979 16.4723 14.8212L15.8335 12.0267Z" fill="white"/>
<path d="M24.8076 8.33425C24.7975 8.58615 24.6904 8.82456 24.5083 9.00013C24.3263 9.17569 24.0833 9.27497 23.8297 9.2774C23.6363 9.27653 23.4475 9.21839 23.2874 9.11043C23.1273 9.00246 23.0033 8.84954 22.931 8.67119C22.8587 8.49284 22.8415 8.29713 22.8816 8.10903C22.9217 7.92093 23.0173 7.74896 23.1561 7.61506C23.2949 7.48116 23.4707 7.39139 23.6611 7.35721C23.8514 7.32303 24.0477 7.34599 24.2249 7.42315C24.4021 7.50031 24.5522 7.62818 24.6559 7.79045C24.7597 7.95272 24.8125 8.14204 24.8076 8.33425Z" fill="white"/>
</svg>
