<svg width="24" height="24" viewBox="0 0 24 24" fill="none" xmlns="http://www.w3.org/2000/svg">
<g clip-path="url(#clip0_197_249)">
<path d="M19.2153 9.45437L23.0338 4.68129C23.2958 4.3538 23.3469 3.90521 23.1652 3.52717C22.9835 3.1492 22.6013 2.90884 22.1819 2.90884L13.0909 2.90913V1.09092C13.0909 0.801537 12.976 0.524079 12.7713 0.319495C12.5667 0.11491 12.2892 0 11.9999 0L1.81796 0.000363641C1.21555 0.000363641 0.727112 0.488806 0.727112 1.09129V1.09194V11.9999V22.9091C0.727112 23.5116 1.21555 24 1.81803 24C2.42051 24 2.90896 23.5116 2.90896 22.9091V13.0908H10.9091V14.909C10.9091 15.5115 11.3975 15.9999 12 15.9999H22.1819C22.6013 15.9999 22.9835 15.7595 23.1652 15.3816C23.3469 15.0036 23.2958 14.5549 23.0338 14.2274L19.2153 9.45437ZM2.90896 10.9089V2.18214L10.9091 2.18184V4.00005V10.9089H2.90896ZM13.0909 13.8181V11.9999V5.0909L19.9121 5.09075L16.9664 8.77283C16.6476 9.17131 16.6476 9.73743 16.9664 10.1358L19.9121 13.818H13.0909V13.8181Z" fill="white"/>
</g>
<defs>
<clipPath id="clip0_197_249">
<rect width="24" height="24" fill="white"/>
</clipPath>
</defs>
</svg>
