<svg width="29" height="28" viewBox="0 0 29 28" fill="none" xmlns="http://www.w3.org/2000/svg">
<path d="M21.0449 14.3836C22.9485 13.768 23.8516 13.977 24.1921 15.1047C24.5135 15.0069 24.833 14.8918 25.1487 14.8094C26.0326 14.5907 26.8706 14.8899 27.28 15.5592C27.6894 16.2285 27.6205 17.0685 26.9758 17.782C26.6745 18.1143 26.334 18.4086 25.9618 18.6584C22.8816 20.7009 19.7823 22.7107 16.7116 24.7666C15.16 25.8041 13.6046 25.8233 11.9899 24.9891C10.3752 24.1548 8.7643 23.3455 7.17445 22.4806C6.42832 22.0759 5.77592 22.0357 5.09483 22.5918C4.70539 22.8859 4.2977 23.155 3.87423 23.3973C3.56621 23.5891 3.25245 23.6236 3.0267 23.2822C2.80094 22.9409 2.97121 22.6685 3.2735 22.4672C3.75179 22.1507 4.24347 21.8535 4.71411 21.5255C5.60374 20.9041 6.4991 20.8965 7.44612 21.397C9.04553 22.2428 10.6564 23.0694 12.2692 23.8902C12.6528 24.083 13.0507 24.2458 13.4592 24.3773C13.798 24.504 14.1613 24.5508 14.521 24.5139C14.8807 24.4769 15.227 24.3574 15.5331 24.1644C18.9271 21.9513 22.314 19.7253 25.694 17.4866C25.9412 17.3086 26.1506 17.083 26.31 16.8231C26.6161 16.3532 26.3559 15.8641 25.7896 15.8526C25.5031 15.8496 25.2186 15.9017 24.9516 16.0061C24.5497 16.1564 24.1649 16.3492 23.8037 16.5814C22.0474 17.7589 20.3122 18.971 18.5483 20.1409C18.2068 20.3757 17.8122 20.5214 17.4004 20.5647C14.9477 20.7047 12.4892 20.8217 10.0806 20.1543C9.99447 20.1294 9.90646 20.1083 9.82228 20.0814C9.48174 19.9702 9.29425 19.7362 9.40521 19.3852C9.42171 19.3078 9.45526 19.2351 9.50341 19.1723C9.55156 19.1096 9.6131 19.0584 9.68352 19.0225C9.75394 18.9867 9.83147 18.9671 9.91042 18.9651C9.98938 18.9632 10.0678 18.9789 10.1399 19.0113C12.3266 19.6921 14.5765 19.5176 16.813 19.5061C17.151 19.5043 17.4847 19.4311 17.7926 19.2913C17.8951 19.2334 17.983 19.1526 18.0494 19.0552C18.1158 18.9577 18.1588 18.8462 18.1752 18.7294C18.1659 18.6131 18.1298 18.5006 18.0697 18.4007C18.0096 18.3009 17.9272 18.2164 17.8289 18.154C17.4657 17.9973 17.0762 17.9108 16.681 17.8989C15.1747 17.8306 13.689 17.5204 12.2807 16.9803C11.799 16.7854 11.3649 16.4884 11.0084 16.1096C9.48748 14.5754 7.44038 14.0825 5.41242 14.9129C3.88188 15.5381 2.40109 16.2554 0.887771 16.9036C0.665304 16.9918 0.417669 16.9918 0.195202 16.9036C0.0727595 16.8461 0.00388533 16.5354 0.0268434 16.3474C0.0481537 16.2645 0.0872699 16.1872 0.141462 16.1209C0.195654 16.0547 0.263615 16.0011 0.340603 15.9639C2.00698 15.2274 3.63508 14.3548 5.3665 13.8083C7.84406 13.0124 10.1226 13.3863 11.9956 15.4441C12.407 15.8968 13.1818 16.0195 13.8074 16.265C13.9241 16.3091 14.1307 16.1499 14.28 16.0598C15.3322 15.4096 16.3519 14.6943 17.4444 14.1209C18.0945 13.7982 18.7944 13.5881 19.5144 13.4995C20.1611 13.4132 20.7714 13.6472 21.0449 14.3836ZM19.3231 18.2576C20.559 17.4252 21.7796 16.6121 22.9849 15.7798C23.0389 15.7279 23.0802 15.6642 23.1054 15.5937C23.1307 15.5231 23.1392 15.4476 23.1303 15.3732C23.103 15.3116 23.0619 15.2572 23.0101 15.2143C22.9583 15.1714 22.8973 15.1411 22.8318 15.1258C22.6556 15.0987 22.4758 15.1052 22.3019 15.145C20.8211 15.4077 19.8856 16.5872 18.6554 17.2546L19.3231 18.2576ZM15.4757 16.5795C16.7116 17.0033 17.6816 16.7847 18.5368 16.0041C18.774 15.7894 19.0782 15.6513 19.3269 15.448C19.5756 15.2447 19.788 15.005 20.0176 14.7806C19.6464 14.7461 19.2733 14.702 18.9003 14.6847C18.7737 14.687 18.6501 14.7234 18.5425 14.7902C17.5438 15.3674 16.549 15.9524 15.4757 16.5795Z" fill="white"/>
<path d="M14.3122 5.68625C14.4308 4.38981 14.9837 3.38488 16.1278 2.7846C16.5295 2.57667 16.9697 2.45391 17.4208 2.42396C17.872 2.39402 18.3245 2.45753 18.75 2.61055C19.1756 2.76357 19.5652 3.00281 19.8945 3.31337C20.2238 3.62393 20.4858 3.99915 20.6641 4.41564C20.8424 4.83213 20.9332 5.28097 20.9309 5.73419C20.9286 6.18742 20.8332 6.6353 20.6506 7.04994C20.4681 7.46458 20.2023 7.83709 19.8698 8.14425C19.5374 8.45141 19.1454 8.68665 18.7182 8.83529C18.2495 8.9868 18.1845 9.19008 18.1883 9.61967C18.1773 10.6137 17.7848 11.5652 17.0923 12.2767C16.3998 12.9883 15.4605 13.4051 14.4695 13.4406C13.4785 13.4762 12.5119 13.1277 11.7704 12.4676C11.0289 11.8075 10.5696 10.8865 10.4878 9.89584C10.2831 7.95693 11.7543 6.08515 13.7306 5.77638L14.3122 5.68625ZM17.2528 7.00762L17.2355 6.98844C17.3216 7.12269 17.4058 7.25885 17.4957 7.39118C17.8784 7.96652 18.0257 7.99529 18.6436 7.67501C18.9852 7.50216 19.2758 7.24285 19.4866 6.92279C19.6974 6.60272 19.8212 6.233 19.8456 5.85023C19.8701 5.46747 19.7943 5.08495 19.6259 4.74055C19.4575 4.39616 19.2022 4.10184 18.8854 3.88676C18.5687 3.67167 18.2013 3.54328 17.8198 3.51429C17.4383 3.48531 17.0558 3.55673 16.7103 3.7215C16.3648 3.88627 16.0682 4.13866 15.8499 4.45367C15.6316 4.76869 15.4992 5.1354 15.4659 5.51748C15.465 5.59867 15.4817 5.67909 15.5147 5.75323C15.5477 5.82738 15.5963 5.8935 15.6572 5.94707C16.1756 6.32871 16.7171 6.65666 17.2528 7.00762ZM14.3639 6.83885C14.0045 6.83148 13.6472 6.89572 13.3128 7.02786C12.9784 7.15999 12.6734 7.35739 12.4157 7.60859C12.158 7.85979 11.9526 8.1598 11.8115 8.4912C11.6704 8.8226 11.5963 9.1788 11.5936 9.53913C11.5855 9.90373 11.6497 10.2663 11.7826 10.6058C11.9155 10.9453 12.1144 11.255 12.3677 11.5167C12.621 11.7785 12.9237 11.9872 13.2582 12.1307C13.5926 12.2742 13.9522 12.3496 14.316 12.3526C15.0503 12.3546 15.7555 12.0649 16.2772 11.547C16.7989 11.0291 17.0946 10.325 17.0997 9.58899C17.1002 9.22834 17.0298 8.87112 16.8926 8.53773C16.7554 8.20434 16.554 7.90131 16.3 7.64594C16.0459 7.39056 15.7442 7.18785 15.412 7.04937C15.0798 6.91089 14.7236 6.83935 14.3639 6.83885V6.83885Z" fill="white"/>
<path d="M14.8174 11.0678H13.8608V9.14996L13.2275 9.05215C13.6982 8.22366 14.0674 8.00886 14.8231 8.13544L14.8174 11.0678Z" fill="white"/>
<path d="M17.2527 7.00761V5.37939L16.6787 5.23748C17.0613 4.83474 17.3139 4.30734 18.0179 4.53748V6.94241L17.2221 6.98843L17.2527 7.00761Z" fill="white"/>
</svg>
