<svg width="25" height="25" viewBox="0 0 25 25" fill="none" xmlns="http://www.w3.org/2000/svg">
<path d="M21.4479 6.53125H3.55208C2.45327 6.53125 1.5625 7.42202 1.5625 8.52083V20.4479C1.5625 21.5467 2.45327 22.4375 3.55208 22.4375H21.4479C22.5467 22.4375 23.4375 21.5467 23.4375 20.4479V8.52083C23.4375 7.42202 22.5467 6.53125 21.4479 6.53125Z" stroke="white" stroke-miterlimit="10" stroke-linecap="square"/>
<path d="M14.4896 13.5416H19.4583C19.9848 13.543 20.5063 13.4397 20.9925 13.2376C21.4786 13.0355 21.9197 12.7387 22.29 12.3645C22.6603 11.9903 22.9525 11.5462 23.1495 11.0579C23.3465 10.5697 23.4444 10.0472 23.4375 9.52075V8.47909C23.4375 7.95142 23.2279 7.44536 22.8548 7.07224C22.4817 6.69912 21.9756 6.4895 21.4479 6.4895H3.55209C3.28727 6.48944 3.02511 6.54225 2.78096 6.64483C2.53682 6.74742 2.31561 6.89771 2.13031 7.08689C1.945 7.27608 1.79933 7.50035 1.70183 7.74657C1.60433 7.99279 1.55696 8.25599 1.56251 8.52075V9.56242C1.56113 10.0854 1.66312 10.6034 1.86261 11.0868C2.06209 11.5702 2.35514 12.0094 2.72492 12.3792C3.09469 12.749 3.53389 13.042 4.01729 13.2415C4.50069 13.441 5.01874 13.543 5.54168 13.5416H14.4896Z" stroke="white" stroke-miterlimit="10"/>
<path d="M12.5 12.5V14.4896" stroke="white" stroke-miterlimit="10" stroke-linecap="square"/>
<path d="M16.4791 6.53125H8.52081L9.52081 2.5625H15.4791L16.4791 6.53125Z" stroke="white" stroke-miterlimit="10" stroke-linecap="square"/>
</svg>
