<svg width="66" height="66" viewBox="0 0 66 66" fill="none" xmlns="http://www.w3.org/2000/svg">
<g clip-path="url(#clip0_76_173)">
<path d="M24.75 8.25C26.7896 8.25 28.7834 8.85482 30.4793 9.98797C32.1752 11.1211 33.497 12.7317 34.2775 14.6161C35.058 16.5004 35.2623 18.5739 34.8644 20.5744C34.4664 22.5748 33.4843 24.4123 32.042 25.8545C30.5998 27.2968 28.7623 28.2789 26.7619 28.6768C24.7614 29.0748 22.6879 28.8705 20.8036 28.09C18.9192 27.3095 17.3086 25.9877 16.1755 24.2918C15.0423 22.5959 14.4375 20.6021 14.4375 18.5625C14.4375 15.8275 15.524 13.2044 17.458 11.2705C19.3919 9.33649 22.015 8.25 24.75 8.25ZM24.75 4.125C21.8945 4.125 19.1032 4.97174 16.729 6.55816C14.3547 8.14457 12.5042 10.3994 11.4115 13.0375C10.3188 15.6756 10.0328 18.5785 10.5899 21.3791C11.147 24.1797 12.522 26.7522 14.5412 28.7714C16.5603 30.7905 19.1328 32.1655 21.9334 32.7226C24.734 33.2797 27.6369 32.9937 30.275 31.901C32.9131 30.8083 35.1679 28.9578 36.7543 26.5835C38.3408 24.2093 39.1875 21.418 39.1875 18.5625C39.1875 14.7334 37.6664 11.0612 34.9589 8.35365C32.2513 5.64609 28.5791 4.125 24.75 4.125Z" fill="#039EC0"/>
<path d="M45.375 61.875H41.25V51.5625C41.25 48.8275 40.1635 46.2044 38.2295 44.2705C36.2956 42.3365 33.6725 41.25 30.9375 41.25H18.5625C15.8275 41.25 13.2044 42.3365 11.2705 44.2705C9.33649 46.2044 8.25 48.8275 8.25 51.5625V61.875H4.125V51.5625C4.125 47.7334 5.64609 44.0612 8.35365 41.3536C11.0612 38.6461 14.7334 37.125 18.5625 37.125H30.9375C34.7666 37.125 38.4388 38.6461 41.1464 41.3536C43.8539 44.0612 45.375 47.7334 45.375 51.5625V61.875Z" fill="#039EC0"/>
<path d="M51.5625 33.3712L46.2206 28.0293L43.3125 30.9374L51.5625 39.1874L66 24.7499L63.0919 21.8418L51.5625 33.3712Z" fill="#039EC0"/>
</g>
<defs>
<clipPath id="clip0_76_173">
<rect width="66" height="66" fill="white"/>
</clipPath>
</defs>
</svg>
